<svg xmlns="http://www.w3.org/2000/svg" viewBox="0 0 1024 1024"><path d="M0 0h1024v1024H0V0z" fill="#fefefe"/><path d="M685.8095855713 326.8595581055c.77984739-.00297112 1.55969478-.00594224 2.3631739-.0090034 2.60982353-.00866257 5.21960104-.0101932 7.82943779-.01168752 1.87286985-.00463001 3.74573876-.00965492 5.61860657-.01504516 5.08712392-.01311091 10.17423464-.01956675 15.26137281-.02401066 3.18129933-.00293366 6.36259509-.00703909 9.54389262-.01150418 9.96218491-.01367329 19.92436161-.02334 29.88655525-.02720189 11.48317468-.00447637 22.96623006-.02200549 34.44936848-.05100059 8.88599224-.02165477 17.77195102-.03170576 26.65796936-.03304053 5.30220871-.00104557 10.60430526-.00690033 15.90648609-.02481961 4.99294236-.01654568 9.98568904-.01860476 14.97864914-.00986099 1.82522164.00076698 3.65045409-.00352729 5.47564888-.01345825 23.87264585-.12219708 23.87264585-.12219708 33.78175354 6.43357467.78503906.50660157 1.57007812 1.01320313 2.37890625 1.53515625.67933594.46277344 1.35867187.92554688 2.05859375 1.40234375l3 2v2c.5878125.23074219 1.175625.46148438 1.78125.69921875 2.80590689 1.64501232 3.95992093 3.38309886 5.71875 6.11328125.85078125 1.27810547.85078125 1.27810547 1.71875 2.58203125 5.39629351 9.95704719 6.36718251 20.34493287 6.29882812 31.4609375.00543608 1.43894148.01256699 2.87787738.02124024 4.31680298.01806019 3.86789016.01123851 7.73534817-.00151634 11.60324478-.01021844 4.07247854-.00071003 8.14492323.00554466 12.21740342.00725092 6.83543451-.00224375 13.67069543-.02136231 20.50610351-.02176388 7.87144606-.01471069 15.74247751.00730563 23.61391354.0182273 6.79195229.02067672 13.58378071.01024532 20.37574959-.00619489 4.04179383-.0071823 8.08339361.00614595 12.12517452.01166546 3.80224115.00334098 7.60395448-.01957702 11.40613937-.00770005 2.03821743.00397677 4.07648018.01651001 6.11467362-.12850214 14.17688393-3.72026858 25.87735254-13.74914551 36.11923217-7.82378864 7.2373377-16.71642274 12.91734934-27.83578491 12.70755005-2.24475183-.16536388-4.47989927-.37966451-6.71890259-.6098938-13.83681462-1.23542041-27.180198-2.40565043-38.604599 6.70532227-8.87729631 7.81559347-16.60216828 16.78136937-24.01673889 25.96992493-5.19494455 6.33950111-10.74092543 12.32591968-16.49194336 18.1606903-.65613281.68513672-1.31226563 1.37027344-1.98828125 2.07617188-5.19808513 5.2639478-10.88603524 10.08237682-18.38671875 11.23632812-3.38738332-.61588787-5.12620917-1.23077549-7.75-3.5-2.94331507-6.5177448-3.96384219-12.97441365-4.9375-20.0234375-.1662085-1.14135406-.33241699-2.28270813-.50366211-3.45864868-.52809834-3.62980793-1.04469337-7.26110497-1.55883789-10.89291382-.51462563-3.6245865-1.03205029-7.24865041-1.55883789-10.87149047-.32671514-2.24731475-.64662896-4.49563284-.9584961-6.74505616-1.66813875-13.52001591-1.66813875-13.52001591-9.48266601-24.00845337-4.17222341-2.71679663-6.82501755-4.12220066-11.79418945-4.1418457-1.49845208-.01055168-1.49845208-.01055168-3.02717591-.02131653-1.08633224-.00416427-2.17266449-.00832855-3.29191589-.01261902-2.30404534-.02322361-4.6080818-.04734192-6.91210938-.07226562-3.62904576-.0349205-7.25777064-.06434369-10.88696289-.07788086-31.52094148-.14057367-31.52094148-.14057367-45.08764648-10.67407227l-3.1875-2.3125c-8.47043877-8.09397482-13.44380192-19.4248054-13.91033173-31.145298-.04659401-3.07772029-.06017408-6.15406812-.06330108-9.2321434-.00744736-1.75730438-.00744736-1.75730438-.01504517-3.55010987-.01458779-3.87050975-.02141859-7.74097851-.02694702-11.61151123-.00273811-1.33888142-.00559469-2.6777626-.00856781-4.01664352-.01366097-6.29404122-.02333359-12.58806953-.02720189-18.88212454-.00447277-7.23546705-.02199007-14.47074444-.0510006-21.70615387-.02171111-5.61215553-.03170874-11.22425808-.03304052-16.83645511-.00104163-3.3427092-.00828756-6.68509869-.02481961-10.02778876-.01716426-3.73779809-.0151545-7.47514097-.00868988-11.2129631-.00921479-1.08822052-.01842957-2.17644104-.02792359-3.29763794.07932962-14.73379126 4.48750295-26.48918488 14.4781189-37.35617066 9.38981462-8.92802045 20.93664187-12.96822942 33.71583557-12.95294189z" fill="#fefefe"/><path d="M685.8095855713 326.8595581055c.77984739-.00297112 1.55969478-.00594224 2.3631739-.0090034 2.60982353-.00866257 5.21960104-.0101932 7.82943779-.01168752 1.87286985-.00463001 3.74573876-.00965492 5.61860657-.01504516 5.08712392-.01311091 10.17423464-.01956675 15.26137281-.02401066 3.18129933-.00293366 6.36259509-.00703909 9.54389262-.01150418 9.96218491-.01367329 19.92436161-.02334 29.88655525-.02720189 11.48317468-.00447637 22.96623006-.02200549 34.44936848-.05100059 8.88599224-.02165477 17.77195102-.03170576 26.65796936-.03304053 5.30220871-.00104557 10.60430526-.00690033 15.90648609-.02481961 4.99294236-.01654568 9.98568904-.01860476 14.97864914-.00986099 1.82522164.00076698 3.65045409-.00352729 5.47564888-.01345825 23.87264585-.12219708 23.87264585-.12219708 33.78175354 6.43357467.78503906.50660157 1.57007812 1.01320313 2.37890625 1.53515625.67933594.46277344 1.35867187.92554688 2.05859375 1.40234375l3 2v2c.5878125.23074219 1.175625.46148438 1.78125.69921875 2.80590689 1.64501232 3.95992093 3.38309886 5.71875 6.11328125.85078125 1.27810547.85078125 1.27810547 1.71875 2.58203125 5.39629351 9.95704719 6.36718251 20.34493287 6.29882812 31.4609375.00543608 1.43894148.01256699 2.87787738.02124024 4.31680298.01806019 3.86789016.01123851 7.73534817-.00151634 11.60324478-.01021844 4.07247854-.00071003 8.14492323.00554466 12.21740342.00725092 6.83543451-.00224375 13.67069543-.02136231 20.50610351-.02176388 7.87144606-.01471069 15.74247751.00730563 23.61391354.0182273 6.79195229.02067672 13.58378071.01024532 20.37574959-.00619489 4.04179383-.0071823 8.08339361.00614595 12.12517452.01166546 3.80224115.00334098 7.60395448-.01957702 11.40613937-.00770005 2.03821743.00397677 4.07648018.01651001 6.11467362-.12850214 14.17688393-3.72026858 25.87735254-13.74914551 36.11923217-7.82378864 7.2373377-16.71642274 12.91734934-27.83578491 12.70755005-2.24475183-.16536388-4.47989927-.37966451-6.71890259-.6098938-13.83681462-1.23542041-27.180198-2.40565043-38.604599 6.70532227-8.87729631 7.81559347-16.60216828 16.78136937-24.01673889 25.96992493-5.19494455 6.33950111-10.74092543 12.32591968-16.49194336 18.1606903-.65613281.68513672-1.31226563 1.37027344-1.98828125 2.07617188-5.19808513 5.2639478-10.88603524 10.08237682-18.38671875 11.23632812-3.38738332-.61588787-5.12620917-1.23077549-7.75-3.5-2.94331507-6.5177448-3.96384219-12.97441365-4.9375-20.0234375-.1662085-1.14135406-.33241699-2.28270813-.50366211-3.45864868-.52809834-3.62980793-1.04469337-7.26110497-1.55883789-10.89291382-.51462563-3.6245865-1.03205029-7.24865041-1.55883789-10.87149047-.32671514-2.24731475-.64662896-4.49563284-.9584961-6.74505616-1.66813875-13.52001591-1.66813875-13.52001591-9.48266601-24.00845337-4.17222341-2.71679663-6.82501755-4.12220066-11.79418945-4.1418457-1.49845208-.01055168-1.49845208-.01055168-3.02717591-.02131653-1.08633224-.00416427-2.17266449-.00832855-3.29191589-.01261902-2.30404534-.02322361-4.6080818-.04734192-6.91210938-.07226562-3.62904576-.0349205-7.25777064-.06434369-10.88696289-.07788086-31.52094148-.14057367-31.52094148-.14057367-45.08764648-10.67407227l-3.1875-2.3125c-8.47043877-8.09397482-13.44380192-19.4248054-13.91033173-31.145298-.04659401-3.07772029-.06017408-6.15406812-.06330108-9.2321434-.00744736-1.75730438-.00744736-1.75730438-.01504517-3.55010987-.01458779-3.87050975-.02141859-7.74097851-.02694702-11.61151123-.00273811-1.33888142-.00559469-2.6777626-.00856781-4.01664352-.01366097-6.29404122-.02333359-12.58806953-.02720189-18.88212454-.00447277-7.23546705-.02199007-14.47074444-.0510006-21.70615387-.02171111-5.61215553-.03170874-11.22425808-.03304052-16.83645511-.00104163-3.3427092-.00828756-6.68509869-.02481961-10.02778876-.01716426-3.73779809-.0151545-7.47514097-.00868988-11.2129631-.00921479-1.08822052-.01842957-2.17644104-.02792359-3.29763794.07932962-14.73379126 4.48750295-26.48918488 14.4781189-37.35617066 9.38981462-8.92802045 20.93664187-12.96822942 33.71583557-12.95294189zm-22.52052307 31.00372314c-4.37723233 7.25559419-4.72706516 13.82140982-4.69311524 22.10131836-.00686325 1.17664719-.0137265 2.35329438-.02079773 3.56559754-.01824194 3.87417299-.01443406 7.74794004-.00874328 11.6221466-.00247839 2.01878841-.00682601 4.03756697-.01135308 6.05635173-.01401408 6.34153071-.01251002 12.68292662-.00109809 19.02445882.01147859 6.52234652-.00259682 13.0442817-.02939648 19.56657404-.0222157 5.61896839-.02878124 11.23780821-.02292359 16.85681736.00335685 3.34765929-.00068802 6.69484517-.01625102 10.0425033-.0149222 3.73596115-.0042223 7.47102331.01290702 11.20695686-.00966796 1.09586426-.01933593 2.19172852-.02929687 3.32080079.07794084 8.14220383 1.91712059 14.50082962 6.78100586 21.08569335 5.069447 4.9542323 11.31645523 7.77992043 18.42993164 7.86108399 1.42277.02023476 1.42277.02023476 2.87428284.04087829 1.02496078.01043839 2.04992157.02087677 3.10594177.03163147 2.17773807.03296013 4.35547234.06617138 6.53320312.09960938 3.42729894.04723764 6.85458498.09162923 10.28198243.13110352 3.31177322.04001636 6.6232233.09150969 9.93481445.1442871 1.01079117.00841416 2.02158234.01682831 3.06300354.02549744 13.13028103.22513802 24.10086831 2.93604618 33.90184021 12.16590881 11.34767033 12.32231687 12.05930924 29.1665862 14.3125 45.0625.22677581 1.57428187.45398704 3.14850108.68164062 4.72265625.54862135 3.80008062 1.09141617 7.60094987 1.63085938 11.40234375h2c1.47598726-1.45291269 1.47598726-1.45291269 3.0168457-3.38134765 4.329793-5.08772485 8.99455885-9.7919896 13.71362305-14.51708985.91284256-.91617095 1.82568512-1.83234191 2.76618957-2.77627563 1.91691815-1.92285534 3.83583978-3.84368485 5.75602723-5.76327515 2.45624725-2.45614488 4.90549564-4.91914654 7.35311412-7.38388633 2.34956449-2.36334846 4.70629581-4.71950331 7.06216908-7.07656289.87609421-.88327972 1.75218841-1.76655944 2.65483093-2.67660522.81797562-.81489899 1.63595123-1.62979797 2.47871399-2.46939087.71612961-.71755463 1.43225922-1.43510925 2.17008972-2.17440796 3.4273397-3.00958651 6.00128615-4.03092524 10.54646301-4.0206604 1.33256333-.00559685 1.33256333-.00559685 2.69204712-.01130676 1.43126725.00620109 1.43126725.00620109 2.89144898.01252746 2.03776701-.01542806 4.07552754-.0317323 6.11328125-.04882812 3.1992019-.01639989 6.3979278-.02541779 9.59716797-.01831055 3.09705711.00263804 6.19268556-.02563782 9.28955078-.05786133 1.41304916.01531014 1.41304916.01531014 2.85464477.03092957 7.61726843-.11071931 14.5314685-2.08310936 19.99340821-7.65734863 6.68989557-8.13505155 6.35163654-16.75966805 6.356781-26.86503601.00763033-1.40351295.01605932-2.80702174.02522278-4.21052552.0218647-3.79766467.03073293-7.59524887.03582645-11.39296937.00365283-2.37692066.00989765-4.75382054.01700139-7.13073325.02446577-8.30442028.03754034-16.60877834.04109001-24.9132328.00363393-7.72145028.03352624-15.44250278.07540458-23.16383153.03477131-6.6456914.05014503-13.29125137.05084145-19.93703306.00079044-3.96196064.00942081-7.92351549.03799767-11.88538152.02629903-3.72913786.02832102-7.45753683.01234436-11.18672562-.00266023-2.00670099.01928766-4.01338837.04219246-6.0199604-.0726638-9.04437525-1.83025642-15.71917852-7.67166138-22.74237061-.63035156-.515625-1.26070313-1.03125-1.91015625-1.5625-.94166016-.804375-.94166016-.804375-1.90234375-1.625-5.10749459-3.25106346-10.2346602-3.66879009-16.14814758-3.64915466-.78690207-.00523668-1.57380413-.01047336-2.38455171-.01586872-2.62757991-.01495985-5.2549644-.01570426-7.88258391-.0163731-1.88773933-.00762416-3.77547556-.0160521-5.66320801-.02522278-5.12199249-.02192585-10.24392529-.03074127-15.36595941-.03582644-3.20189041-.00364566-6.40376524-.0098868-9.60564971-.01700139-11.1756083-.0244873-22.35117022-.03754496-33.52680397-.04109001-10.40878868-.00363529-20.81728249-.03353214-31.22598105-.07540459-8.9437223-.03471477-17.88734691-.05014406-26.83113611-.05084145-5.33850433-.00079237-10.67670817-.00951285-16.01514274-.03799766-5.02260554-.02620101-10.04466185-.02837436-15.06730461-.01234436-1.83938992.00181282-3.67881157-.00486117-5.51813317-.02081871-12.30945637-.10025152-21.20804468.70232602-29.63649177 10.48622512z" fill="#fec001"/><path d="M130 363c74.41986456 0 74.41986456 0 86 9 6.21550104 6.33351688 9.34243115 13.80077432 9.41748047 22.64697266-.01401856.75587402-.02803711 1.51174804-.04248047 2.29052734-.01015137.79196777-.02030273 1.58393555-.03076172 2.39990234C225.0898907 408.90599777 222.65191204 415.93334045 216 423c-1.9443441 1.56517495-3.82358439 2.75633394-6 4 1.98564431 1.49809772 3.9763951 2.98312619 6 4.4296875 7.50549289 5.42389134 11.2864827 10.35233989 13 19.5703125 1.00215378 12.7196441-.99277088 24.93980531-9 35.1875-6.15138251 6.64190224-14.50481749 9.385305-23 11.8125h-67V363z" fill="#151314"/><path d="M396 548c11.0363722 9.17386056 17.13129018 21.85369201 19 36 1.1772865 17.05383581-1.55431258 32.65701467-12.80859375 46.171875-9.91531376 10.61357529-23.1667995 16.44013252-37.57421875 17.06640625C348.53576749 647.61262069 334.82320012 644.57005153 322.75 633.25c-11.82023662-12.65264765-15.52033406-27.91720109-15.34375-44.80029297.56109429-15.05185525 6.16394714-29.11706872 17.26953125-39.56689453C345.16361846 532.28594269 374.9008897 532.20367495 396 548z" fill="#151315"/><path d="M496 363h82v26h-55v29h50v25h-50v30h57v25h-84V363z" fill="#141214"/><path d="M436 539c58.52747253 0 58.52747253 0 69.68359375 9.421875C511.72465134 554.50812753 514.12193232 563.5894352 514.4375 572c-.58738531 11.63401875-3.42877856 20.43094111-12 28.375C498.93409225 602.71060517 496.23466336 604 492 604c2.12327158 3.50105119 4.24876755 7.00074625 6.375 10.5.63180176 1.04051514 1.26360352 2.08103027 1.91455078 3.15307617 4.21541267 6.92913126 8.4767215 13.82599913 12.86425781 20.64770508C516 642.78320064 516 642.78320064 516 645h-26c-.86882812-1.67707031-1.73765625-3.35414063-2.6328125-5.08203125-1.1640024-2.24352076-2.3280683-4.48700859-3.4921875-6.73046875-.56976563-1.10021484-1.13953125-2.20042969-1.7265625-3.33398438-1.14718162-2.20962824-2.30905113-4.41169179-3.48535156-6.60595703C477 620 477 620 475.68847656 616.75634766 474.3159956 613.29377894 474.3159956 613.29377894 471 609l-13-1v37h-22V539z" fill="#131213"/><path d="M240 363h31l5.375 10.3125c3.99094379 7.65058248 7.98584529 15.29906574 12 22.9375.40702148.77504883.81404297 1.55009766 1.23339844 2.34863281 2.73735607 5.19805249 5.5416467 10.35213773 8.43066406 15.46777344C299 416 299 416 299 418h2c.22961426-.78826172.45922852-1.57652344.69580078-2.38867188 1.68768858-4.6732103 3.90048681-8.97920966 6.17138672-13.39257812.4759964-.93171021.9519928-1.86342041 1.44241333-2.82336426 1.00492357-1.96439595 2.0119571-3.92771377 3.02096558-5.89001465 1.53770025-2.99226844 3.06691603-5.98876078 4.59521484-8.98583984.97996291-1.91301962 1.96041547-3.82578851 2.94140625-5.73828125.68145584-1.33617371.68145584-1.33617371 1.37667847-2.69934082C322.46914618 373.70572196 323.72562793 371.35013769 325 369c.32307129-.63330231.64614258-1.26660461.97900391-1.9190979C326.91357422 365.42529297 326.91357422 365.42529297 329 363c3.02441406-.68115234 3.02441406-.68115234 6.515625-.5859375 1.25039063.01933594 2.50078125.03867187 3.7890625.05859375 1.30195313.05027344 2.60390625.10054688 3.9453125.15234375 1.31742187.02707031 2.63484375.05414063 3.9921875.08203125 3.25424837.07074453 6.50520998.16942814 9.7578125.29296875-1.07108819 3.36983562-2.13040555 6.53831603-3.890625 9.609375-.55856689.98758301-.55856689.98758301-1.12841797 1.99511719-.40621582.70801758-.81243164 1.41603515-1.23095703 2.14550781-4.30165809 7.61788614-8.48975411 15.29053746-12.625 23-4.53833905 8.45080703-9.09287149 16.8921459-13.6875 25.3125-.47614746.87301758-.95229492 1.74603516-1.44287109 2.64550781-3.93349433 7.20138493-3.93349433 7.20138493-5.24610901 9.14680481-4.16993274 6.55461172-4.48205633 12.18874767-4.45555115 19.83659363-.02268196 1.77877785-.02268196 1.77877785-.04582214 3.5934906-.04272729 3.75939676-.05170122 7.51798821-.05964661 11.27760315-.02315571 2.56056806-.04852326 5.12111714-.07617188 7.68164062C313.04449017 485.49652742 313.02337286 491.74669805 313 498h-27c.07863281-3.5475.15726562-7.095.23828125-10.75 1.27068682-33.86170971 1.27068682-33.86170971-12.41992187-63.76464844C270.60008926 419.08658817 268.11219035 414.27390666 265.5 409.5c-1.07173884-1.89203189-2.14596227-3.78265852-3.22265625-5.671875-4.99807801-8.84333224-9.80289555-17.79259989-14.60913086-26.74121094C245.12643339 372.38352463 242.56006885 367.69345956 240 363z" fill="#141314"/><path d="M373 363h99v25h-35v110h-27V388h-37v-25zM730.66015625 542.73046875C737.10420003 547.98000685 741.12008695 554.64082598 742 563v7h-21l-1.1875-5.3125c-1.17828529-4.33003447-1.17828529-4.33003447-3.875-7.8125-7.66300178-2.28259628-13.73985487-2.60235194-20.9375 1.125-2.66066357 4.07794515-2.6707665 8.287212-2 13 4.28124321 6.88721734 15.52315869 8.85241006 22.875 10.875 11.73455772 3.41551542 21.75509547 6.98230986 28.125 18.125 3.41591274 8.23499503 3.47196243 19.16198941.375 27.5625-4.16070345 8.71696674-10.48796109 14.03337369-19.375 17.6875-12.50694292 3.93968702-29.25400089 3.84192822-41-2.25-6.94020193-3.74513426-10.3312109-8.64192155-13-16-1.42082547-5.12538613-2-9.66551981-2-15h22l2 9c3.37615623 4.53369551 6.50000316 5.95689715 12 7 5.93367613.65929735 11.02665915-.71820278 16-4 2.07905527-3.19095508 2.32523092-6.11584359 2.55859375-9.90234375C722.66508978 610.74233016 720.58599813 609.2516149 718 607c-3.38743424-1.56652817-3.38743424-1.56652817-7.171875-2.68359375-.68185364-.22285172-1.36370728-.44570343-2.06622314-.67530823-2.16628593-.7073331-4.33797614-1.39513628-6.51190186-2.07859802-24.59299594-7.74745661-24.59299594-7.74745661-31-19.875-3.05197774-8.88614514-2.45801745-20.28829607 1.546875-28.70703125C674.51496036 550.15232174 676.45804929 548.10795912 679 546l2.25-2.0625c13.66576443-9.62815221 35.29979893-10.38601553 49.41015625-1.20703125z" fill="#151415"/><path d="M191 543.25c7.46001102 6.18273866 8.76021213 13.39928234 9.8359375 22.65234375.05414063 1.02222656.10828125 2.04445313.1640625 3.09765625-1 1-1 1-2.94946289 1.11352539-.83265381-.00523682-1.66530762-.01047363-2.52319336-.01586914-.89912109-.00322266-1.79824219-.00644531-2.72460937-.00976563-1.41829102-.01256835-1.41829102-.01256835-2.86523438-.02539062-.94939453-.00451172-1.89878906-.00902344-2.87695312-.01367188C184.70696935 570.0370011 182.35351523 570.02052025 180 570c-.10054687-.83144531-.20109375-1.66289063-.3046875-2.51953125-.9008371-6.30643853-.9008371-6.30643853-4.76953125-10.98046875-5.80967658-1.89703725-12.0305158-2.18286833-17.92578125-.5-3.02569115 2.03771037-4.49846728 3.43862457-5.62109375 6.93359375-.59082601 3.22213359-.49608818 5.72267259.55859375 8.81640625 6.00508841 6.55100554 16.14845849 8.18760877 24.3984375 10.4296875C186.60566826 585.12950378 196.0750688 589.75052408 202 599c4.17726564 9.10047157 4.0760568 18.37902117.90234375 27.75390625-2.92610245 7.28358836-8.48014846 13.01143799-15.46875 16.54296875C174.49503513 648.61884546 158.11059756 649.20510291 145 644c-7.18272095-3.62430873-12.14823769-8.26108141-15.08984375-15.7890625C128.39586025 622.86865718 128.33864432 617.53119056 128 612h21l2 9c3.36940439 4.52462875 6.46803445 6.0931204 12 7 5.80844665-.00921976 11.15608126-.57381358 16-4 2.94036919-4.07857662 3.28811219-7.24410585 2.91015625-12.0703125-1.92035112-4.07147405-6.17655964-5.6439617-10.1796875-7.203125-1.16917969-.36351562-2.33835938-.72703125-3.54296875-1.1015625-1.32063122-.42479167-2.6409308-.85061539-3.9609375-1.27734375C162.81771258 601.89842419 161.40885828 601.44920584 160 601c-23.43997456-7.49935067-23.43997456-7.49935067-30-20-3.27054202-6.54108404-1.92557938-18.45540454-.12890625-25.3359375C133.71482779 547.47249815 140.63047559 542.14751345 149 539c13.78329087-3.99974412 29.57035587-3.61855154 42 4.25z" fill="#151315"/><path d="M587 539h65v20h-43v23h39v20h-39v23h44v20h-66V539z" fill="#141314"/><path d="M217 539h81v19h-29l.21875 12.68359375c.05772502 3.41726325.11502361 6.83453309.17204285 10.25180817.05956618 3.56313768.11981711 7.12626021.18196106 10.68935394C269.88248959 609.41843224 270.05314596 627.20274629 270 645h-23v-87h-30v-19z" fill="#151415"/><path d="M382 564v2h2c.98414433 1.91411557 1.96213349 3.8313967 2.9375 5.75.54527344 1.06734375 1.09054687 2.1346875 1.65234375 3.234375 4.21560632 9.01509162 3.81107772 22.20863194 1.28515625 31.703125-3.00378384 8.11871765-8.5823935 14.0010965-16.125 18.0625-8.18179722 2.79985456-19.41198866 2.84211699-27.375-.6875C338.72332791 619.44803336 334.54828631 612.35271624 332 604c-.18175781-.58007812-.36351562-1.16015625-.55078125-1.7578125-2.36746676-11.81674713-.48425653-23.50786914 6.17578125-33.5546875C348.7782483 554.8949334 368.07825014 554.71883342 382 564z" fill="#fdfdfd"/><path d="M437 541h1l1 43 1-8 1.8125-.1875c2.44290917-.64819219 2.44290917-.64819219 3.6875-3.3125 1.5-2.5 1.5-2.5 3.6875-3.3125L451 569c.125 4.75.125 4.75-1 7l2 1v4l3-2v10h2l1-31 10-.1875c1.53527344-.04096802 1.53527344-.04096802 3.1015625-.08276367C477.1227785 557.67555937 481.53269068 558.43117321 487 561c4.50381787 4.64910232 4.34075771 9.88782657 4.28125 16.046875-.3783836 3.97302777-1.54700047 6.0710782-4.28125 8.953125-3.64345922 2.58898742-6.06660451 3.36759881-10.51953125 3.29296875-1.02158203-.00966797-2.04316406-.01933594-3.09570313-.02929687-1.05509765-.02513672-2.11019531-.05027344-3.19726562-.07617188-1.61165039-.02030273-1.61165039-.02030273-3.25585938-.04101562C464.28724545 589.11122577 461.64388252 589.06194366 459 589v2l15 1-3 1v4c-.55429687.15855469-1.10859375.31710937-1.6796875.48046875-4.80015547 1.42329912-4.80015547 1.42329912-7.8203125 5.20703125L461 605h-3c-1.27159943 3.88959827-1.12651187 7.78563579-1.09765625 11.828125.00212242 1.12350861.00212242 1.12350861.00428772 2.26971436.00558194 2.38409476.01813108 4.76809442.03086853 7.15216064.00501734 1.61979031.00957984 3.23958209.01367188 4.859375.01015268 3.96360748.02973147 7.92701021.04882812 11.890625h-20V541z" fill="#171516"/><path d="M538 539h22v106h-22V539z" fill="#151314"/><path d="M157 441l15.5-.1875c2.39668945-.04096802 2.39668945-.04096802 4.84179688-.08276367C193.346792 440.6360043 193.346792 440.6360043 198.875 445.7265625c3.90999437 6.5981155 3.7352188 11.61212469 2.5 19.0234375-1.7948672 4.24241339-3.61025715 5.63772945-7.375 8.25-3.63233102 1.21077701-6.95121987 1.12444164-10.73046875 1.09765625-.75042068-.00141495-1.50084137-.0028299-2.27400208-.00428772-2.39438377-.00559293-4.7886737-.01814409-7.18302917-.03086853-1.62434761-.00501592-3.24869668-.00957866-4.87304688-.01367188C164.95957025 474.0386598 160.97989007 474.01908312 157 474v-33z" fill="#fdfdfd"/><path d="M157 387l14.0625-.1875c2.17541382-.04096802 2.17541382-.04096802 4.39477539-.08276367 7.93938695-.05127877 13.40610409.13984814 19.85522461 5.02026367 3.18861638 4.25148851 3.92314261 8.60377316 3.625 13.8125-.71171318 4.84958053-2.32237432 7.14371883-5.9375 10.4375-4.48977094 1.88861182-8.30346916 2.23672249-13.1484375 2.1953125-1.20317871-.00499512-2.40635742-.00999023-3.64599609-.01513672-2.26738037-.02731201-2.26738037-.02731201-4.58056641-.05517578L157 418v-31z" fill="#fcfcfc"/><path d="M786.25 378.875c.8461084-.00459229 1.6922168-.00918457 2.56396484-.01391602 6.0626071.01548796 6.0626071.01548796 7.18603516 1.13891602.10082764 2.43660446.13972603 4.84424701.1328125 7.28125.00095673.72868286.00191345 1.45736572.00289917 2.20812988.00068168 1.54341722-.00117179 3.08683729-.00534058 4.63024903-.00534847 2.37034509-.00005467 4.74050068.00634766 7.11083984-.00066078 1.49609417-.00194195 2.99218822-.00390625 4.48828125.00202423.71353638.00404846 1.42707275.00613403 2.16223145C796.11495191 412.88504809 796.11495191 412.88504809 795 414c-4.39958247.24215865-8.80469474.22850329-13.21020508.24023438-2.21481807.00971091-4.42871033.04072352-6.64331054.07226562-1.40168718.0065293-2.80338102.01178006-4.20507813.015625-1.28189209.0093457-2.56378418.01869141-3.88452148.02832031C766.04811279 414.23881836 765.03934082 414.12119141 764 414c-2.44319406-3.66479109-2.2449919-5.45596257-2.23046875-9.8203125.00045822-.65926483.00091644-1.31852966.00138855-1.99777222.00301605-1.39024663.01088305-2.78049008.02326965-4.17068481.01830321-2.13537464.0205093-4.27031668.02026367-6.40576172C761.85251004 381.14748996 761.85251004 381.14748996 763 380c7.69109018-1.07040946 15.49848132-1.10089974 23.25-1.125z" fill="#febf02"/><path d="M813.6640625 442.50390625c1.92972656-.0009668 1.92972656-.0009668 3.8984375-.00195312.99966797.01558959.99966797.01558959 2.01953125.03149414 2.04378839.02906439 4.08499828.02058219 6.12890625.00756836 7.41776451.0484091 7.41776451.0484091 10.2890625.45898437 2.43476296 3.65214443 2.19162607 5.23358301 2.046875 9.56640625a676347009.5710819 676347009.5710819 0 01-.12890625 3.90820312c-.02787598.6705542-.05575195 1.3411084-.08447266 2.03198243-.08332163 2.05161258-.14509922 4.10309105-.20458984 6.15551757C837.25567776 474.74432224 837.25567776 474.74432224 835 477c-3.05688477.24291992-3.05688477.24291992-6.94140625.23046875-.68287582-.00045822-1.36575165-.00091644-2.06932068-.00138855-1.44330076-.00302129-2.88659829-.01090398-4.32984924-.02326965-2.21666936-.01826725-4.43292141-.02050962-6.64965821-.02026368C804.14742468 477.14742468 804.14742468 477.14742468 803 476c-.26614584-4.07808844-.27125966-8.1598149-.29516602-12.24584961-.01718001-2.04829351-.06104387-4.09495861-.1052246-6.14282226-.00837891-1.2909961-.01675782-2.58199219-.02539063-3.91210938-.01458252-1.18762939-.02916504-2.37525879-.04418945-3.59887695C803 447 803 447 804.61010742 444.61230469c3.16642636-2.1361814 5.24982735-2.1143659 9.05395508-2.10839844zM775.875 470.75l3.95703125-.0625 3.78515625-.015625c1.72645752-.01401855 1.72645752-.01401855 3.48779297-.02832031C790 471 790 471 791.87841797 472.08056641c1.73350264 2.96665167 1.47465967 5.54987956 1.44970703 8.95849609-.00187317.68146088-.00374634 1.36292175-.00567627 2.06503296-.00671267 1.43735665-.0206118 2.87469528-.04119873 4.31192016-.031234 2.20785361-.040979 4.41499397-.046875 6.62304688C793.16346428 504.83653572 793.16346428 504.83653572 792 506c-4.25748426.21809756-8.52045724.18579161-12.78295898.18530273-2.14221102.0021847-4.28390573.02033239-6.4260254.03930665-1.35611802.00293421-2.7122385.00491882-4.06835937.00585937-1.23999756.00410889-2.47999512.00821777-3.75756836.01245117C762 506 762 506 760 504c-.74188938-7.63265858.07083607-15.59760131.4375-23.25.03907471-.84618896.07814941-1.69237793.1184082-2.56420898.54472644-10.19148787 6.3644765-7.40064042 15.3190918-7.43579102z" fill="#febf01"/><path d="M719 421c4.21746325-.0989211 8.43431121-.17149012 12.65258789-.21972656 1.43468997-.02010869 2.86929804-.04740017 4.30371094-.08203125 2.06294956-.04855679 4.12481548-.07121625 6.18823242-.08886719 1.24112549-.02094727 2.48225098-.04189453 3.76098633-.06347656C749 421 749 421 750.90356445 422.68286133c1.31107286 2.77073982 1.48399656 4.71973163 1.49487305 7.78198242.00580078 1.57104492.00580078 1.57104492.01171875 3.17382813-.01160156 1.08861328-.02320313 2.17722656-.03515625 3.29882812.01160156 1.08474609.02320313 2.16949219.03515625 3.28710938a447397602.7307008 447397602.7307008 0 00-.01171875 3.17773437c-.00338379.95382568-.00676758 1.90765137-.01025391 2.89038086C751.92910489 449.49443766 750.88536832 451.39287564 749 454c-4.34850954 2.17425477-10.22357366 1.18496474-15 1.1875-1.21429687.01224609-2.42859375.02449219-3.6796875.03710938-1.73636719.00290039-1.73636719.00290039-3.5078125.00585937-1.06605469.00410889-2.13210938.00821777-3.23046875.01245117C721 455 721 455 719 453c-.17488254-2.43744897-.23177405-4.7593608-.1953125-7.1953125.0028299-.70744354.00565979-1.41488708.00857544-2.14376831.01120569-2.26214429.03631027-4.52389434.06173706-6.78591919.01002933-1.53254637.01915526-3.06509894.02734375-4.59765625C718.92440914 428.51807699 718.95894104 424.75910536 719 421z" fill="#febf02"/><path d="M458 558l10-.1875c1.53527344-.04096802 1.53527344-.04096802 3.1015625-.08276367C477.1227785 557.67555937 481.53269068 558.43117321 487 561c4.50381787 4.64910232 4.34075771 9.88782657 4.28125 16.046875-.3783836 3.97302777-1.54700047 6.0710782-4.28125 8.953125-3.713076 2.65423664-6.19514397 3.36585331-10.73828125 3.29296875-.96204346-.00749268-1.92408691-.01498535-2.9152832-.02270508-1.20744873-.02731201-2.41489746-.05462402-3.65893555-.08276367L458 589v-31z" fill="#fbfbfb"/><path d="M373 363h99v25h-35v110h-27V388h-37v-25zm2 2v22h36v110h25V387h34v-22h-95z" fill="#030303"/><path d="M217 539h81v19h-29v60h-1v-61h28v-16h-77v16h28v1h-30v-19z" fill="#040304"/><path d="M608 559h1v23h39v19h-39v-1h36v-15h-37v-26z" fill="#3d3c3d"/><path d="M157 387l14.0625-.1875c2.17541382-.04096802 2.17541382-.04096802 4.39477539-.08276367C187.41543179 386.6525012 187.41543179 386.6525012 193 390l2 2c-1.0058313-.23771118-1.0058313-.23771118-2.03198242-.48022461-3.50946646-.61459687-6.89428909-.73684272-10.45629883-.83618164-1.05479805-.03117165-1.05479805-.03117165-2.13090515-.06297302-2.23101177-.06502188-4.46213429-.12415849-6.6933136-.18312073-1.51889134-.04323036-3.03777177-.08684605-4.55664062-.13085938C165.42068442 390.19924616 161.71041723 390.09982233 158 390v26h-1v-29z" fill="#ebecec"/><path d="M669 612h22v8c-2-3-2-3-2-6h-20v-2z" fill="#2c2b2c"/><path d="M392 581l1 3h2l-1 13h-2v7l-2-1c.14058476-2.45873768.28722999-4.91685175.4375-7.375.03931641-.69867187.07863281-1.39734375.11914062-2.1171875.33007813-5.28125.33007813-5.28125 1.44335938-7.5078125.0396713-1.66619446.04384447-3.33391013 0-5z" fill="#2d2c2c"/><path d="M308 606c2 1 2 1 3.0703125 3.94140625.34804688 1.19496094.69609375 2.38992188 1.0546875 3.62109375.35320312 1.19753906.70640625 2.39507813 1.0703125 3.62890625.26554687.92683594.53109375 1.85367188.8046875 2.80859375-1.875-.25-1.875-.25-4-1-2.0313589-2.88734032-2.22700963-5.28167247-2.125-8.75.01804687-.79921875.03609375-1.5984375.0546875-2.421875.02320313-.60328125.04640625-1.2065625.0703125-1.828125z" fill="#ebecec"/><path d="M201 452h1c.18451025 9.41002278.18451025 9.41002278-1 14h-1l-1-10h2v-4z" fill="#eae9e9"/><path d="M746 609h1l.375 3.6875c.41391306 3.37729059 1.17073451 6.21006695 2.625 9.3125h-3c-1.32229189-2.64458379-1.09677194-4.67761301-1.0625-7.625.00902344-1.00289062.01804687-2.00578125.02734375-3.0390625.01160156-.77085937.02320313-1.54171875.03515625-2.3359375z" fill="#d9d8d9"/><path d="M410 567c1.5 1.375 1.5 1.375 3 3v2h2l-1 6c-2.45823172-3.68734758-3.01242616-6.69699971-4-11z" fill="#eaeaea"/><path d="M199 555h3l-1 11h-1l-1-11z" fill="#dbdadb"/><path d="M151 618h2l1 7-4-4 1-3z" fill="#e7e7e7"/><path d="M733 589c3 1.8125 3 1.8125 6 4v3l-2-1v-2l-4-2v-2z" fill="#272625"/><path d="M806 577h2c-1.0975223 2.99324263-1.67682892 3.84610901-4.625 5.25L801 583c1.61594832-2.04119788 3.2856382-4.04072937 5-6z" fill="#fdf4d5"/><path d="M229 463h2v5h-3l1-5z" fill="#e2e1e2"/><path d="M226 473h2v5h-3l1-5z" fill="#eceded"/><path d="M335 403h3l-2 4-2-2 1-2z" fill="#e7e7e8"/></svg>