<?xml version="1.0" encoding="UTF-8"?>
<svg version="1.1" xmlns="http://www.w3.org/2000/svg" width="399" height="173">
<path d="M0 0 C1.29351379 -0.00744736 1.29351379 -0.00744736 2.61315918 -0.01504517 C5.4652588 -0.02964501 8.31730274 -0.03646649 11.16943359 -0.04199219 C13.15758261 -0.04774706 15.14573162 -0.05350475 17.13388062 -0.05926514 C21.30507668 -0.06977006 25.47625351 -0.07561552 29.64746094 -0.07910156 C34.97347898 -0.08457392 40.29923978 -0.10857719 45.62517738 -0.13707352 C49.73461632 -0.15576881 53.84399428 -0.16090924 57.95347214 -0.16243744 C59.91572851 -0.16545082 61.87798415 -0.1734346 63.84019852 -0.18662262 C88.54060331 -0.34073342 88.54060331 -0.34073342 95.81787109 6.34863281 C96.42373047 6.8784375 97.02958984 7.40824219 97.65380859 7.95410156 C104.55975376 16.4734444 104.03270441 25.05035792 103.97412109 35.46972656 C103.9768199 37.16309329 103.98070556 38.85645849 103.98571777 40.54981995 C103.99159617 44.08943515 103.98310489 47.62864503 103.96435547 51.16821289 C103.94158415 55.68506678 103.95468759 60.20096883 103.97864532 64.71778774 C103.99316344 68.21217397 103.98846964 71.70633801 103.97813416 75.20073128 C103.97548253 76.8651548 103.97868104 78.52959908 103.98805237 80.19399834 C104.02666623 88.97935424 103.95921636 96.33096967 99.44287109 104.16113281 C98.78287109 104.16113281 98.12287109 104.16113281 97.44287109 104.16113281 C97.44287109 104.82113281 97.44287109 105.48113281 97.44287109 106.16113281 C95.79833984 107.41503906 95.79833984 107.41503906 93.63037109 108.72363281 C92.92267578 109.15804687 92.21498047 109.59246094 91.48583984 110.04003906 C88.14175407 111.87513011 85.476607 112.28000753 81.73193359 112.30175781 C80.81669922 112.32109375 79.90146484 112.34042969 78.95849609 112.36035156 C77.0394348 112.3940648 75.12003921 112.41242414 73.20068359 112.41503906 C67.32820472 112.54435126 67.32820472 112.54435126 62.42333984 115.62597656 C61.76978516 116.46257812 61.11623047 117.29917969 60.44287109 118.16113281 C58.13037109 119.47363281 58.13037109 119.47363281 56.44287109 120.16113281 C56.44287109 120.82113281 56.44287109 121.48113281 56.44287109 122.16113281 C55.78287109 122.16113281 55.12287109 122.16113281 54.44287109 122.16113281 C54.44287109 122.82113281 54.44287109 123.48113281 54.44287109 124.16113281 C53.78287109 124.16113281 53.12287109 124.16113281 52.44287109 124.16113281 C52.44287109 124.82113281 52.44287109 125.48113281 52.44287109 126.16113281 C51.78287109 126.16113281 51.12287109 126.16113281 50.44287109 126.16113281 C50.44287109 126.82113281 50.44287109 127.48113281 50.44287109 128.16113281 C49.78287109 128.16113281 49.12287109 128.16113281 48.44287109 128.16113281 C48.17474609 128.75925781 47.90662109 129.35738281 47.63037109 129.97363281 C46.44369703 132.15961135 45.34687997 133.57445875 43.44287109 135.16113281 C42.78287109 135.16113281 42.12287109 135.16113281 41.44287109 135.16113281 C41.21599609 135.73863281 40.98912109 136.31613281 40.75537109 136.91113281 C39.02259771 139.88160148 37.36753565 141.34134153 34.44287109 143.16113281 C30.63037109 143.41113281 30.63037109 143.41113281 27.44287109 143.16113281 C27.44287109 142.50113281 27.44287109 141.84113281 27.44287109 141.16113281 C26.78287109 141.16113281 26.12287109 141.16113281 25.44287109 141.16113281 C24.13395871 135.78569652 23.16557843 130.5238891 22.68896484 125.00878906 C22.53260009 123.06958187 22.53260009 123.06958187 21.44287109 121.16113281 C20.82798828 121.24492187 20.21310547 121.32871094 19.57958984 121.41503906 C18.36722656 121.56779297 18.36722656 121.56779297 17.13037109 121.72363281 C15.92960937 121.88025391 15.92960937 121.88025391 14.70458984 122.04003906 C12.44287109 122.16113281 12.44287109 122.16113281 9.44287109 121.16113281 C9.11287109 119.18113281 8.78287109 117.20113281 8.44287109 115.16113281 C5.80287109 114.83113281 3.16287109 114.50113281 0.44287109 114.16113281 C-0.54712891 115.81113281 -1.53712891 117.46113281 -2.55712891 119.16113281 C0.09571079 123.14039235 3.1881289 123.59673759 7.56787109 124.84863281 C8.69902344 125.18604492 8.69902344 125.18604492 9.85302734 125.53027344 C11.71342452 126.08368272 13.5777953 126.62370209 15.44287109 127.16113281 C15.44287109 127.82113281 15.44287109 128.48113281 15.44287109 129.16113281 C16.04099609 129.24363281 16.63912109 129.32613281 17.25537109 129.41113281 C20.0931252 130.38407708 20.93963176 131.60562594 22.44287109 134.16113281 C22.44287109 135.15113281 22.44287109 136.14113281 22.44287109 137.16113281 C23.10287109 137.16113281 23.76287109 137.16113281 24.44287109 137.16113281 C25.1770877 143.91592555 22.71879062 148.34637566 19.44287109 154.16113281 C18.78287109 154.16113281 18.12287109 154.16113281 17.44287109 154.16113281 C17.44287109 154.82113281 17.44287109 155.48113281 17.44287109 156.16113281 C11.39244396 159.74439548 2.79422874 159.9280456 -3.99462891 158.53613281 C-8.75369912 156.69929869 -11.80608052 154.46933296 -14.93212891 150.34863281 C-15.90843299 146.93156853 -15.67527709 143.70557838 -15.55712891 140.16113281 C-11.59712891 140.16113281 -7.63712891 140.16113281 -3.55712891 140.16113281 C-2.56712891 143.62613281 -2.56712891 143.62613281 -1.55712891 147.16113281 C-0.12057037 147.24244745 1.31731939 147.3004684 2.75537109 147.34863281 C3.55587891 147.3834375 4.35638672 147.41824219 5.18115234 147.45410156 C7.49942476 147.326828 7.49942476 147.326828 9.29833984 145.89941406 C10.63089251 144.22144487 10.63089251 144.22144487 10.44677734 142.10253906 C9.57385675 139.9585082 9.57385675 139.9585082 7.22021484 139.00097656 C6.28306641 138.70320312 5.34591797 138.40542969 4.38037109 138.09863281 C3.38779297 137.76734375 2.39521484 137.43605469 1.37255859 137.09472656 C0.40576172 136.78664062 -0.56103516 136.47855469 -1.55712891 136.16113281 C-7.4652915 134.22099361 -11.61690205 132.55652982 -14.80712891 126.97363281 C-16.33906006 121.22889098 -16.323 115.52000806 -13.55712891 110.16113281 C-12.89712891 110.16113281 -12.23712891 110.16113281 -11.55712891 110.16113281 C-11.55712891 109.50113281 -11.55712891 108.84113281 -11.55712891 108.16113281 C-10.33205993 107.50756003 -9.10183375 106.86365048 -7.86962891 106.22363281 C-6.84289062 105.68416016 -6.84289062 105.68416016 -5.79541016 105.13378906 C-1.15788219 103.11852822 2.48741556 103.07679591 7.44287109 103.91113281 C8.45349609 104.07097656 9.46412109 104.23082031 10.50537109 104.39550781 C15.16148436 105.60906925 17.76665096 107.14680262 20.44287109 111.16113281 C19.78287109 108.85113281 19.12287109 106.54113281 18.44287109 104.16113281 C14.93013904 103.08529148 11.65169021 103.02122767 7.98974609 102.98535156 C6.73033203 102.96150391 5.47091797 102.93765625 4.17333984 102.91308594 C1.53547971 102.8703728 -1.1025899 102.83898439 -3.74072266 102.81933594 C-11.11655103 102.65768425 -16.28261105 102.15038845 -22.55712891 98.16113281 C-22.55712891 97.50113281 -22.55712891 96.84113281 -22.55712891 96.16113281 C-23.21712891 96.16113281 -23.87712891 96.16113281 -24.55712891 96.16113281 C-29.26447198 89.83564056 -30.87405125 84.69654469 -31.19384766 76.89160156 C-31.23168869 76.0684697 -31.26952972 75.24533783 -31.30851746 74.39726257 C-31.70584213 64.48493973 -31.61275358 54.57559792 -31.42504883 44.65942383 C-31.36903102 41.43926348 -31.34098426 38.21953475 -31.31298828 34.99902344 C-31.27758835 32.92412378 -31.24054 30.84925143 -31.20166016 28.77441406 C-31.19729446 27.82536697 -31.19292877 26.87631989 -31.18843079 25.89851379 C-30.99152393 18.18345509 -28.90578889 12.65855252 -23.80712891 6.84863281 C-17.32440791 0.79370558 -8.45827134 0.01165181 0 0 Z M-16.55712891 16.16113281 C-20.55239922 22.30499565 -19.99191906 28.96780417 -19.95556641 36.10253906 C-19.95843658 37.34357895 -19.96130676 38.58461884 -19.96426392 39.86326599 C-19.96681993 43.14736923 -19.9548049 46.43104175 -19.93798828 49.71508789 C-19.93212922 51.72352675 -19.93797521 53.73157291 -19.94824219 55.73999023 C-19.96679233 59.61102451 -19.96452599 63.48148043 -19.95556641 67.35253906 C-19.9616391 68.54641739 -19.96771179 69.74029572 -19.97396851 70.97035217 C-19.91232089 78.25957571 -19.55871524 83.09469739 -14.26318359 88.50463867 C-11.00967702 90.496252 -9.05491839 90.65858555 -5.26025391 90.66503906 C-4.05369141 90.68373047 -2.84712891 90.70242187 -1.60400391 90.72167969 C-0.35103516 90.72232422 0.90193359 90.72296875 2.19287109 90.72363281 C10.58410103 90.75422584 17.61690548 90.96807109 25.44287109 94.16113281 C25.44287109 94.82113281 25.44287109 95.48113281 25.44287109 96.16113281 C26.10287109 96.16113281 26.76287109 96.16113281 27.44287109 96.16113281 C28.13061515 97.48371753 28.78998483 98.82099784 29.44287109 100.16113281 C29.93787109 101.08925781 30.43287109 102.01738281 30.94287109 102.97363281 C33.13167284 107.98917851 33.3571781 113.54392328 33.91552734 118.93066406 C34.13306463 122.24062567 34.13306463 122.24062567 36.44287109 124.16113281 C37.7148808 123.05832155 38.98542962 121.95382512 40.25537109 120.84863281 C40.96306641 120.23375 41.67076172 119.61886719 42.39990234 118.98535156 C45.01764972 116.6692446 45.01764972 116.6692446 47.44287109 114.16113281 C47.44287109 113.50113281 47.44287109 112.84113281 47.44287109 112.16113281 C48.10287109 112.16113281 48.76287109 112.16113281 49.44287109 112.16113281 C49.44287109 111.50113281 49.44287109 110.84113281 49.44287109 110.16113281 C50.10287109 110.16113281 50.76287109 110.16113281 51.44287109 110.16113281 C51.44287109 109.50113281 51.44287109 108.84113281 51.44287109 108.16113281 C52.10287109 108.16113281 52.76287109 108.16113281 53.44287109 108.16113281 C53.44287109 107.50113281 53.44287109 106.84113281 53.44287109 106.16113281 C54.10287109 106.16113281 54.76287109 106.16113281 55.44287109 106.16113281 C55.44287109 105.50113281 55.44287109 104.84113281 55.44287109 104.16113281 C56.10287109 104.16113281 56.76287109 104.16113281 57.44287109 104.16113281 C57.44287109 103.50113281 57.44287109 102.84113281 57.44287109 102.16113281 C60.46683727 101.27173099 63.07166916 101.07571135 66.21630859 101.16894531 C67.12380859 101.18570313 68.03130859 101.20246094 68.96630859 101.21972656 C70.85974069 101.26382019 72.75300561 101.31584012 74.64599609 101.37597656 C79.98079446 101.45909665 83.9400607 101.38140898 88.44287109 98.16113281 C91.5068372 94.09621952 91.82938129 91.01818493 91.86279297 85.98754883 C91.87126251 85.2844458 91.87973206 84.58134277 91.88845825 83.85693359 C91.91177408 81.54278255 91.9128518 79.22929846 91.91162109 76.91503906 C91.91872577 75.2998783 91.92642521 73.68472005 91.93469238 72.06956482 C91.94812455 68.68782532 91.94971162 65.30631923 91.94384766 61.92456055 C91.93795134 57.59889876 91.96854495 53.27435927 92.00896454 48.94891453 C92.0348607 45.6142121 92.03771729 42.27977928 92.03407288 38.94499016 C92.03576222 37.35062781 92.04538695 35.75625275 92.06321716 34.16198921 C92.08544826 31.92860703 92.07568785 29.69748824 92.05810547 27.46411133 C92.06015991 26.19567886 92.06221436 24.9272464 92.06433105 23.62037659 C91.25667844 19.12472528 89.78827598 17.24056681 86.44287109 14.16113281 C81.20282001 11.97960999 76.17351197 11.86424743 70.58935547 11.87060547 C69.73150955 11.86388824 68.87366364 11.85717102 67.98982239 11.85025024 C65.17202872 11.8313504 62.35447408 11.82735061 59.53662109 11.82519531 C57.56799219 11.81876358 55.59936423 11.81203494 53.6307373 11.80502319 C49.51194034 11.79307177 45.39322713 11.78934035 41.27441406 11.79052734 C36.00524856 11.79073081 30.7366207 11.76338997 25.4675827 11.72898293 C21.40457708 11.70671622 17.34170113 11.70268968 13.27864075 11.7037468 C11.33622885 11.70139199 9.39381332 11.69257528 7.45146179 11.67708206 C4.73272225 11.65741962 2.0151462 11.66326016 -0.70361328 11.67529297 C-1.49966476 11.66405396 -2.29571625 11.65281494 -3.1158905 11.64123535 C-8.69701075 11.70379815 -11.97023148 12.93964919 -16.55712891 16.16113281 Z " fill="#FBC417" transform="translate(286.55712890625,7.8388671875)"/>
<path d="M0 0 C0.33 0.66 0.66 1.32 1 2 C0.69628983 2.7485878 0.39257965 3.4971756 0.07966614 4.26844788 C-1.11358426 7.28736784 -1.25950243 9.46999673 -1.2746582 12.70483398 C-1.28419022 13.82627304 -1.29372223 14.9477121 -1.30354309 16.10313416 C-1.30263168 17.30531082 -1.30172028 18.50748749 -1.30078125 19.74609375 C-1.30720894 21.61189842 -1.30720894 21.61189842 -1.31376648 23.51539612 C-1.32097238 26.81586852 -1.31789045 30.11615816 -1.31219482 33.41662598 C-1.3124995 35.43419618 -1.32253734 37.45147278 -1.33618164 39.46899414 C-1.36068521 43.35316722 -1.36483674 47.23685299 -1.36328125 51.12109375 C-1.372491 52.32124619 -1.38170074 53.52139862 -1.39118958 54.75791931 C-1.3531671 61.62277502 -1.20997467 66.69772713 3.80004883 71.85180664 C6.71725661 73.37434889 8.91498235 73.3689186 12.19921875 73.37109375 C14.01389648 73.39719727 14.01389648 73.39719727 15.86523438 73.42382812 C18.3938694 73.43287281 20.92252102 73.4381409 23.45117188 73.43945312 C30.85770878 73.55327908 36.54222978 74.23162268 43 78 C43 78.66 43 79.32 43 80 C43.66 80 44.32 80 45 80 C46.25390625 81.64453125 46.25390625 81.64453125 47.5625 83.8125 C47.99691406 84.52019531 48.43132812 85.22789063 48.87890625 85.95703125 C51.09729791 89.9996056 51.49554337 94.18964407 52.0625 98.6875 C52.15337891 99.38939453 52.24425781 100.09128906 52.33789062 100.81445312 C52.56125994 102.54262623 52.78098496 104.27126967 53 106 C56.05279476 106.32082549 56.05279476 106.32082549 58.0078125 104.3203125 C59.05582031 103.23363281 59.05582031 103.23363281 60.125 102.125 C61.18074219 101.04605469 61.18074219 101.04605469 62.2578125 99.9453125 C64.05398716 98.11166753 64.05398716 98.11166753 65 96 C65.66 96 66.32 96 67 96 C67 95.34 67 94.68 67 94 C67.66 94 68.32 94 69 94 C69 93.34 69 92.68 69 92 C69.66 92 70.32 92 71 92 C71 91.34 71 90.68 71 90 C71.66 90 72.32 90 73 90 C73 89.34 73 88.68 73 88 C73.66 88 74.32 88 75 88 C75 87.34 75 86.68 75 86 C78.06156654 84.22330777 80.24036215 83.75949182 83.765625 83.8046875 C84.65507812 83.81113281 85.54453125 83.81757812 86.4609375 83.82421875 C87.84152344 83.84935547 87.84152344 83.84935547 89.25 83.875 C90.65378906 83.88853516 90.65378906 83.88853516 92.0859375 83.90234375 C94.39088657 83.92586364 96.6953116 83.95873147 99 84 C99.33 84.66 99.66 85.32 100 86 C98.26363281 86.05607422 98.26363281 86.05607422 96.4921875 86.11328125 C94.95309439 86.17897425 93.4140333 86.24542042 91.875 86.3125 C91.11445313 86.33505859 90.35390625 86.35761719 89.5703125 86.38085938 C84.69049587 86.61222999 81.29109862 87.44316328 77 90 C77.66 91.32 78.32 92.64 79 94 C82.52081558 94.02927632 86.04159939 94.04689119 89.5625 94.0625 C91.0484668 94.07506836 91.0484668 94.07506836 92.56445312 94.08789062 C97.82548699 94.10536914 102.81764665 93.92308398 108 93 C108.495 91.02 108.495 91.02 109 89 C110.485 89.495 110.485 89.495 112 90 C111.67 88.68 111.34 87.36 111 86 C112.98 86 114.96 86 117 86 C117 86.66 117 87.32 117 88 C116.34 88 115.68 88 115 88 C115 88.66 115 89.32 115 90 C113.35546875 91.25390625 113.35546875 91.25390625 111.1875 92.5625 C110.47980469 92.99691406 109.77210938 93.43132812 109.04296875 93.87890625 C105.69888298 95.7139973 103.0337359 96.11887472 99.2890625 96.140625 C98.37382812 96.15996094 97.45859375 96.17929688 96.515625 96.19921875 C94.59656371 96.23293199 92.67716812 96.25129132 90.7578125 96.25390625 C84.88533363 96.38321845 84.88533363 96.38321845 79.98046875 99.46484375 C79.32691406 100.30144531 78.67335938 101.13804688 78 102 C75.6875 103.3125 75.6875 103.3125 74 104 C74 104.66 74 105.32 74 106 C73.34 106 72.68 106 72 106 C72 106.66 72 107.32 72 108 C71.34 108 70.68 108 70 108 C70 108.66 70 109.32 70 110 C69.34 110 68.68 110 68 110 C68 110.66 68 111.32 68 112 C67.34 112 66.68 112 66 112 C65.5978125 112.8971875 65.5978125 112.8971875 65.1875 113.8125 C64.00082594 115.99847854 62.90400887 117.41332594 61 119 C60.34 119 59.68 119 59 119 C58.773125 119.5775 58.54625 120.155 58.3125 120.75 C56.57972661 123.72046866 54.92466456 125.18020872 52 127 C48.1875 127.25 48.1875 127.25 45 127 C45 126.34 45 125.68 45 125 C44.34 125 43.68 125 43 125 C41.69108762 119.6245637 40.72270733 114.36275628 40.24609375 108.84765625 C40.089729 106.90844906 40.089729 106.90844906 39 105 C38.38511719 105.08378906 37.77023437 105.16757813 37.13671875 105.25390625 C35.92435547 105.40666016 35.92435547 105.40666016 34.6875 105.5625 C33.48673828 105.71912109 33.48673828 105.71912109 32.26171875 105.87890625 C30 106 30 106 27 105 C26.67 103.02 26.34 101.04 26 99 C23.36 98.67 20.72 98.34 18 98 C17.01 99.65 16.02 101.3 15 103 C17.65283969 106.97925954 20.74525781 107.43560478 25.125 108.6875 C26.25615234 109.02491211 26.25615234 109.02491211 27.41015625 109.36914062 C29.27055343 109.92254991 31.13492421 110.46256928 33 111 C33 111.66 33 112.32 33 113 C33.598125 113.0825 34.19625 113.165 34.8125 113.25 C37.65025411 114.22294427 38.49676067 115.44449313 40 118 C40 118.99 40 119.98 40 121 C40.66 121 41.32 121 42 121 C42.7342166 127.75479274 40.27591952 132.18524285 37 138 C36.34 138 35.68 138 35 138 C35 138.66 35 139.32 35 140 C28.94957287 143.58326267 20.35135764 143.76691279 13.5625 142.375 C8.80342978 140.53816588 5.75104839 138.30820015 2.625 134.1875 C1.64869592 130.77043572 1.88185181 127.54444557 2 124 C5.96 124 9.92 124 14 124 C14.99 127.465 14.99 127.465 16 131 C17.43655854 131.08131463 18.8744483 131.13933559 20.3125 131.1875 C21.11300781 131.22230469 21.91351563 131.25710937 22.73828125 131.29296875 C25.05655367 131.16569519 25.05655367 131.16569519 26.85546875 129.73828125 C28.18802142 128.06031205 28.18802142 128.06031205 28.00390625 125.94140625 C27.13098566 123.79737539 27.13098566 123.79737539 24.77734375 122.83984375 C23.84019531 122.54207031 22.90304687 122.24429688 21.9375 121.9375 C20.94492187 121.60621094 19.95234375 121.27492188 18.9296875 120.93359375 C17.96289062 120.62550781 16.99609375 120.31742187 16 120 C10.09183741 118.0598608 5.94022686 116.39539701 2.75 110.8125 C1.21806884 105.06775816 1.2341289 99.35887525 4 94 C4.66 94 5.32 94 6 94 C6 93.34 6 92.68 6 92 C7.22506898 91.34642722 8.45529516 90.70251767 9.6875 90.0625 C10.71423828 89.52302734 10.71423828 89.52302734 11.76171875 88.97265625 C16.39924672 86.9573954 20.04454446 86.9156631 25 87.75 C26.010625 87.90984375 27.02125 88.0696875 28.0625 88.234375 C32.71861327 89.44793644 35.32377987 90.98566981 38 95 C37.34 92.69 36.68 90.38 36 88 C32.48726795 86.92415867 29.20881911 86.86009486 25.546875 86.82421875 C24.28746094 86.80037109 23.02804687 86.77652344 21.73046875 86.75195312 C19.09260862 86.70923998 16.454539 86.67785158 13.81640625 86.65820312 C6.44057788 86.49655143 1.27451785 85.98925564 -5 82 C-5 81.34 -5 80.68 -5 80 C-5.66 80 -6.32 80 -7 80 C-7.33 79.01 -7.66 78.02 -8 77 C-7.34 77 -6.68 77 -6 77 C-5.67 75.35 -5.34 73.7 -5 72 C-4.34 72 -3.68 72 -3 72 C-3 72.66 -3 73.32 -3 74 C-2.01 74 -1.02 74 0 74 C-0.495 71.525 -0.495 71.525 -1 69 C-1.66 69 -2.32 69 -3 69 C-4.15828865 65.52513404 -4.11975964 62.45106862 -4.08203125 58.83984375 C-4.07782669 58.10152817 -4.07362213 57.36321259 -4.06929016 56.6025238 C-4.05223976 54.06826411 -4.02639108 51.53417886 -4 49 C-3.99208435 48.06714172 -3.9841687 47.13428345 -3.97601318 46.17315674 C-3.9230603 40.03049434 -3.84181196 33.88882907 -3.73754883 27.74682617 C-3.70376216 25.59716982 -3.6759097 23.44741315 -3.65356445 21.29760742 C-3.62025368 18.15765353 -3.56807489 15.01852028 -3.51171875 11.87890625 C-3.50213387 10.43228355 -3.50213387 10.43228355 -3.49235535 8.95643616 C-3.47256119 8.07048264 -3.45276703 7.18452911 -3.43237305 6.27172852 C-3.41571846 5.10287865 -3.41571846 5.10287865 -3.39872742 3.91041565 C-3 2 -3 2 0 0 Z " fill="#FBC61F" transform="translate(269,24)"/>
<path d="M0 0 C1.2372583 -0.00326294 1.2372583 -0.00326294 2.49951172 -0.0065918 C3.82233154 0.00053833 3.82233154 0.00053833 5.171875 0.0078125 C6.0705127 0.01192139 6.96915039 0.01603027 7.89501953 0.02026367 C31.21893239 0.21369366 31.21893239 0.21369366 38.171875 6.0078125 C41.90824466 10.5448328 42.35284971 14.82472223 42.25 20.55859375 C41.61753211 25.52045496 39.43598204 29.61870546 35.921875 33.1328125 C36.89125 33.8959375 37.860625 34.6590625 38.859375 35.4453125 C41.34273832 37.40030065 41.8740422 37.98931409 42.921875 41.1328125 C43.06835582 43.40044824 43.1428376 45.67313616 43.171875 47.9453125 C43.19765625 49.14800781 43.2234375 50.35070312 43.25 51.58984375 C42.74961952 56.99276159 40.95603486 60.12163397 37.109375 63.8828125 C31.48868018 67.85036178 26.15657904 68.4836025 19.484375 68.7578125 C18.70392822 68.79503418 17.92348145 68.83225586 17.11938477 68.87060547 C9.74185592 69.19517187 2.30101584 69.4896984 -5.078125 69.1328125 C-8.19630699 66.01463051 -7.20217135 57.82263693 -7.21707153 53.68540955 C-7.21403519 52.29619041 -7.21403519 52.29619041 -7.2109375 50.87890625 C-7.21189423 49.90099625 -7.21285095 48.92308624 -7.21383667 47.9155426 C-7.21451498 45.85051407 -7.21268511 43.78548338 -7.20849609 41.72045898 C-7.20318347 38.60460445 -7.20843203 35.48889673 -7.21484375 32.37304688 C-7.22620499 7.67987892 -7.22620499 7.67987892 -6.078125 1.1328125 C-3.80009042 -0.00620479 -2.52944877 0.00386428 0 0 Z M8.921875 14.1328125 C8.921875 18.0928125 8.921875 22.0528125 8.921875 26.1328125 C11.35881774 26.38160247 13.79425889 26.60744654 16.234375 26.8203125 C16.92466797 26.89314453 17.61496094 26.96597656 18.32617188 27.04101562 C22.31623359 27.40810633 22.31623359 27.40810633 25.875 25.8359375 C27.53154144 23.14096709 27.362786 21.21918948 26.921875 18.1328125 C25.40885864 15.8162094 25.40885864 15.8162094 22.921875 14.1328125 C19.4183115 13.64957044 19.4183115 13.64957044 15.671875 13.8828125 C14.40859375 13.91890625 13.1453125 13.955 11.84375 13.9921875 C10.87953125 14.03859375 9.9153125 14.085 8.921875 14.1328125 Z M8.921875 40.1328125 C8.921875 44.7528125 8.921875 49.3728125 8.921875 54.1328125 C11.52551909 54.38149197 14.12777394 54.60739152 16.734375 54.8203125 C17.47236328 54.89314453 18.21035156 54.96597656 18.97070312 55.04101562 C23.14471383 55.43171194 23.14471383 55.43171194 26.87890625 53.83203125 C28.47629885 51.22953769 28.80019301 49.17486214 28.921875 46.1328125 C27.8026956 43.29421445 27.8026956 43.29421445 25.921875 41.1328125 C20.49552335 39.32402862 14.59072938 40.08080466 8.921875 40.1328125 Z " fill="#333333" transform="translate(14.078125,25.8671875)"/>
<path d="M0 0 C20.295 0.495 20.295 0.495 41 1 C41 5.62 41 10.24 41 15 C32.09 15 23.18 15 14 15 C14.33 18.63 14.66 22.26 15 26 C22.59 26 30.18 26 38 26 C39 34 39 34 38 41 C30.08 41 22.16 41 14 41 C14.33 45.29 14.66 49.58 15 54 C16.86527344 53.98839844 18.73054688 53.97679687 20.65234375 53.96484375 C23.08072817 53.95546775 25.50911367 53.94636735 27.9375 53.9375 C29.78504883 53.92493164 29.78504883 53.92493164 31.66992188 53.91210938 C32.83974609 53.90888672 34.00957031 53.90566406 35.21484375 53.90234375 C36.84087524 53.89448853 36.84087524 53.89448853 38.49975586 53.88647461 C41 54 41 54 42 55 C42.07258946 57.18639453 42.08373783 59.37500389 42.0625 61.5625 C42.05347656 62.76003906 42.04445312 63.95757812 42.03515625 65.19140625 C42.02355469 66.11824219 42.01195312 67.04507813 42 68 C33.68422981 69.07229347 25.43797061 69.15018939 17.0625 69.125 C15.74958984 69.12886719 14.43667969 69.13273437 13.08398438 69.13671875 C11.20356445 69.13478516 11.20356445 69.13478516 9.28515625 69.1328125 C7.58178101 69.13112061 7.58178101 69.13112061 5.84399414 69.12939453 C3 69 3 69 0 68 C-0.15370219 59.42930537 -0.30188376 50.85854089 -0.4429636 42.28763008 C-0.508643 38.30807382 -0.5762437 34.32856932 -0.64819336 30.34912109 C-0.71752256 26.51073555 -0.78185965 22.67229617 -0.84269524 18.83376694 C-0.86682253 17.36727724 -0.89276686 15.90081631 -0.92053413 14.43439102 C-0.95903632 12.38485463 -0.99115177 10.3353123 -1.02172852 8.28564453 C-1.04171402 7.11760284 -1.06169952 5.94956116 -1.08229065 4.74612427 C-1 2 -1 2 0 0 Z " fill="#2D2D2D" transform="translate(187,26)"/>
<path d="M0 0 C6.40514058 4.94942681 9.95549577 12.5015385 11 20.4375 C11.4302661 29.38450388 8.96904282 37.32035685 3 44 C0.1875 45.4375 0.1875 45.4375 -2 46 C-2 46.66 -2 47.32 -2 48 C-11.11958606 51.25976693 -19.56522445 52.62396326 -28.83203125 49.09765625 C-35.27074976 45.83769246 -39.75119669 41.1991306 -42.3125 34.44140625 C-45.15087798 24.36193901 -43.99232399 14.98464799 -39.3125 5.625 C-29.66089647 -5.33087428 -12.56602175 -8.47996568 0 0 Z M-27 11 C-30.32167281 16.03977943 -31.65776518 21.43514764 -30.5625 27.37109375 C-29.12398769 32.34867328 -27.55397727 35.19755245 -23 38 C-19.49741684 39.75129158 -15.82180718 39.55578568 -12 39 C-8.27116816 37.31081114 -5.71604682 35.39377674 -3.83203125 31.7265625 C-1.90037682 25.39654001 -1.89708536 18.36922405 -4.6875 12.375 C-8.42288766 8.53865592 -11.06314586 6.84203855 -16.4375 6.5625 C-20.96294163 6.73568662 -23.58642134 7.91152407 -27 11 Z " fill="#2E2E2E" transform="translate(138,116)"/>
<path d="M0 0 C2.73770612 3.10590087 4.21093076 6.64844469 5.86328125 10.41796875 C7.96827406 15.11711461 10.01874442 19.69224448 12.80078125 24.04296875 C16.39024383 18.98182651 19.45966747 14.06264216 21.74609375 8.28125 C23.22705984 5.13831086 24.49869152 2.68624767 26.80078125 0.04296875 C29.84823944 -0.4159858 32.05057775 -0.53875905 35.05078125 -0.33203125 C35.79585937 -0.30496094 36.5409375 -0.27789063 37.30859375 -0.25 C39.14057118 -0.17953933 40.97105276 -0.07192118 42.80078125 0.04296875 C38.13462751 9.6041339 33.25415186 18.98804314 27.9765625 28.2265625 C27.62964355 28.84837402 27.28272461 29.47018555 26.92529297 30.11083984 C26.1460612 31.44971093 25.31512146 32.75929507 24.44580078 34.04150391 C20.17684356 40.69107919 20.05940516 46.78145279 20.05078125 54.54296875 C20.01780569 56.88677034 19.98153793 59.23052877 19.94140625 61.57421875 C19.93657227 62.60095703 19.93173828 63.62769531 19.92675781 64.68554688 C19.80078125 67.04296875 19.80078125 67.04296875 18.80078125 68.04296875 C16.78113926 68.11540928 14.75911001 68.12674063 12.73828125 68.10546875 C11.63355469 68.09644531 10.52882813 68.08742188 9.390625 68.078125 C8.53597656 68.06652344 7.68132812 68.05492188 6.80078125 68.04296875 C4.86709775 64.81375947 4.63592714 62.68998617 4.921875 58.96484375 C5.64529547 45.55643112 4.81978802 36.66847576 -3.05810547 25.65185547 C-4.63846631 23.42366164 -6.00792825 21.08728131 -7.38671875 18.73046875 C-7.84691406 17.96992187 -8.30710937 17.209375 -8.78125 16.42578125 C-10.41902595 13.67359577 -12.0092774 10.8997463 -13.57421875 8.10546875 C-14.07695313 7.20957031 -14.5796875 6.31367187 -15.09765625 5.390625 C-16.19921875 3.04296875 -16.19921875 3.04296875 -16.19921875 0.04296875 C-13.95137451 -0.20645782 -11.70074369 -0.43086613 -9.44921875 -0.64453125 C-8.19625 -0.77214844 -6.94328125 -0.89976563 -5.65234375 -1.03125 C-2.19921875 -0.95703125 -2.19921875 -0.95703125 0 0 Z " fill="#303030" transform="translate(78.19921875,26.95703125)"/>
<path d="M0 0 C6.7134375 -0.0928125 6.7134375 -0.0928125 13.5625 -0.1875 C14.96056885 -0.21481201 16.3586377 -0.24212402 17.79907227 -0.27026367 C29.61195074 -0.34932792 29.61195074 -0.34932792 35 3 C38.94232209 7.447748 40.30450169 13.04388485 40.21875 18.875 C39.75076552 23.42113499 37.90448288 26.92592658 35 30.375 C33 32 33 32 30 33 C31.29097692 35.10459261 32.58275359 37.20868708 33.875 39.3125 C34.23980469 39.90740234 34.60460937 40.50230469 34.98046875 41.11523438 C36.61411539 43.77362299 38.26895824 46.40343737 40 49 C40 50.32 40 51.64 40 53 C35.71 53 31.42 53 27 53 C23 46.375 23 46.375 23 43 C22.34 43 21.68 43 21 43 C20.76925781 42.43410156 20.53851563 41.86820313 20.30078125 41.28515625 C19.81158203 40.18494141 19.81158203 40.18494141 19.3125 39.0625 C18.99925781 38.33160156 18.68601563 37.60070312 18.36328125 36.84765625 C16.87069636 34.39121376 16.87069636 34.39121376 12 34 C12 40.27 12 46.54 12 53 C8.04 53 4.08 53 0 53 C0 35.51 0 18.02 0 0 Z M12 11 C12 15.29 12 19.58 12 24 C14.6296875 24.061875 14.6296875 24.061875 17.3125 24.125 C18.79169922 24.15980469 18.79169922 24.15980469 20.30078125 24.1953125 C23.22406527 24.20682639 23.22406527 24.20682639 26 22 C26.80184346 18.66926563 27.18564255 16.00777384 26.5625 12.625 C24.40142382 10.37748077 22.18256795 10.2895089 19.16796875 9.98046875 C16.50452365 9.93679072 16.50452365 9.93679072 12 11 Z " fill="#2D2C2C" transform="translate(157,113)"/>
<path d="M0 0 C1.3126609 0.03541649 1.3126609 0.03541649 2.65184021 0.07154846 C5.41262494 0.14735662 8.17306824 0.23173051 10.93359375 0.31640625 C12.81964545 0.36971018 14.70571318 0.4224498 16.59179688 0.47460938 C21.18510687 0.60285769 25.77813133 0.73878197 30.37109375 0.87890625 C30.37109375 5.16890625 30.37109375 9.45890625 30.37109375 13.87890625 C24.76109375 13.87890625 19.15109375 13.87890625 13.37109375 13.87890625 C13.37109375 32.02890625 13.37109375 50.17890625 13.37109375 68.87890625 C0.37109375 68.87890625 0.37109375 68.87890625 -1.62890625 67.87890625 C-1.62890625 50.05890625 -1.62890625 32.23890625 -1.62890625 13.87890625 C-7.23890625 13.87890625 -12.84890625 13.87890625 -18.62890625 13.87890625 C-18.62890625 9.58890625 -18.62890625 5.29890625 -18.62890625 0.87890625 C-12.33986274 0.06003474 -6.33248346 -0.20663752 0 0 Z " fill="#2B2B2B" transform="translate(145.62890625,26.12109375)"/>
<path d="M0 0 C4.16876564 3.87792152 5.52373044 7.87968701 5.875 13.5 C5.7821875 14.49 5.7821875 14.49 5.6875 15.5 C1.60306885 17.03166168 -2.10705657 16.13081652 -6.3125 15.5 C-6.745625 14.324375 -6.745625 14.324375 -7.1875 13.125 C-8.16162254 10.40328368 -8.16162254 10.40328368 -10.3125 8.5 C-13.4038386 8.26220472 -15.34354944 8.51034981 -18.3125 9.5 C-18.73030879 11.87305578 -18.73030879 11.87305578 -18.3125 14.5 C-14.88185359 16.97803497 -11.47854888 18.16316272 -7.4375 19.3125 C-1.01103096 21.38606513 3.58398523 24.02462777 7.125 29.875 C8.48709038 36.23142179 8.17967439 41.06750259 5.015625 46.73828125 C1.93396819 50.82600837 -1.93312107 52.2044188 -6.8125 53.25 C-7.9675 53.3325 -9.1225 53.415 -10.3125 53.5 C-11.42625 53.5825 -12.54 53.665 -13.6875 53.75 C-18.23439159 53.43642127 -22.07701135 52.11351948 -26.3125 50.5 C-26.3125 49.84 -26.3125 49.18 -26.3125 48.5 C-26.9725 48.5 -27.6325 48.5 -28.3125 48.5 C-31.75669134 39.08997722 -31.75669134 39.08997722 -31.3125 34.5 C-23.37839674 32.94429348 -23.37839674 32.94429348 -19.3125 35.5 C-18.125 38.0625 -18.125 38.0625 -17.3125 40.5 C-14.51379973 41.89935013 -12.40751208 41.75265405 -9.3125 41.5 C-7.35209519 40.37359395 -7.35209519 40.37359395 -6.3125 38.5 C-6.3125 37.18 -6.3125 35.86 -6.3125 34.5 C-6.99054687 34.26925781 -7.66859375 34.03851563 -8.3671875 33.80078125 C-28.20909783 26.84786807 -28.20909783 26.84786807 -31.3125 20.5 C-32.22628989 14.18947455 -31.50333565 9.00144077 -28.3125 3.5 C-21.71581603 -2.76684977 -8.34375751 -4.09078392 0 0 Z " fill="#2F2E2E" transform="translate(38.3125,113.5)"/>
<path d="M0 0 C1.11246094 0.15984375 2.22492188 0.3196875 3.37109375 0.484375 C6.66117772 1.27367299 8.84535562 2.25123732 11.5625 4.25 C13.46144495 8.31916774 13.77462166 11.7954452 13.5625 16.25 C10.2625 16.25 6.9625 16.25 3.5625 16.25 C3.2325 14.93 2.9025 13.61 2.5625 12.25 C0.3732347 10.68623907 -1.35041808 10.26486764 -4 9.8125 C-6.70178984 10.00676012 -6.70178984 10.00676012 -8.25 12.75 C-8.641875 13.575 -9.03375 14.4 -9.4375 15.25 C-6.78466031 19.22925954 -3.69224219 19.68560478 0.6875 20.9375 C1.44160156 21.16244141 2.19570313 21.38738281 2.97265625 21.61914062 C4.83305343 22.17254991 6.69742421 22.71256928 8.5625 23.25 C8.5625 23.91 8.5625 24.57 8.5625 25.25 C9.160625 25.3325 9.75875 25.415 10.375 25.5 C13.21275411 26.47294427 14.05926067 27.69449313 15.5625 30.25 C15.5625 31.24 15.5625 32.23 15.5625 33.25 C16.2225 33.25 16.8825 33.25 17.5625 33.25 C18.2967166 40.00479274 15.83841952 44.43524285 12.5625 50.25 C11.9025 50.25 11.2425 50.25 10.5625 50.25 C10.5625 50.91 10.5625 51.57 10.5625 52.25 C4.51207287 55.83326267 -4.08614236 56.01691279 -10.875 54.625 C-15.63407022 52.78816588 -18.68645161 50.55820015 -21.8125 46.4375 C-22.78880408 43.02043572 -22.55564819 39.79444557 -22.4375 36.25 C-18.4775 36.25 -14.5175 36.25 -10.4375 36.25 C-9.7775 38.56 -9.1175 40.87 -8.4375 43.25 C-7.00094146 43.33131463 -5.5630517 43.38933559 -4.125 43.4375 C-3.32449219 43.47230469 -2.52398437 43.50710937 -1.69921875 43.54296875 C0.61905367 43.41569519 0.61905367 43.41569519 2.41796875 41.98828125 C3.75052142 40.31031205 3.75052142 40.31031205 3.56640625 38.19140625 C2.69348566 36.04737539 2.69348566 36.04737539 0.33984375 35.08984375 C-0.59730469 34.79207031 -1.53445313 34.49429688 -2.5 34.1875 C-3.49257813 33.85621094 -4.48515625 33.52492187 -5.5078125 33.18359375 C-6.47460938 32.87550781 -7.44140625 32.56742188 -8.4375 32.25 C-14.34566259 30.3098608 -18.49727314 28.64539701 -21.6875 23.0625 C-23.21943116 17.31775816 -23.2033711 11.60887525 -20.4375 6.25 C-19.7775 6.25 -19.1175 6.25 -18.4375 6.25 C-18.4375 5.59 -18.4375 4.93 -18.4375 4.25 C-17.19014433 3.5990741 -15.93948168 2.95448331 -14.6875 2.3125 C-13.99140625 1.95285156 -13.2953125 1.59320313 -12.578125 1.22265625 C-8.05527754 -0.8324332 -4.9374191 -0.75345586 0 0 Z " fill="#303030" transform="translate(293.4375,111.75)"/>
<path d="M0 0 C4.53897705 -0.02465392 9.07791543 -0.04283789 13.61694336 -0.05493164 C15.16219766 -0.0599714 16.70744716 -0.0668032 18.25268555 -0.07543945 C20.46925029 -0.08752076 22.68575218 -0.09323173 24.90234375 -0.09765625 C25.5971434 -0.10281754 26.29194305 -0.10797882 27.00779724 -0.11329651 C28.6722933 -0.11349277 30.33665499 -0.06189129 32 0 C34.60341656 2.60341656 33 7.31821299 33 11 C26.07 11 19.14 11 12 11 C12 14.3 12 17.6 12 21 C18.27 21 24.54 21 31 21 C31 24.96 31 28.92 31 33 C26.64220019 33.87155996 23.09253894 34.10366859 18.6875 34.0625 C17.43324219 34.05347656 16.17898437 34.04445312 14.88671875 34.03515625 C13.93410156 34.02355469 12.98148438 34.01195312 12 34 C12 36.97 12 39.94 12 43 C19.26 43 26.52 43 34 43 C34 46.63 34 50.26 34 54 C22.78 54 11.56 54 0 54 C-0.90530671 35.89386574 -0.90327361 18.10234057 0 0 Z " fill="#333232" transform="translate(231,112)"/>
<path d="M0 0 C13.2 0 26.4 0 40 0 C40 3.3 40 6.6 40 10 C39 11 39 11 36.05859375 11.09765625 C34.26615234 11.08025391 34.26615234 11.08025391 32.4375 11.0625 C30.64119141 11.04896484 30.64119141 11.04896484 28.80859375 11.03515625 C27.88175781 11.02355469 26.95492187 11.01195313 26 11 C26.03029297 11.7748877 26.06058594 12.54977539 26.09179688 13.34814453 C26.23063556 16.94032857 26.36533264 20.53265725 26.5 24.125 C26.54769531 25.34316406 26.59539062 26.56132812 26.64453125 27.81640625 C26.95580801 36.22087865 27.04329459 44.59002678 27 53 C22.71 53 18.42 53 14 53 C14 39.14 14 25.28 14 11 C9.38 11 4.76 11 0 11 C-1 5 -1 5 0 0 Z " fill="#313031" transform="translate(51,113)"/>
<path d="M0 0 C0.33 0.66 0.66 1.32 1 2 C0.69628983 2.7485878 0.39257965 3.4971756 0.07966614 4.26844788 C-1.11358426 7.28736784 -1.25950243 9.46999673 -1.2746582 12.70483398 C-1.28419022 13.82627304 -1.29372223 14.9477121 -1.30354309 16.10313416 C-1.30263168 17.30531082 -1.30172028 18.50748749 -1.30078125 19.74609375 C-1.30720894 21.61189842 -1.30720894 21.61189842 -1.31376648 23.51539612 C-1.32097238 26.81586852 -1.31789045 30.11615816 -1.31219482 33.41662598 C-1.3124995 35.43419618 -1.32253734 37.45147278 -1.33618164 39.46899414 C-1.36068521 43.35316722 -1.36483674 47.23685299 -1.36328125 51.12109375 C-1.372491 52.32124619 -1.38170074 53.52139862 -1.39118958 54.75791931 C-1.35318562 61.61943004 -1.20896169 66.6904439 3.79125977 71.84741211 C6.73997084 73.38613931 9.02038824 73.40153936 12.33984375 73.44140625 C13.56767578 73.46783203 14.79550781 73.49425781 16.06054688 73.52148438 C17.97963867 73.54178711 17.97963867 73.54178711 19.9375 73.5625 C22.46757732 73.59701849 24.99755994 73.63966972 27.52734375 73.69140625 C28.64874756 73.70373291 29.77015137 73.71605957 30.92553711 73.72875977 C33.99930023 73.99993826 36.22015303 74.69898109 39 76 C39 76.33 39 76.66 39 77 C36.69 77 34.38 77 32 77 C32.72403071 79.9788611 32.72403071 79.9788611 34.5625 81.4375 C36 83 36 83 36 87 C37.32 87.66 38.64 88.32 40 89 C39.505 90.485 39.505 90.485 39 92 C39.99 92.495 39.99 92.495 41 93 C41 97.62 41 102.24 41 107 C40.01 106.01 40.01 106.01 39 105 C36.87905181 105.01602698 36.87905181 105.01602698 34.5625 105.4375 C31.39414925 105.93337038 30.12878862 106.04292954 27 105 C26.67 103.02 26.34 101.04 26 99 C26.99 99.495 26.99 99.495 28 100 C28 101.32 28 102.64 28 104 C31.3 104 34.6 104 38 104 C37.01 99.05 37.01 99.05 36 94 C36.99 94.495 36.99 94.495 38 95 C37.34 92.69 36.68 90.38 36 88 C32.48726795 86.92415867 29.20881911 86.86009486 25.546875 86.82421875 C24.28746094 86.80037109 23.02804687 86.77652344 21.73046875 86.75195312 C19.09260862 86.70923998 16.454539 86.67785158 13.81640625 86.65820312 C6.44057788 86.49655143 1.27451785 85.98925564 -5 82 C-5 81.34 -5 80.68 -5 80 C-5.66 80 -6.32 80 -7 80 C-7.33 79.01 -7.66 78.02 -8 77 C-7.34 77 -6.68 77 -6 77 C-5.67 75.35 -5.34 73.7 -5 72 C-4.34 72 -3.68 72 -3 72 C-3 72.66 -3 73.32 -3 74 C-2.01 74 -1.02 74 0 74 C-0.495 71.525 -0.495 71.525 -1 69 C-1.66 69 -2.32 69 -3 69 C-4.15828865 65.52513404 -4.11975964 62.45106862 -4.08203125 58.83984375 C-4.07782669 58.10152817 -4.07362213 57.36321259 -4.06929016 56.6025238 C-4.05223976 54.06826411 -4.02639108 51.53417886 -4 49 C-3.99208435 48.06714172 -3.9841687 47.13428345 -3.97601318 46.17315674 C-3.9230603 40.03049434 -3.84181196 33.88882907 -3.73754883 27.74682617 C-3.70376216 25.59716982 -3.6759097 23.44741315 -3.65356445 21.29760742 C-3.62025368 18.15765353 -3.56807489 15.01852028 -3.51171875 11.87890625 C-3.50213387 10.43228355 -3.50213387 10.43228355 -3.49235535 8.95643616 C-3.47256119 8.07048264 -3.45276703 7.18452911 -3.43237305 6.27172852 C-3.41571846 5.10287865 -3.41571846 5.10287865 -3.39872742 3.91041565 C-3 2 -3 2 0 0 Z " fill="#FBCA35" transform="translate(269,24)"/>
<path d="M0 0 C3.63 0 7.26 0 11 0 C11 17.82 11 35.64 11 54 C7.04 54 3.08 54 -1 54 C-1.02464032 46.47029868 -1.04283141 38.94062061 -1.05493164 31.41088867 C-1.0599737 28.84708243 -1.06680714 26.28327909 -1.07543945 23.71948242 C-1.08751064 20.04344979 -1.09322942 16.36745502 -1.09765625 12.69140625 C-1.10281754 11.53725723 -1.10797882 10.38310822 -1.11329651 9.19398499 C-1.11337204 8.13296066 -1.11344757 7.07193634 -1.11352539 5.97875977 C-1.115746 5.03944107 -1.11796661 4.10012238 -1.12025452 3.13233948 C-1 1 -1 1 0 0 Z " fill="#313131" transform="translate(208,112)"/>
<path d="M0 0 C1.11246094 0.15984375 2.22492188 0.3196875 3.37109375 0.484375 C6.66117772 1.27367299 8.84535562 2.25123732 11.5625 4.25 C13.46144495 8.31916774 13.77462166 11.7954452 13.5625 16.25 C10.2625 16.25 6.9625 16.25 3.5625 16.25 C3.2325 14.93 2.9025 13.61 2.5625 12.25 C0.3732347 10.68623907 -1.35041808 10.26486764 -4 9.8125 C-6.70178984 10.00676012 -6.70178984 10.00676012 -8.25 12.75 C-8.641875 13.575 -9.03375 14.4 -9.4375 15.25 C-6.97448721 18.94451918 -5.47702997 19.1526982 -1.3125 20.4375 C-0.21679688 20.78167969 0.87890625 21.12585938 2.0078125 21.48046875 C2.85085938 21.73441406 3.69390625 21.98835938 4.5625 22.25 C4.5625 22.58 4.5625 22.91 4.5625 23.25 C2.93798581 23.58569297 1.31287083 23.9184796 -0.3125 24.25 C-1.21742188 24.435625 -2.12234375 24.62125 -3.0546875 24.8125 C-5.4375 25.25 -5.4375 25.25 -7.4375 25.25 C-8.4275 27.725 -8.4275 27.725 -9.4375 30.25 C-15.75860092 29.76376147 -15.75860092 29.76376147 -18.75 27.5 C-22.61285011 22.34953318 -23.02764832 17.52600041 -22.4375 11.25 C-21.4375 8.1875 -21.4375 8.1875 -20.4375 6.25 C-19.7775 6.25 -19.1175 6.25 -18.4375 6.25 C-18.4375 5.59 -18.4375 4.93 -18.4375 4.25 C-17.19014433 3.5990741 -15.93948168 2.95448331 -14.6875 2.3125 C-13.99140625 1.95285156 -13.2953125 1.59320313 -12.578125 1.22265625 C-8.05527754 -0.8324332 -4.9374191 -0.75345586 0 0 Z " fill="#3E3D3D" transform="translate(293.4375,111.75)"/>
<path d="M0 0 C3.4375 1.3125 3.4375 1.3125 7 3 C9.14985834 9.44957502 8.28078508 14.31923026 5.36328125 20.23828125 C3.42274328 22.74596786 1.94143875 23.73053696 -1 25 C-4.28164646 25.35020364 -7.51718962 25.28333677 -10.8125 25.1875 C-12.13797852 25.16719727 -12.13797852 25.16719727 -13.49023438 25.14648438 C-15.66042023 25.11129217 -17.83029033 25.05748985 -20 25 C-20.54372951 21.94152152 -21 19.11227195 -21 16 C-20.01 15.67 -19.02 15.34 -18 15 C-17.34 15.33 -16.68 15.66 -16 16 C-10.11834264 16.46588282 -10.11834264 16.46588282 -5 14 C-5.03243274 11.98917033 -5.06889378 9.97794306 -5.15625 7.96875 C-5 6 -5 6 -3.0625 3.625 C-2.381875 3.08875 -1.70125 2.5525 -1 2 C-0.67 1.34 -0.34 0.68 0 0 Z " fill="#1E1E1E" transform="translate(38,140)"/>
<path d="M0 0 C0.33 0 0.66 0 1 0 C1.33 4.95 1.66 9.9 2 15 C3.98 15.66 5.96 16.32 8 17 C8.99 17.33 9.98 17.66 11 18 C10.38075115 22.02511753 8.48361793 24.82648821 6 28 C3.25 29.375 3.25 29.375 1 30 C1 30.66 1 31.32 1 32 C-7.8346607 35.15792127 -16.07004957 36.75997913 -25 33 C-22.3333581 31.66667905 -20.83319697 32.32897967 -18 33 C-16.92474806 30.34771188 -15.90543849 27.71631546 -15 25 C-17.475 24.01 -17.475 24.01 -20 23 C-17.61343903 21.80671951 -16.3881983 22.02149092 -13.75 22.1875 C-9.07429857 22.23267586 -6.54499222 21.19913932 -3 18 C-1.13473426 14.30727795 -0.79748468 11.41774905 -0.9375 7.3125 C-1.09681529 2.19363057 -1.09681529 2.19363057 0 0 Z " fill="#444444" transform="translate(135,132)"/>
<path d="M0 0 C0.70189453 0.01353516 1.40378906 0.02707031 2.12695312 0.04101562 C3.85579829 0.07629818 5.58424765 0.13010417 7.3125 0.1875 C8.91198768 3.38647536 8.17946809 6.76868406 7.9375 10.25 C7.89367187 10.99572266 7.84984375 11.74144531 7.8046875 12.50976562 C7.4418504 18.0581496 7.4418504 18.0581496 6.3125 19.1875 C3.6351862 19.28731214 0.98945825 19.32629875 -1.6875 19.3125 C-2.81285156 19.31830078 -2.81285156 19.31830078 -3.9609375 19.32421875 C-9.56088947 19.31411053 -9.56088947 19.31411053 -10.6875 18.1875 C-10.84099136 15.71392763 -10.91909885 13.28745481 -10.9375 10.8125 C-10.958125 10.12671875 -10.97875 9.4409375 -11 8.734375 C-11.02167593 5.94901753 -10.96522289 3.71464948 -9.65234375 1.22265625 C-6.55099553 -0.41125484 -3.40990294 -0.12417014 0 0 Z " fill="#FDC003" transform="translate(346.6875,64.8125)"/>
<path d="M0 0 C1.89105469 -0.00386719 1.89105469 -0.00386719 3.8203125 -0.0078125 C6.875 0.125 6.875 0.125 7.875 1.125 C8.1397362 3.58998814 8.34377097 6.02790535 8.5 8.5 C8.57734375 9.52867188 8.57734375 9.52867188 8.65625 10.578125 C8.86771869 13.77503406 8.8985314 16.05440579 7.875 19.125 C1.935 19.125 -4.005 19.125 -10.125 19.125 C-10.125 13.185 -10.125 7.245 -10.125 1.125 C-6.59115441 -0.05294853 -3.72222447 -0.00764317 0 0 Z " fill="#FACA38" transform="translate(326.125,33.875)"/>
<path d="M0 0 C6.3844245 0.96733705 11.72908169 3.04573476 16 8 C15.67 8.66 15.34 9.32 15 10 C13.68 9.34 12.36 8.68 11 8 C10.54625 8.61875 10.0925 9.2375 9.625 9.875 C8 12 8 12 6 14 C6.04125 15.134375 6.0825 16.26875 6.125 17.4375 C6 21 6 21 4.5 22.9375 C0.02826081 24.83798916 -4.39323481 24.5355884 -9 23 C-9.66 23.33 -10.32 23.66 -11 24 C-10.34 24.66 -9.68 25.32 -9 26 C-9.66 26 -10.32 26 -11 26 C-11 26.66 -11 27.32 -11 28 C-10.34 28.33 -9.68 28.66 -9 29 C-9.33 29.99 -9.66 30.98 -10 32 C-4.39 32 1.22 32 7 32 C1.43538191 34.78230905 -3.61777376 34.86174542 -9.65234375 33.32421875 C-11.79806764 32.60897745 -13.90452411 31.85033804 -16 31 C-16 30.34 -16 29.68 -16 29 C-16.66 29 -17.32 29 -18 29 C-21.44419134 19.58997722 -21.44419134 19.58997722 -21 15 C-13.06589674 13.44429348 -13.06589674 13.44429348 -9 16 C-7.8125 18.5625 -7.8125 18.5625 -7 21 C-4.20129973 22.39935013 -2.09501208 22.25265405 1 22 C2.96040481 20.87359395 2.96040481 20.87359395 4 19 C4 17.68 4 16.36 4 15 C0.37 13.68 -3.26 12.36 -7 11 C-3 10 -3 10 -0.875 9.75 C1.27216638 9.13474555 1.27216638 9.13474555 2.1875 6.5625 C2.455625 5.716875 2.72375 4.87125 3 4 C3.33 3.34 3.66 2.68 4 2 C2.68 1.67 1.36 1.34 0 1 C0 0.67 0 0.34 0 0 Z " fill="#626262" transform="translate(28,133)"/>
<path d="M0 0 C0 0.66 0 1.32 0 2 C0.598125 2.0825 1.19625 2.165 1.8125 2.25 C4.65025411 3.22294427 5.49676067 4.44449313 7 7 C7 7.99 7 8.98 7 10 C7.66 10 8.32 10 9 10 C9.28571429 17.42857143 9.28571429 17.42857143 7 21 C6.67 20.34 6.34 19.68 6 19 C5.34 18.67 4.68 18.34 4 18 C4.33 17.01 4.66 16.02 5 15 C4.34 15 3.68 15 3 15 C2.67 15.66 2.34 16.32 2 17 C0.68 16.01 -0.64 15.02 -2 14 C-2 15.32 -2 16.64 -2 18 C-2.66 18 -3.32 18 -4 18 C-4 18.99 -4 19.98 -4 21 C-4.99 21 -5.98 21 -7 21 C-7 21.66 -7 22.32 -7 23 C-9.875 23.125 -9.875 23.125 -13 23 C-13.66 22.34 -14.32 21.68 -15 21 C-12.03 20.34 -9.06 19.68 -6 19 C-5.67 17.68 -5.34 16.36 -5 15 C-7.21174416 11.49666478 -10.81540276 10.98070457 -14.625 9.9375 C-16.76656577 9.34892398 -18.89738358 8.71535297 -21 8 C-21.33 7.34 -21.66 6.68 -22 6 C-20.68 6 -19.36 6 -18 6 C-17.814375 5.38125 -17.62875 4.7625 -17.4375 4.125 C-15.68285568 1.53117796 -14.08044585 1.02488571 -11.0859375 0.3046875 C-7.39326456 -0.23469169 -3.72057183 -0.15186007 0 0 Z " fill="#3C3B3C" transform="translate(302,135)"/>
<path d="M0 0 C5.28 0 10.56 0 16 0 C17.75185776 5.25557328 18.21992221 7.16147544 17.6875 12.3125 C17.58824219 13.36050781 17.48898437 14.40851563 17.38671875 15.48828125 C17 18 17 18 16 19 C13.3013095 19.07325436 10.63497444 19.09222351 7.9375 19.0625 C5.318125 19.041875 2.69875 19.02125 0 19 C0 12.73 0 6.46 0 0 Z " fill="#FCC006" transform="translate(316,79)"/>
<path d="M0 0 C5.61 0 11.22 0 17 0 C18.41514574 2.83029148 18.20780992 5.28379133 18.25 8.4375 C18.27578125 9.59121094 18.3015625 10.74492188 18.328125 11.93359375 C18 15 18 15 16.9296875 16.89453125 C13.93638466 18.6093181 11.28445265 18.32000929 7.875 18.25 C6.61429687 18.23453125 5.35359375 18.2190625 4.0546875 18.203125 C1 18 1 18 0 17 C-0.07330331 14.13530675 -0.09217831 11.30106326 -0.0625 8.4375 C-0.041875 5.653125 -0.02125 2.86875 0 0 Z " fill="#FACA36" transform="translate(295,55)"/>
<path d="M0 0 C3.28364308 3.02211398 5.49980584 6.15351426 7.75 10 C8.67039063 11.546875 8.67039063 11.546875 9.609375 13.125 C11 16 11 16 11 20 C6.71 20 2.42 20 -2 20 C-6 13.375 -6 13.375 -6 10 C-6.66 10 -7.32 10 -8 10 C-8.33 8.68 -8.66 7.36 -9 6 C-7.68 6 -6.36 6 -5 6 C-4.34 4.35 -3.68 2.7 -3 1 C-2.01 1.33 -1.02 1.66 0 2 C0 1.34 0 0.68 0 0 Z " fill="#414141" transform="translate(186,146)"/>
<path d="M0 0 C15.89983364 -0.68714767 15.89983364 -0.68714767 20.3125 1.5 C24.48126564 5.37792152 25.83623044 9.37968701 26.1875 15 C26.0946875 15.99 26.0946875 15.99 26 17 C21.91556885 18.53166168 18.20544343 17.63081652 14 17 C13.71125 15.88625 13.4225 14.7725 13.125 13.625 C12.30758671 9.99708908 12.30758671 9.99708908 10 8 C6.91652174 7.83318891 6.91652174 7.83318891 4 8 C5.36983503 4.83884224 5.9890638 4.0072908 9 2 C6.03 1.67 3.06 1.34 0 1 C0 0.67 0 0.34 0 0 Z " fill="#323232" transform="translate(18,112)"/>
<path d="M0 0 C0.66 0.33 1.32 0.66 2 1 C0.375 7.75 0.375 7.75 -3 10 C-6.65073808 10.48370738 -10.32060576 10.41638103 -14 10.4375 C-15.010625 10.47037109 -16.02125 10.50324219 -17.0625 10.53710938 C-19.80357979 10.55715717 -22.30958967 10.52913726 -25 10 C-27.1875 7.47265625 -27.1875 7.47265625 -28 5 C-20.40806186 0.40487955 -13.68867404 0.05978093 -4.875 1.625 C-3.92625 1.74875 -2.9775 1.8725 -2 2 C-1.34 1.34 -0.68 0.68 0 0 Z " fill="#FDC003" transform="translate(373,109)"/>
<path d="M0 0 C0.86613922 -0.00350464 1.73227844 -0.00700928 2.62466431 -0.01062012 C5.46470345 -0.01936441 8.30448993 -0.0136142 11.14453125 -0.00683594 C13.13175504 -0.00818469 15.11897851 -0.01012697 17.10620117 -0.01263428 C21.26191361 -0.01557565 25.41753981 -0.01131966 29.57324219 -0.00195312 C34.88584763 0.00944077 40.19825096 0.00287601 45.510849 -0.00909805 C49.6116283 -0.0163433 53.7123601 -0.01401649 57.81314087 -0.00884247 C59.7714541 -0.00751334 61.72977173 -0.00912772 63.68807983 -0.01380157 C66.4301894 -0.0189107 69.17197677 -0.01109524 71.9140625 0 C72.7142984 -0.00404846 73.5145343 -0.00809692 74.33901978 -0.01226807 C79.51657506 0.0263195 83.97569084 0.83199565 88.95703125 2.25878906 C88.95703125 2.58878906 88.95703125 2.91878906 88.95703125 3.25878906 C87.2781205 3.25545815 87.2781205 3.25545815 85.56529236 3.25205994 C74.95962611 3.23168995 64.35396389 3.21675064 53.74828243 3.20697689 C48.29726781 3.20178303 42.84626913 3.19474973 37.39526367 3.18334961 C32.12381905 3.17239541 26.85238966 3.16648596 21.58093452 3.16391182 C19.58095625 3.16207997 17.58097871 3.15850341 15.581007 3.15305901 C4.32458082 3.12366603 -6.82244646 3.30092056 -18.04296875 4.25878906 C-17.71296875 3.59878906 -17.38296875 2.93878906 -17.04296875 2.25878906 C-11.27071218 0.42869159 -6.02226325 -0.03046715 0 0 Z " fill="#F8E6B5" transform="translate(287.04296875,7.7412109375)"/>
<path d="M0 0 C0.88945312 0.00644531 1.77890625 0.01289062 2.6953125 0.01953125 C3.61570312 0.03628906 4.53609375 0.05304688 5.484375 0.0703125 C6.42023438 0.07933594 7.35609375 0.08835937 8.3203125 0.09765625 C10.62526157 0.12117614 12.9296866 0.15404397 15.234375 0.1953125 C15.729375 1.1853125 15.729375 1.1853125 16.234375 2.1953125 C14.49800781 2.25138672 14.49800781 2.25138672 12.7265625 2.30859375 C11.18746939 2.37428675 9.6484083 2.44073292 8.109375 2.5078125 C6.96855469 2.54165039 6.96855469 2.54165039 5.8046875 2.57617188 C0.92487087 2.80754249 -2.47452638 3.63847578 -6.765625 6.1953125 C-6.105625 7.5153125 -5.445625 8.8353125 -4.765625 10.1953125 C-1.24480942 10.22458882 2.27597439 10.24220369 5.796875 10.2578125 C6.78751953 10.26619141 7.77816406 10.27457031 8.79882812 10.28320312 C14.05986199 10.30068164 19.05202165 10.11839648 24.234375 9.1953125 C24.564375 7.8753125 24.894375 6.5553125 25.234375 5.1953125 C26.224375 5.5253125 27.214375 5.8553125 28.234375 6.1953125 C27.739375 4.2153125 27.739375 4.2153125 27.234375 2.1953125 C29.214375 2.1953125 31.194375 2.1953125 33.234375 2.1953125 C33.234375 2.8553125 33.234375 3.5153125 33.234375 4.1953125 C32.574375 4.1953125 31.914375 4.1953125 31.234375 4.1953125 C31.234375 4.8553125 31.234375 5.5153125 31.234375 6.1953125 C29.58984375 7.44921875 29.58984375 7.44921875 27.421875 8.7578125 C26.36033203 9.40943359 26.36033203 9.40943359 25.27734375 10.07421875 C21.93325798 11.9093098 19.2681109 12.31418722 15.5234375 12.3359375 C14.60820312 12.35527344 13.69296875 12.37460938 12.75 12.39453125 C10.83093871 12.42824449 8.91154312 12.44660382 6.9921875 12.44921875 C1.11970863 12.57853095 1.11970863 12.57853095 -3.78515625 15.66015625 C-4.43871094 16.49675781 -5.09226562 17.33335938 -5.765625 18.1953125 C-8.078125 19.5078125 -8.078125 19.5078125 -9.765625 20.1953125 C-9.25 19.5971875 -8.734375 18.9990625 -8.203125 18.3828125 C-7.72875 17.6609375 -7.254375 16.9390625 -6.765625 16.1953125 C-7.51712523 12.91757746 -7.51712523 12.91757746 -10.765625 11.1953125 C-11.69375 11.6903125 -11.69375 11.6903125 -12.640625 12.1953125 C-14.765625 13.1953125 -14.765625 13.1953125 -16.765625 13.1953125 C-16.765625 12.2053125 -16.765625 11.2153125 -16.765625 10.1953125 C-16.105625 10.1953125 -15.445625 10.1953125 -14.765625 10.1953125 C-14.765625 9.5353125 -14.765625 8.8753125 -14.765625 8.1953125 C-14.105625 8.1953125 -13.445625 8.1953125 -12.765625 8.1953125 C-12.765625 7.5353125 -12.765625 6.8753125 -12.765625 6.1953125 C-12.105625 6.1953125 -11.445625 6.1953125 -10.765625 6.1953125 C-10.765625 5.5353125 -10.765625 4.8753125 -10.765625 4.1953125 C-10.105625 4.1953125 -9.445625 4.1953125 -8.765625 4.1953125 C-8.765625 3.5353125 -8.765625 2.8753125 -8.765625 2.1953125 C-5.70405846 0.41862027 -3.52526285 -0.04519568 0 0 Z " fill="#FAC937" transform="translate(352.765625,107.8046875)"/>
<path d="M0 0 C3.96 0 7.92 0 12 0 C12.33 3.3 12.66 6.6 13 10 C11.68 10 10.36 10 9 10 C9 10.66 9 11.32 9 12 C8.01 12 7.02 12 6 12 C6.66 13.32 7.32 14.64 8 16 C3.74985925 14.48209259 2.04100726 11.93622829 0 8 C-0.31827037 5.23502619 -0.19294027 2.79763387 0 0 Z " fill="#454545" transform="translate(271,148)"/>
<path d="M0 0 C1.32 0 2.64 0 4 0 C4 0.66 4 1.32 4 2 C4.598125 2.0825 5.19625 2.165 5.8125 2.25 C8.65025411 3.22294427 9.49676067 4.44449313 11 7 C11 7.99 11 8.98 11 10 C11.66 10 12.32 10 13 10 C13.28571429 17.42857143 13.28571429 17.42857143 11 21 C10.67 20.34 10.34 19.68 10 19 C9.34 18.67 8.68 18.34 8 18 C8.33 17.01 8.66 16.02 9 15 C8.34 15 7.68 15 7 15 C6.67 15.66 6.34 16.32 6 17 C3 15 3 15 2.125 13.3125 C1.93056321 9.71541933 3.44955927 7.22491671 5 4 C4.67 4.33 4.34 4.66 4 5 C3.01 4.67 2.02 4.34 1 4 C0.3125 1.9375 0.3125 1.9375 0 0 Z " fill="#424140" transform="translate(298,135)"/>
<path d="M0 0 C6.3844245 0.96733705 11.72908169 3.04573476 16 8 C15.67 8.66 15.34 9.32 15 10 C13.68 9.34 12.36 8.68 11 8 C10.3503125 8.928125 10.3503125 8.928125 9.6875 9.875 C8 12 8 12 5 14 C2.58984375 13.828125 2.58984375 13.828125 -0.0625 13.25 C-0.94035156 13.06953125 -1.81820313 12.8890625 -2.72265625 12.703125 C-5 12 -5 12 -7 10 C-4.36 10 -1.72 10 1 10 C1.12375 9.4225 1.2475 8.845 1.375 8.25 C2.00648824 5.97664233 2.88858191 4.0746471 4 2 C2.68 1.67 1.36 1.34 0 1 C0 0.67 0 0.34 0 0 Z " fill="#4C4C4C" transform="translate(28,133)"/>
<path d="M0 0 C0.70189453 0.01353516 1.40378906 0.02707031 2.12695312 0.04101562 C3.85579829 0.07629818 5.58424765 0.13010417 7.3125 0.1875 C8.91198768 3.38647536 8.17946809 6.76868406 7.9375 10.25 C7.89367187 10.99572266 7.84984375 11.74144531 7.8046875 12.50976562 C7.4418504 18.0581496 7.4418504 18.0581496 6.3125 19.1875 C3.6351862 19.28731214 0.98945825 19.32629875 -1.6875 19.3125 C-2.81285156 19.31830078 -2.81285156 19.31830078 -3.9609375 19.32421875 C-9.56088947 19.31411053 -9.56088947 19.31411053 -10.6875 18.1875 C-10.84099136 15.71392763 -10.91909885 13.28745481 -10.9375 10.8125 C-10.958125 10.12671875 -10.97875 9.4409375 -11 8.734375 C-11.02167593 5.94901753 -10.96522289 3.71464948 -9.65234375 1.22265625 C-6.55099553 -0.41125484 -3.40990294 -0.12417014 0 0 Z M-8.6875 3.1875 C-8.76021741 5.54063555 -8.77120868 7.89583668 -8.75 10.25 C-8.729375 12.539375 -8.70875 14.82875 -8.6875 17.1875 C-3.7375 17.1875 1.2125 17.1875 6.3125 17.1875 C6.3125 12.2375 6.3125 7.2875 6.3125 2.1875 C4.023125 2.166875 1.73375 2.14625 -0.625 2.125 C-2.55666016 2.10759766 -2.55666016 2.10759766 -4.52734375 2.08984375 C-7.55048403 1.82217451 -7.55048403 1.82217451 -8.6875 3.1875 Z " fill="#F5DA90" transform="translate(346.6875,64.8125)"/>
<path d="M0 0 C0.33 0 0.66 0 1 0 C1.06961852 9.91861278 1.12287141 19.83716709 1.15543652 29.75597477 C1.17106893 34.36206273 1.19226278 38.96798309 1.22631836 43.57397461 C1.25899847 48.02194801 1.27687125 52.46976054 1.28463173 56.91784477 C1.29015974 58.61185677 1.30095459 60.30586032 1.31719017 61.99980354 C1.33907983 64.37904775 1.34196217 66.75763362 1.34057617 69.13696289 C1.35675491 70.17922279 1.35675491 70.17922279 1.3732605 71.24253845 C1.34189365 76.24354004 0.16487259 79.59539605 -2 84 C-3.44278443 81.11443113 -2.29937879 79.16646926 -1.50127029 76.18614197 C-0.74427255 72.88472046 -0.71587657 69.67865304 -0.68115234 66.29882812 C-0.66608391 65.21442947 -0.66608391 65.21442947 -0.65071106 64.10812378 C-0.62013781 61.74917301 -0.60291696 59.39033431 -0.5859375 57.03125 C-0.56720496 55.38357598 -0.54763002 53.73591133 -0.5272522 52.08825684 C-0.47614516 47.77459266 -0.43640545 43.46089746 -0.39910889 39.14709473 C-0.35893412 34.73600728 -0.30790356 30.32504651 -0.2578125 25.9140625 C-0.16130727 17.27612854 -0.07682208 8.63813134 0 0 Z " fill="#FAEBC1" transform="translate(389,26)"/>
<path d="M0 0 C2.31 0 4.62 0 7 0 C7.33 1.65 7.66 3.3 8 5 C8.99 4.67 9.98 4.34 11 4 C11 4.66 11 5.32 11 6 C11.66 6 12.32 6 13 6 C12.67 7.65 12.34 9.3 12 11 C11.34 11 10.68 11 10 11 C9.67 11.99 9.34 12.98 9 14 C8.54625 13.525625 8.0925 13.05125 7.625 12.5625 C6.06741796 10.90972192 6.06741796 10.90972192 4 10 C3.375 6.9375 3.375 6.9375 3 4 C1.35 3.67 -0.3 3.34 -2 3 C-1.34 2.67 -0.68 2.34 0 2 C0 1.34 0 0.68 0 0 Z " fill="#FCC104" transform="translate(301,101)"/>
<path d="M0 0 C5.28 0 10.56 0 16 0 C17.75185776 5.25557328 18.21992221 7.16147544 17.6875 12.3125 C17.58824219 13.36050781 17.48898437 14.40851563 17.38671875 15.48828125 C17 18 17 18 16 19 C13.3013095 19.07325436 10.63497444 19.09222351 7.9375 19.0625 C5.318125 19.041875 2.69875 19.02125 0 19 C0 12.73 0 6.46 0 0 Z M1 1 C0.94517276 2.54125475 0.90683866 4.08309906 0.875 5.625 C0.85179687 6.48351562 0.82859375 7.34203125 0.8046875 8.2265625 C0.92751348 11.61188343 0.92751348 11.61188343 3 17 C7.29 17 11.58 17 16 17 C16.02685095 14.52076199 16.04676547 12.0418116 16.0625 9.5625 C16.07087891 8.85544922 16.07925781 8.14839844 16.08789062 7.41992188 C16.09653588 5.61306441 16.05220011 3.80612397 16 2 C14.86298403 0.63467451 14.86298403 0.63467451 11.83984375 0.90234375 C10.55207031 0.91394531 9.26429688 0.92554687 7.9375 0.9375 C6.64714844 0.94652344 5.35679687 0.95554687 4.02734375 0.96484375 C3.02832031 0.97644531 2.02929688 0.98804687 1 1 Z " fill="#F8E19D" transform="translate(316,79)"/>
<path d="M0 0 C1.98 0 3.96 0 6 0 C6 0.66 6 1.32 6 2 C5.34 2 4.68 2 4 2 C4 2.66 4 3.32 4 4 C2.35546875 5.25390625 2.35546875 5.25390625 0.1875 6.5625 C-0.87404297 7.21412109 -0.87404297 7.21412109 -1.95703125 7.87890625 C-5.30111702 9.7139973 -7.9662641 10.11887472 -11.7109375 10.140625 C-12.62617188 10.15996094 -13.54140625 10.17929688 -14.484375 10.19921875 C-16.40343629 10.23293199 -18.32283188 10.25129132 -20.2421875 10.25390625 C-26.11466637 10.38321845 -26.11466637 10.38321845 -31.01953125 13.46484375 C-31.67308594 14.30144531 -32.32664062 15.13804688 -33 16 C-35.3125 17.3125 -35.3125 17.3125 -37 18 C-36.505 17.443125 -36.01 16.88625 -35.5 16.3125 C-33.75245633 13.61837017 -33.73781251 12.14624993 -34 9 C-31.5447469 7.77237345 -29.97937946 7.90080593 -27.23828125 7.9375 C-26.28373047 7.94523437 -25.32917969 7.95296875 -24.34570312 7.9609375 C-22.3430957 7.98672768 -20.34049144 8.01276439 -18.33789062 8.0390625 C-13.10094934 8.08121092 -8.15866554 7.92350936 -3 7 C-2.67 5.68 -2.34 4.36 -2 3 C-1.01 3.33 -0.02 3.66 1 4 C0.505 2.02 0.505 2.02 0 0 Z " fill="#F5DFA4" transform="translate(380,110)"/>
<path d="M0 0 C3.375 0.3125 3.375 0.3125 7 1 C9.29013653 4.4352048 9.17842973 5.985331 9 10 C5.7 10 2.4 10 -1 10 C-2.15837626 5.94568308 -1.83691257 3.78187881 0 0 Z " fill="#191717" transform="translate(298,118)"/>
<path d="M0 0 C3.17896475 0.06935923 5.42117618 0.44745079 8.125 2.25 C7.3825 2.6625 6.64 3.075 5.875 3.5 C3.07471894 5.13321237 3.07471894 5.13321237 1 7.4375 C-1.59235393 9.94344213 -3.37229679 9.25 -6.875 9.25 C-5.88944043 0.3799639 -5.88944043 0.3799639 0 0 Z " fill="#202020" transform="translate(108.875,26.75)"/>
<path d="M0 0 C0.99 0 1.98 0 3 0 C3.66 0.66 4.32 1.32 5 2 C6.98821313 2.39764263 8.98944339 2.73775349 11 3 C11 3.66 11 4.32 11 5 C8.69 5.33 6.38 5.66 4 6 C3.34 7.65 2.68 9.3 2 11 C-0.9375 10.25 -0.9375 10.25 -4 9 C-4.875 6.875 -4.875 6.875 -5 5 C-3.35 4.34 -1.7 3.68 0 3 C0 2.01 0 1.02 0 0 Z " fill="#151414" transform="translate(282,131)"/>
<path d="M0 0 C3.3 0 6.6 0 10 0 C10.59732819 2.76264289 11 5.16032769 11 8 C3.25 7.25 3.25 7.25 1 5 C-0.98 5.99 -0.98 5.99 -3 7 C-2.690625 6.401875 -2.38125 5.80375 -2.0625 5.1875 C-0.89790296 2.91043228 -0.89790296 2.91043228 0 0 Z " fill="#161515" transform="translate(283,113)"/>
<path d="M0 0 C0.33 0.66 0.66 1.32 1 2 C0.69530792 2.74094406 0.39061584 3.48188812 0.07669067 4.24528503 C-1.15281563 7.39097905 -1.24123858 9.70583674 -1.22705078 13.07543945 C-1.22689972 14.27630692 -1.22674866 15.47717438 -1.22659302 16.71443176 C-1.21627045 18.00105209 -1.20594788 19.28767242 -1.1953125 20.61328125 C-1.19157912 21.95134774 -1.18873368 23.28941697 -1.18673706 24.62748718 C-1.17912616 28.13741699 -1.15949982 31.64717945 -1.1373291 35.15704346 C-1.11681564 38.74334449 -1.10772362 42.32967274 -1.09765625 45.91601562 C-1.07625129 52.94407885 -1.04214631 59.97203138 -1 67 C-3.71723032 64.28276968 -3.25885728 62.82379081 -3.2746582 59.02148438 C-3.28419022 57.76678345 -3.29372223 56.51208252 -3.30354309 55.21936035 C-3.3032817 53.84415662 -3.30234481 52.46895287 -3.30078125 51.09375 C-3.30466654 49.68892286 -3.30900086 48.28409689 -3.31376648 46.87927246 C-3.32123354 43.9336364 -3.3209337 40.98812019 -3.31567383 38.04248047 C-3.30987463 34.26252304 -3.3268181 30.48305489 -3.3500185 26.70317841 C-3.36472927 23.80187092 -3.36563128 20.90068204 -3.36250877 17.99934387 C-3.36302321 16.60544362 -3.36828375 15.21153694 -3.37832069 13.81767273 C-3.39061667 11.87132484 -3.3819769 9.92487837 -3.37231445 7.97851562 C-3.37294388 6.86980103 -3.3735733 5.76108643 -3.3742218 4.61877441 C-3.25072861 3.75457886 -3.12723541 2.8903833 -3 2 C-2.01 1.34 -1.02 0.68 0 0 Z " fill="#FBE39E" transform="translate(269,24)"/>
<path d="M0 0 C5.75 0.75 5.75 0.75 8 3 C7.67 3.99 7.34 4.98 7 6 C7.66 6.33 8.32 6.66 9 7 C9 11.62 9 16.24 9 21 C8.34 20.34 7.68 19.68 7 19 C4.87905181 19.01602698 4.87905181 19.01602698 2.5625 19.4375 C-0.60585075 19.93337038 -1.87121138 20.04292954 -5 19 C-5.33 17.02 -5.66 15.04 -6 13 C-5.01 13.495 -5.01 13.495 -4 14 C-4 15.32 -4 16.64 -4 18 C-0.7 18 2.6 18 6 18 C5.34 14.7 4.68 11.4 4 8 C4.66 8.33 5.32 8.66 6 9 C5.12527407 4.04485498 5.12527407 4.04485498 1.875 0.5625 C1.25625 0.376875 0.6375 0.19125 0 0 Z " fill="#E7E2D5" transform="translate(301,110)"/>
<path d="M0 0 C0.88945312 0.00644531 1.77890625 0.01289062 2.6953125 0.01953125 C3.61570312 0.03628906 4.53609375 0.05304688 5.484375 0.0703125 C6.42023438 0.07933594 7.35609375 0.08835937 8.3203125 0.09765625 C10.62526157 0.12117614 12.9296866 0.15404397 15.234375 0.1953125 C15.564375 0.8553125 15.894375 1.5153125 16.234375 2.1953125 C15.1 2.25589844 13.965625 2.31648438 12.796875 2.37890625 C11.27603365 2.46339744 9.75520075 2.54804101 8.234375 2.6328125 C7.49058594 2.67212891 6.74679687 2.71144531 5.98046875 2.75195312 C1.02703582 3.03192977 -3.84875969 3.53041821 -8.765625 4.1953125 C-8.765625 3.5353125 -8.765625 2.8753125 -8.765625 2.1953125 C-5.70405846 0.41862027 -3.52526285 -0.04519568 0 0 Z " fill="#F9E2A5" transform="translate(352.765625,107.8046875)"/>
<path d="M0 0 C4.95810056 4.79816183 4.95810056 4.79816183 5.11352539 9.25634766 C5.11336691 10.64226269 5.10770937 12.02818392 5.09765625 13.4140625 C5.0962413 14.14370209 5.09482635 14.87334167 5.09336853 15.62509155 C5.08776531 17.95843585 5.07521235 20.29168464 5.0625 22.625 C5.05748541 24.20572778 5.05292243 25.78645707 5.04882812 27.3671875 C5.03779484 31.24482854 5.02052811 35.12239807 5 39 C4.67 39 4.34 39 4 39 C3.67 28.77 3.34 18.54 3 8 C2.34 7.67 1.68 7.34 1 7 C0.59270772 4.67843403 0.25561323 2.3431213 0 0 Z " fill="#EFBC22" transform="translate(384,17)"/>
<path d="M0 0 C3.87887236 3.87887236 3.57422469 9.42794948 4.07421875 14.63867188 C4.28283426 16.44019056 4.63365211 18.22383018 5 20 C5.99 20.66 6.98 21.32 8 22 C6.68 22.99 5.36 23.98 4 25 C2.64560332 22.29120665 2.93498549 19.99066732 3 17 C2.34 17 1.68 17 1 17 C0.67 11.39 0.34 5.78 0 0 Z " fill="#F8E3A4" transform="translate(317,110)"/>
<path d="M0 0 C-0.73291712 1.1774734 -1.48703801 2.34176854 -2.25 3.5 C-2.66765625 4.1496875 -3.0853125 4.799375 -3.515625 5.46875 C-4.00546875 5.9740625 -4.4953125 6.479375 -5 7 C-7 7 -9 7 -11 7 C-11 6.01 -11 5.02 -11 4 C-10.34 4 -9.68 4 -9 4 C-9 3.34 -9 2.68 -9 2 C-5.59159007 -0.55630744 -4.03546861 -1.28479663 0 0 Z " fill="#4D4D4C" transform="translate(284,114)"/>
<path d="M0 0 C1.98 0 3.96 0 6 0 C6 0.66 6 1.32 6 2 C5.34 2 4.68 2 4 2 C4 2.66 4 3.32 4 4 C0.44522357 6.97735082 -2.86488289 8.89865026 -7.5 9.3125 C-8.7375 9.1578125 -8.7375 9.1578125 -10 9 C-8 7 -8 7 -5.375 6.875 C-4.59125 6.91625 -3.8075 6.9575 -3 7 C-2.67 5.68 -2.34 4.36 -2 3 C-1.01 3.33 -0.02 3.66 1 4 C0.67 2.68 0.34 1.36 0 0 Z " fill="#F4D15F" transform="translate(380,110)"/>
<path d="M0 0 C-1.14591488 3.43774463 -1.95688598 4.17413159 -5 6 C-6.32 6 -7.64 6 -9 6 C-11.73219193 7.91859167 -11.73219193 7.91859167 -14 10 C-12.59504255 6.66865759 -11.01145032 4.90666854 -8.125 2.75 C-7.44695312 2.22921875 -6.76890625 1.7084375 -6.0703125 1.171875 C-4 0 -4 0 0 0 Z " fill="#828282" transform="translate(113,113)"/>
<path d="M0 0 C0.99 0.33 1.98 0.66 3 1 C3 1.99 3 2.98 3 4 C2.34 4 1.68 4 1 4 C0.67 4.99 0.34 5.98 0 7 C-1.98 7 -3.96 7 -6 7 C-4.61990379 3.66476748 -3.15049348 1.81392049 0 0 Z " fill="#575757" transform="translate(15,113)"/>
<path d="M0 0 C2.64 0.33 5.28 0.66 8 1 C7.01 2.485 7.01 2.485 6 4 C5.34 4 4.68 4 4 4 C4 4.99 4 5.98 4 7 C4.66 7.33 5.32 7.66 6 8 C5.34 8.66 4.68 9.32 4 10 C0 3.375 0 3.375 0 0 Z " fill="#5E5E5E" transform="translate(62,27)"/>
<path d="M0 0 C1.2065625 0.0309375 1.2065625 0.0309375 2.4375 0.0625 C2.125 1.9375 2.125 1.9375 1.4375 4.0625 C-1.5625 6.0625 -1.5625 6.0625 -4.5625 6.0625 C-3.48963568 0.08511307 -3.48963568 0.08511307 0 0 Z " fill="#161415" transform="translate(118.5625,155.9375)"/>
<path d="M0 0 C1.32 0.99 2.64 1.98 4 3 C5.32 2.34 6.64 1.68 8 1 C6.95125002 3.62187494 6.35068687 4.79371361 3.875 6.25 C3.25625 6.4975 2.6375 6.745 2 7 C1.01 6.34 0.02 5.68 -1 5 C-0.67 3.35 -0.34 1.7 0 0 Z " fill="#141413" transform="translate(300,148)"/>
<path d="M0 0 C0.99 0.99 1.98 1.98 3 3 C2.01 3.99 1.02 4.98 0 6 C-1.98 5.34 -3.96 4.68 -6 4 C-5.38125 3.71125 -4.7625 3.4225 -4.125 3.125 C-1.86674235 2.06279958 -1.86674235 2.06279958 0 0 Z " fill="#FCC201" transform="translate(342,118)"/>
<path d="M0 0 C2.31 0.33 4.62 0.66 7 1 C7 1.66 7 2.32 7 3 C6.01 3 5.02 3 4 3 C4.66 4.32 5.32 5.64 6 7 C3.53199953 5.84826645 1.95216435 4.95216435 0 3 C0 2.01 0 1.02 0 0 Z " fill="#585858" transform="translate(273,157)"/>
<path d="M0 0 C0.33 0.99 0.66 1.98 1 3 C-0.62339805 4.70884005 -2.29319053 6.37446717 -4 8 C-4.66 8 -5.32 8 -6 8 C-6 6.68 -6 5.36 -6 4 C-5.34 4 -4.68 4 -4 4 C-4 3.34 -4 2.68 -4 2 C-2.68 1.34 -1.36 0.68 0 0 Z " fill="#606060" transform="translate(43,156)"/>
<path d="M0 0 C2.64 0 5.28 0 8 0 C6.68 2.64 5.36 5.28 4 8 C3.01 6.68 2.02 5.36 1 4 C1.33 3.34 1.66 2.68 2 2 C1.34 1.34 0.68 0.68 0 0 Z " fill="#616161" transform="translate(113,27)"/>
<path d="M0 0 C1.010625 0.45375 2.02125 0.9075 3.0625 1.375 C6.64723004 2.91862865 10.23002669 3.999803 14 5 C14 5.33 14 5.66 14 6 C11.36 6 8.72 6 6 6 C6 5.34 6 4.68 6 4 C4.68 4.33 3.36 4.66 2 5 C1.34 3.35 0.68 1.7 0 0 Z " fill="#979697" transform="translate(284,129)"/>
<path d="M0 0 C2.58361518 -0.05407567 5.16609255 -0.093707 7.75 -0.125 C8.84441406 -0.15013672 8.84441406 -0.15013672 9.9609375 -0.17578125 C13.8044624 -0.21072239 16.74606772 -0.17499684 20 2 C18.02 2.99 18.02 2.99 16 4 C15.67 3.01 15.34 2.02 15 1 C10.05 1 5.1 1 0 1 C0 0.67 0 0.34 0 0 Z " fill="#919191" transform="translate(18,112)"/>
<path d="M0 0 C0.33 0.99 0.66 1.98 1 3 C-4.16923077 7.06153846 -4.16923077 7.06153846 -8.375 6.75 C-9.24125 6.5025 -10.1075 6.255 -11 6 C-11 5.67 -11 5.34 -11 5 C-9.35 5 -7.7 5 -6 5 C-6 4.34 -6 3.68 -6 3 C-4.02 2.01 -2.04 1.02 0 0 Z " fill="#F9CE53" transform="translate(375,105)"/>
<path d="M0 0 C0.33 0.66 0.66 1.32 1 2 C0.33730939 3.66825159 -0.33005782 5.33464728 -1 7 C-1.2759478 8.92903132 -1.48449903 10.8689032 -1.625 12.8125 C-1.69976562 13.78832031 -1.77453125 14.76414062 -1.8515625 15.76953125 C-1.90054687 16.50558594 -1.94953125 17.24164063 -2 18 C-2.33 18 -2.66 18 -3 18 C-3.08074203 15.37438891 -3.1403623 12.75124324 -3.1875 10.125 C-3.21263672 9.37863281 -3.23777344 8.63226563 -3.26367188 7.86328125 C-3.29296875 5.6953125 -3.29296875 5.6953125 -3 2 C-2.01 1.34 -1.02 0.68 0 0 Z " fill="#F8DF92" transform="translate(269,24)"/>
<path d="M0 0 C0.99 0.33 1.98 0.66 3 1 C2.67 1.99 2.34 2.98 2 4 C1.34 2.68 0.68 1.36 0 0 Z M0 4 C0.33 4.66 0.66 5.32 1 6 C1.66 6.33 2.32 6.66 3 7 C0.125 7.625 0.125 7.625 -3 8 C-3.66 7.34 -4.32 6.68 -5 6 C-3.35 5.34 -1.7 4.68 0 4 Z " fill="#131313" transform="translate(28,136)"/>
<path d="M0 0 C1.32 0.33 2.64 0.66 4 1 C4 1.66 4 2.32 4 3 C4.66 3 5.32 3 6 3 C7.625 5 7.625 5 9 7 C8.67 7.66 8.34 8.32 8 9 C7.21625 8.34 6.4325 7.68 5.625 7 C3.28487188 4.79798559 3.28487188 4.79798559 1 5 C0.67 3.35 0.34 1.7 0 0 Z " fill="#F9DD91" transform="translate(308,101)"/>
<path d="M0 0 C0.99 0.33 1.98 0.66 3 1 C2.49396008 3.16874252 2.00016187 4.99967627 1 7 C0.34 7 -0.32 7 -1 7 C-1.66 5.35 -2.32 3.7 -3 2 C-2.01 2 -1.02 2 0 2 C0 1.34 0 0.68 0 0 Z " fill="#272727" transform="translate(280,158)"/>
<path d="M0 0 C1.32 0.66 2.64 1.32 4 2 C2.02 4.64 0.04 7.28 -2 10 C-2.66 9.67 -3.32 9.34 -4 9 C-3.505 8.608125 -3.01 8.21625 -2.5 7.8125 C-0.53886798 5.44279881 -0.84234938 3.99536172 -1 1 C-0.67 0.67 -0.34 0.34 0 0 Z " fill="#F7DA78" transform="translate(347,118)"/>
<path d="M0 0 C5.75 0.75 5.75 0.75 8 3 C7.67 3.99 7.34 4.98 7 6 C7.66 6.33 8.32 6.66 9 7 C8.34 7.66 7.68 8.32 7 9 C4 4.25 4 4.25 4 2 C2.68 1.34 1.36 0.68 0 0 Z " fill="#F5D67A" transform="translate(301,110)"/>
<path d="M0 0 C1.32 0 2.64 0 4 0 C4 0.66 4 1.32 4 2 C5.32 2.33 6.64 2.66 8 3 C8 3.99 8 4.98 8 6 C6.68 5.01 5.36 4.02 4 3 C3.67 3.66 3.34 4.32 3 5 C2.34 4.67 1.68 4.34 1 4 C0.375 1.9375 0.375 1.9375 0 0 Z " fill="#8D8B8C" transform="translate(298,135)"/>
<path d="M0 0 C0.33 1.32 0.66 2.64 1 4 C0.01 4 -0.98 4 -2 4 C-2.33 5.65 -2.66 7.3 -3 9 C-3.99 8.67 -4.98 8.34 -6 8 C-4.02 5.36 -2.04 2.72 0 0 Z " fill="#F8C946" transform="translate(328,127)"/>
<path d="M0 0 C3.2542015 2.83430453 4.5206753 4.68607774 5 9 C3.0625 8.4375 3.0625 8.4375 1 7 C0.25 3.375 0.25 3.375 0 0 Z " fill="#F7D97E" transform="translate(384,17)"/>
<path d="M0 0 C2.86724686 0.57344937 3.8614515 0.8614515 6 3 C4.68 3.33 3.36 3.66 2 4 C1.34 2.68 0.68 1.36 0 0 Z M0 4 C0.66 4.33 1.32 4.66 2 5 C1.67 5.99 1.34 6.98 1 8 C0.34 7.01 -0.32 6.02 -1 5 C-0.67 4.67 -0.34 4.34 0 4 Z " fill="#525252" transform="translate(132,114)"/>
<path d="M0 0 C0.66 0 1.32 0 2 0 C2 1.32 2 2.64 2 4 C-0.97 4 -3.94 4 -7 4 C-7 3.67 -7 3.34 -7 3 C-5.5459375 2.5359375 -5.5459375 2.5359375 -4.0625 2.0625 C-1.15934208 1.30476658 -1.15934208 1.30476658 0 0 Z " fill="#0F0F0B" transform="translate(305,124)"/>
<path d="M0 0 C3.68754757 0.49831724 5.60490662 1.10067643 8 4 C7.67 4.66 7.34 5.32 7 6 C6.608125 5.525625 6.21625 5.05125 5.8125 4.5625 C3.59191626 2.64820367 1.86624291 2.38733012 -1 2 C-0.67 1.34 -0.34 0.68 0 0 Z " fill="#898989" transform="translate(24,119)"/>
<path d="M0 0 C1.65 0.33 3.3 0.66 5 1 C4.67 1.99 4.34 2.98 4 4 C2.02 4 0.04 4 -2 4 C-1.34 2.68 -0.68 1.36 0 0 Z " fill="#141414" transform="translate(24,116)"/>
<path d="M0 0 C0.99 0 1.98 0 3 0 C3 2.64 3 5.28 3 8 C2.01 7.67 1.02 7.34 0 7 C0.185625 6.21625 0.37125 5.4325 0.5625 4.625 C1.25962266 2.02910225 1.25962266 2.02910225 0 0 Z " fill="#1B191A" transform="translate(258,135)"/>
<path d="M0 0 C0.33 0 0.66 0 1 0 C1.36923077 6.52307692 1.36923077 6.52307692 -0.5 8.9375 C-0.995 9.288125 -1.49 9.63875 -2 10 C-2.33 8.68 -2.66 7.36 -3 6 C-2.34 5.67 -1.68 5.34 -1 5 C-0.34444881 2.47266765 -0.34444881 2.47266765 0 0 Z " fill="#0F0F0F" transform="translate(54,41)"/>
<path d="M0 0 C1.98 0 3.96 0 6 0 C4.515 1.98 4.515 1.98 3 4 C1.68 3.67 0.36 3.34 -1 3 C-0.67 2.01 -0.34 1.02 0 0 Z " fill="#141414" transform="translate(37,28)"/>
</svg>
