<?xml version="1.0" encoding="UTF-8"?>
<svg version="1.1" xmlns="http://www.w3.org/2000/svg" width="500" height="500">
<path d="M0 0 C1.29351379 -0.00744736 1.29351379 -0.00744736 2.61315918 -0.01504517 C5.4652588 -0.02964501 8.31730274 -0.03646649 11.16943359 -0.04199219 C13.15758261 -0.04774706 15.14573162 -0.05350475 17.13388062 -0.05926514 C21.30507668 -0.06977006 25.47625351 -0.07561552 29.64746094 -0.07910156 C34.97347898 -0.08457392 40.29923978 -0.10857719 45.62517738 -0.13707352 C49.73461632 -0.15576881 53.84399428 -0.16090924 57.95347214 -0.16243744 C59.91572851 -0.16545082 61.87798415 -0.1734346 63.84019852 -0.18662262 C88.54060331 -0.34073342 88.54060331 -0.34073342 95.81787109 6.34863281 C96.42373047 6.8784375 97.02958984 7.40824219 97.65380859 7.95410156 C104.55975376 16.4734444 104.03270441 25.05035792 103.97412109 35.46972656 C103.9768199 37.16309329 103.98070556 38.85645849 103.98571777 40.54981995 C103.99159617 44.08943515 103.98310489 47.62864503 103.96435547 51.16821289 C103.94158415 55.68506678 103.95468759 60.20096883 103.97864532 64.71778774 C103.99316344 68.21217397 103.98846964 71.70633801 103.97813416 75.20073128 C103.97548253 76.8651548 103.97868104 78.52959908 103.98805237 80.19399834 C104.02666623 88.97935424 103.95921636 96.33096967 99.44287109 104.16113281 C98.78287109 104.16113281 98.12287109 104.16113281 97.44287109 104.16113281 C97.44287109 104.82113281 97.44287109 105.48113281 97.44287109 106.16113281 C95.79833984 107.41503906 95.79833984 107.41503906 93.63037109 108.72363281 C92.92267578 109.15804687 92.21498047 109.59246094 91.48583984 110.04003906 C88.14175407 111.87513011 85.476607 112.28000753 81.73193359 112.30175781 C80.81669922 112.32109375 79.90146484 112.34042969 78.95849609 112.36035156 C77.0394348 112.3940648 75.12003921 112.41242414 73.20068359 112.41503906 C67.32820472 112.54435126 67.32820472 112.54435126 62.42333984 115.62597656 C61.76978516 116.46257812 61.11623047 117.29917969 60.44287109 118.16113281 C58.13037109 119.47363281 58.13037109 119.47363281 56.44287109 120.16113281 C56.44287109 120.82113281 56.44287109 121.48113281 56.44287109 122.16113281 C55.78287109 122.16113281 55.12287109 122.16113281 54.44287109 122.16113281 C54.44287109 122.82113281 54.44287109 123.48113281 54.44287109 124.16113281 C53.78287109 124.16113281 53.12287109 124.16113281 52.44287109 124.16113281 C52.44287109 124.82113281 52.44287109 125.48113281 52.44287109 126.16113281 C51.78287109 126.16113281 51.12287109 126.16113281 50.44287109 126.16113281 C50.44287109 126.82113281 50.44287109 127.48113281 50.44287109 128.16113281 C49.78287109 128.16113281 49.12287109 128.16113281 48.44287109 128.16113281 C48.17474609 128.75925781 47.90662109 129.35738281 47.63037109 129.97363281 C46.44369703 132.15961135 45.34687997 133.57445875 43.44287109 135.16113281 C42.78287109 135.16113281 42.12287109 135.16113281 41.44287109 135.16113281 C41.21599609 135.73863281 40.98912109 136.31613281 40.75537109 136.91113281 C39.02259771 139.88160148 37.36753565 141.34134153 34.44287109 143.16113281 C30.63037109 143.41113281 30.63037109 143.41113281 27.44287109 143.16113281 C27.44287109 142.50113281 27.44287109 141.84113281 27.44287109 141.16113281 C26.78287109 141.16113281 26.12287109 141.16113281 25.44287109 141.16113281 C24.13395871 135.78569652 23.16557843 130.5238891 22.68896484 125.00878906 C22.53260009 123.06958187 22.53260009 123.06958187 21.44287109 121.16113281 C20.82798828 121.24492187 20.21310547 121.32871094 19.57958984 121.41503906 C18.36722656 121.56779297 18.36722656 121.56779297 17.13037109 121.72363281 C15.92960937 121.88025391 15.92960937 121.88025391 14.70458984 122.04003906 C12.44287109 122.16113281 12.44287109 122.16113281 9.44287109 121.16113281 C9.11287109 119.18113281 8.78287109 117.20113281 8.44287109 115.16113281 C5.80287109 114.83113281 3.16287109 114.50113281 0.44287109 114.16113281 C-0.54712891 115.81113281 -1.53712891 117.46113281 -2.55712891 119.16113281 C0.09571079 123.14039235 3.1881289 123.59673759 7.56787109 124.84863281 C8.69902344 125.18604492 8.69902344 125.18604492 9.85302734 125.53027344 C11.71342452 126.08368272 13.5777953 126.62370209 15.44287109 127.16113281 C15.44287109 127.82113281 15.44287109 128.48113281 15.44287109 129.16113281 C16.04099609 129.24363281 16.63912109 129.32613281 17.25537109 129.41113281 C20.0931252 130.38407708 20.93963176 131.60562594 22.44287109 134.16113281 C22.44287109 135.15113281 22.44287109 136.14113281 22.44287109 137.16113281 C23.10287109 137.16113281 23.76287109 137.16113281 24.44287109 137.16113281 C25.1770877 143.91592555 22.71879062 148.34637566 19.44287109 154.16113281 C18.78287109 154.16113281 18.12287109 154.16113281 17.44287109 154.16113281 C17.44287109 154.82113281 17.44287109 155.48113281 17.44287109 156.16113281 C11.39244396 159.74439548 2.79422874 159.9280456 -3.99462891 158.53613281 C-8.75369912 156.69929869 -11.80608052 154.46933296 -14.93212891 150.34863281 C-15.90843299 146.93156853 -15.67527709 143.70557838 -15.55712891 140.16113281 C-11.59712891 140.16113281 -7.63712891 140.16113281 -3.55712891 140.16113281 C-2.56712891 143.62613281 -2.56712891 143.62613281 -1.55712891 147.16113281 C-0.12057037 147.24244745 1.31731939 147.3004684 2.75537109 147.34863281 C3.55587891 147.3834375 4.35638672 147.41824219 5.18115234 147.45410156 C7.49942476 147.326828 7.49942476 147.326828 9.29833984 145.89941406 C10.63089251 144.22144487 10.63089251 144.22144487 10.44677734 142.10253906 C9.57385675 139.9585082 9.57385675 139.9585082 7.22021484 139.00097656 C6.28306641 138.70320312 5.34591797 138.40542969 4.38037109 138.09863281 C3.38779297 137.76734375 2.39521484 137.43605469 1.37255859 137.09472656 C0.40576172 136.78664063 -0.56103516 136.47855469 -1.55712891 136.16113281 C-7.4652915 134.22099361 -11.61690205 132.55652982 -14.80712891 126.97363281 C-16.33906006 121.22889098 -16.323 115.52000806 -13.55712891 110.16113281 C-12.89712891 110.16113281 -12.23712891 110.16113281 -11.55712891 110.16113281 C-11.55712891 109.50113281 -11.55712891 108.84113281 -11.55712891 108.16113281 C-10.33205993 107.50756003 -9.10183375 106.86365048 -7.86962891 106.22363281 C-6.84289062 105.68416016 -6.84289062 105.68416016 -5.79541016 105.13378906 C-1.15788219 103.11852822 2.48741556 103.07679591 7.44287109 103.91113281 C8.45349609 104.07097656 9.46412109 104.23082031 10.50537109 104.39550781 C15.16148436 105.60906925 17.76665096 107.14680262 20.44287109 111.16113281 C19.78287109 108.85113281 19.12287109 106.54113281 18.44287109 104.16113281 C14.93013904 103.08529148 11.65169021 103.02122767 7.98974609 102.98535156 C6.73033203 102.96150391 5.47091797 102.93765625 4.17333984 102.91308594 C1.53547971 102.8703728 -1.1025899 102.83898439 -3.74072266 102.81933594 C-11.11655103 102.65768425 -16.28261105 102.15038845 -22.55712891 98.16113281 C-22.55712891 97.50113281 -22.55712891 96.84113281 -22.55712891 96.16113281 C-23.21712891 96.16113281 -23.87712891 96.16113281 -24.55712891 96.16113281 C-29.26447198 89.83564056 -30.87405125 84.69654469 -31.19384766 76.89160156 C-31.23168869 76.0684697 -31.26952972 75.24533783 -31.30851746 74.39726257 C-31.70584213 64.48493973 -31.61275358 54.57559792 -31.42504883 44.65942383 C-31.36903102 41.43926348 -31.34098426 38.21953475 -31.31298828 34.99902344 C-31.27758835 32.92412378 -31.24054 30.84925143 -31.20166016 28.77441406 C-31.19729446 27.82536697 -31.19292877 26.87631989 -31.18843079 25.89851379 C-30.99152393 18.18345509 -28.90578889 12.65855252 -23.80712891 6.84863281 C-17.32440791 0.79370558 -8.45827134 0.01165181 0 0 Z M-16.55712891 16.16113281 C-20.55239922 22.30499565 -19.99191906 28.96780417 -19.95556641 36.10253906 C-19.95843658 37.34357895 -19.96130676 38.58461884 -19.96426392 39.86326599 C-19.96681993 43.14736923 -19.9548049 46.43104175 -19.93798828 49.71508789 C-19.93212922 51.72352675 -19.93797521 53.73157291 -19.94824219 55.73999023 C-19.96679233 59.61102451 -19.96452599 63.48148043 -19.95556641 67.35253906 C-19.9616391 68.54641739 -19.96771179 69.74029572 -19.97396851 70.97035217 C-19.91232089 78.25957571 -19.55871524 83.09469739 -14.26318359 88.50463867 C-11.00967702 90.496252 -9.05491839 90.65858555 -5.26025391 90.66503906 C-4.05369141 90.68373047 -2.84712891 90.70242187 -1.60400391 90.72167969 C-0.35103516 90.72232422 0.90193359 90.72296875 2.19287109 90.72363281 C10.58410103 90.75422584 17.61690548 90.96807109 25.44287109 94.16113281 C25.44287109 94.82113281 25.44287109 95.48113281 25.44287109 96.16113281 C26.10287109 96.16113281 26.76287109 96.16113281 27.44287109 96.16113281 C28.13061515 97.48371753 28.78998483 98.82099784 29.44287109 100.16113281 C29.93787109 101.08925781 30.43287109 102.01738281 30.94287109 102.97363281 C33.13167284 107.98917851 33.3571781 113.54392328 33.91552734 118.93066406 C34.13306463 122.24062567 34.13306463 122.24062567 36.44287109 124.16113281 C37.7148808 123.05832155 38.98542962 121.95382512 40.25537109 120.84863281 C40.96306641 120.23375 41.67076172 119.61886719 42.39990234 118.98535156 C45.01764972 116.6692446 45.01764972 116.6692446 47.44287109 114.16113281 C47.44287109 113.50113281 47.44287109 112.84113281 47.44287109 112.16113281 C48.10287109 112.16113281 48.76287109 112.16113281 49.44287109 112.16113281 C49.44287109 111.50113281 49.44287109 110.84113281 49.44287109 110.16113281 C50.10287109 110.16113281 50.76287109 110.16113281 51.44287109 110.16113281 C51.44287109 109.50113281 51.44287109 108.84113281 51.44287109 108.16113281 C52.10287109 108.16113281 52.76287109 108.16113281 53.44287109 108.16113281 C53.44287109 107.50113281 53.44287109 106.84113281 53.44287109 106.16113281 C54.10287109 106.16113281 54.76287109 106.16113281 55.44287109 106.16113281 C55.44287109 105.50113281 55.44287109 104.84113281 55.44287109 104.16113281 C56.10287109 104.16113281 56.76287109 104.16113281 57.44287109 104.16113281 C57.44287109 103.50113281 57.44287109 102.84113281 57.44287109 102.16113281 C60.46683727 101.27173099 63.07166916 101.07571135 66.21630859 101.16894531 C67.12380859 101.18570313 68.03130859 101.20246094 68.96630859 101.21972656 C70.85974069 101.26382019 72.75300561 101.31584012 74.64599609 101.37597656 C79.98079446 101.45909665 83.9400607 101.38140898 88.44287109 98.16113281 C91.5068372 94.09621952 91.82938129 91.01818493 91.86279297 85.98754883 C91.87126251 85.2844458 91.87973206 84.58134277 91.88845825 83.85693359 C91.91177408 81.54278255 91.9128518 79.22929846 91.91162109 76.91503906 C91.91872577 75.2998783 91.92642521 73.68472005 91.93469238 72.06956482 C91.94812455 68.68782532 91.94971162 65.30631923 91.94384766 61.92456055 C91.93795134 57.59889876 91.96854495 53.27435927 92.00896454 48.94891453 C92.0348607 45.6142121 92.03771729 42.27977928 92.03407288 38.94499016 C92.03576222 37.35062781 92.04538695 35.75625275 92.06321716 34.16198921 C92.08544826 31.92860703 92.07568785 29.69748824 92.05810547 27.46411133 C92.06015991 26.19567886 92.06221436 24.9272464 92.06433105 23.62037659 C91.25667844 19.12472528 89.78827598 17.24056681 86.44287109 14.16113281 C81.20282001 11.97960999 76.17351197 11.86424743 70.58935547 11.87060547 C69.73150955 11.86388824 68.87366364 11.85717102 67.98982239 11.85025024 C65.17202872 11.8313504 62.35447408 11.82735061 59.53662109 11.82519531 C57.56799219 11.81876358 55.59936423 11.81203494 53.6307373 11.80502319 C49.51194034 11.79307177 45.39322713 11.78934035 41.27441406 11.79052734 C36.00524856 11.79073081 30.7366207 11.76338997 25.4675827 11.72898293 C21.40457708 11.70671622 17.34170113 11.70268968 13.27864075 11.7037468 C11.33622885 11.70139199 9.39381332 11.69257528 7.45146179 11.67708206 C4.73272225 11.65741962 2.0151462 11.66326016 -0.70361328 11.67529297 C-1.49966476 11.66405396 -2.29571625 11.65281494 -3.1158905 11.64123535 C-8.69701075 11.70379815 -11.97023148 12.93964919 -16.55712891 16.16113281 Z " fill="#FCC20D" transform="translate(341.55712890625,157.8388671875)"/>
<path d="M0 0 C1.2372583 -0.00326294 1.2372583 -0.00326294 2.49951172 -0.0065918 C3.82233154 0.00053833 3.82233154 0.00053833 5.171875 0.0078125 C6.0705127 0.01192139 6.96915039 0.01603027 7.89501953 0.02026367 C31.21893239 0.21369366 31.21893239 0.21369366 38.171875 6.0078125 C41.90824466 10.5448328 42.35284971 14.82472223 42.25 20.55859375 C41.61753211 25.52045496 39.43598204 29.61870546 35.921875 33.1328125 C36.89125 33.8959375 37.860625 34.6590625 38.859375 35.4453125 C41.34273832 37.40030065 41.8740422 37.98931409 42.921875 41.1328125 C43.06835582 43.40044824 43.1428376 45.67313616 43.171875 47.9453125 C43.19765625 49.14800781 43.2234375 50.35070312 43.25 51.58984375 C42.74961952 56.99276159 40.95603486 60.12163397 37.109375 63.8828125 C31.48868018 67.85036178 26.15657904 68.4836025 19.484375 68.7578125 C18.70392822 68.79503418 17.92348145 68.83225586 17.11938477 68.87060547 C9.74185592 69.19517187 2.30101584 69.4896984 -5.078125 69.1328125 C-8.19630699 66.01463051 -7.20217135 57.82263693 -7.21707153 53.68540955 C-7.21403519 52.29619041 -7.21403519 52.29619041 -7.2109375 50.87890625 C-7.21189423 49.90099625 -7.21285095 48.92308624 -7.21383667 47.9155426 C-7.21451498 45.85051407 -7.21268511 43.78548338 -7.20849609 41.72045898 C-7.20318347 38.60460445 -7.20843203 35.48889673 -7.21484375 32.37304688 C-7.22620499 7.67987892 -7.22620499 7.67987892 -6.078125 1.1328125 C-3.80009042 -0.00620479 -2.52944877 0.00386428 0 0 Z M8.921875 14.1328125 C8.921875 18.0928125 8.921875 22.0528125 8.921875 26.1328125 C11.35881774 26.38160247 13.79425889 26.60744654 16.234375 26.8203125 C16.92466797 26.89314453 17.61496094 26.96597656 18.32617188 27.04101562 C22.31623359 27.40810633 22.31623359 27.40810633 25.875 25.8359375 C27.53154144 23.14096709 27.362786 21.21918948 26.921875 18.1328125 C25.40885864 15.8162094 25.40885864 15.8162094 22.921875 14.1328125 C19.4183115 13.64957044 19.4183115 13.64957044 15.671875 13.8828125 C14.40859375 13.91890625 13.1453125 13.955 11.84375 13.9921875 C10.87953125 14.03859375 9.9153125 14.085 8.921875 14.1328125 Z M8.921875 40.1328125 C8.921875 44.7528125 8.921875 49.3728125 8.921875 54.1328125 C11.52551909 54.38149197 14.12777394 54.60739152 16.734375 54.8203125 C17.47236328 54.89314453 18.21035156 54.96597656 18.97070312 55.04101562 C23.14471383 55.43171194 23.14471383 55.43171194 26.87890625 53.83203125 C28.47629885 51.22953769 28.80019301 49.17486214 28.921875 46.1328125 C27.8026956 43.29421445 27.8026956 43.29421445 25.921875 41.1328125 C20.49552335 39.32402862 14.59072938 40.08080466 8.921875 40.1328125 Z " fill="#1C1C1C" transform="translate(69.078125,175.8671875)"/>
<path d="M0 0 C20.295 0.495 20.295 0.495 41 1 C41 5.62 41 10.24 41 15 C32.09 15 23.18 15 14 15 C14.33 18.63 14.66 22.26 15 26 C22.59 26 30.18 26 38 26 C39 34 39 34 38 41 C30.08 41 22.16 41 14 41 C14.33 45.29 14.66 49.58 15 54 C16.86527344 53.98839844 18.73054688 53.97679687 20.65234375 53.96484375 C23.08072817 53.95546775 25.50911367 53.94636735 27.9375 53.9375 C29.78504883 53.92493164 29.78504883 53.92493164 31.66992188 53.91210938 C32.83974609 53.90888672 34.00957031 53.90566406 35.21484375 53.90234375 C36.84087524 53.89448853 36.84087524 53.89448853 38.49975586 53.88647461 C41 54 41 54 42 55 C42.07258946 57.18639453 42.08373783 59.37500389 42.0625 61.5625 C42.05347656 62.76003906 42.04445313 63.95757812 42.03515625 65.19140625 C42.02355469 66.11824219 42.01195312 67.04507813 42 68 C33.68422981 69.07229347 25.43797061 69.15018939 17.0625 69.125 C15.74958984 69.12886719 14.43667969 69.13273437 13.08398438 69.13671875 C11.20356445 69.13478516 11.20356445 69.13478516 9.28515625 69.1328125 C7.58178101 69.13112061 7.58178101 69.13112061 5.84399414 69.12939453 C3 69 3 69 0 68 C-0.15370219 59.42930537 -0.30188376 50.85854089 -0.4429636 42.28763008 C-0.508643 38.30807382 -0.5762437 34.32856932 -0.64819336 30.34912109 C-0.71752256 26.51073555 -0.78185965 22.67229617 -0.84269524 18.83376694 C-0.86682253 17.36727724 -0.89276686 15.90081631 -0.92053413 14.43439102 C-0.95903632 12.38485463 -0.99115177 10.3353123 -1.02172852 8.28564453 C-1.04171402 7.11760284 -1.06169952 5.94956116 -1.08229065 4.74612427 C-1 2 -1 2 0 0 Z " fill="#181819" transform="translate(242,176)"/>
<path d="M0 0 C6.40514058 4.94942681 9.95549577 12.5015385 11 20.4375 C11.4302661 29.38450388 8.96904282 37.32035685 3 44 C0.1875 45.4375 0.1875 45.4375 -2 46 C-2 46.66 -2 47.32 -2 48 C-11.11958606 51.25976693 -19.56522445 52.62396326 -28.83203125 49.09765625 C-35.27074976 45.83769246 -39.75119669 41.1991306 -42.3125 34.44140625 C-45.15087798 24.36193901 -43.99232399 14.98464799 -39.3125 5.625 C-29.66089647 -5.33087428 -12.56602175 -8.47996568 0 0 Z M-27 11 C-30.32167281 16.03977943 -31.65776518 21.43514764 -30.5625 27.37109375 C-29.12398769 32.34867328 -27.55397727 35.19755245 -23 38 C-19.49741684 39.75129158 -15.82180718 39.55578568 -12 39 C-8.27116816 37.31081114 -5.71604682 35.39377674 -3.83203125 31.7265625 C-1.90037682 25.39654001 -1.89708536 18.36922405 -4.6875 12.375 C-8.42288766 8.53865592 -11.06314586 6.84203855 -16.4375 6.5625 C-20.96294163 6.73568662 -23.58642134 7.91152407 -27 11 Z " fill="#1E1E1E" transform="translate(193,266)"/>
<path d="M0 0 C2.73770612 3.10590087 4.21093076 6.64844469 5.86328125 10.41796875 C7.96827406 15.11711461 10.01874442 19.69224448 12.80078125 24.04296875 C16.39024383 18.98182651 19.45966747 14.06264216 21.74609375 8.28125 C23.22705984 5.13831086 24.49869152 2.68624767 26.80078125 0.04296875 C29.84823944 -0.4159858 32.05057775 -0.53875905 35.05078125 -0.33203125 C35.79585937 -0.30496094 36.5409375 -0.27789062 37.30859375 -0.25 C39.14057118 -0.17953933 40.97105276 -0.07192118 42.80078125 0.04296875 C38.13462751 9.6041339 33.25415186 18.98804314 27.9765625 28.2265625 C27.62964355 28.84837402 27.28272461 29.47018555 26.92529297 30.11083984 C26.1460612 31.44971093 25.31512146 32.75929507 24.44580078 34.04150391 C20.17684356 40.69107919 20.05940516 46.78145279 20.05078125 54.54296875 C20.01780569 56.88677034 19.98153793 59.23052877 19.94140625 61.57421875 C19.93657227 62.60095703 19.93173828 63.62769531 19.92675781 64.68554688 C19.80078125 67.04296875 19.80078125 67.04296875 18.80078125 68.04296875 C16.78113926 68.11540928 14.75911001 68.12674063 12.73828125 68.10546875 C11.63355469 68.09644531 10.52882812 68.08742188 9.390625 68.078125 C8.53597656 68.06652344 7.68132812 68.05492187 6.80078125 68.04296875 C4.86709775 64.81375947 4.63592714 62.68998617 4.921875 58.96484375 C5.64529547 45.55643112 4.81978802 36.66847576 -3.05810547 25.65185547 C-4.63846631 23.42366164 -6.00792825 21.08728131 -7.38671875 18.73046875 C-7.84691406 17.96992188 -8.30710937 17.209375 -8.78125 16.42578125 C-10.41902595 13.67359577 -12.0092774 10.8997463 -13.57421875 8.10546875 C-14.07695313 7.20957031 -14.5796875 6.31367188 -15.09765625 5.390625 C-16.19921875 3.04296875 -16.19921875 3.04296875 -16.19921875 0.04296875 C-13.95137451 -0.20645782 -11.70074369 -0.43086613 -9.44921875 -0.64453125 C-8.19625 -0.77214844 -6.94328125 -0.89976562 -5.65234375 -1.03125 C-2.19921875 -0.95703125 -2.19921875 -0.95703125 0 0 Z " fill="#1D1C1C" transform="translate(133.19921875,176.95703125)"/>
<path d="M0 0 C6.7134375 -0.0928125 6.7134375 -0.0928125 13.5625 -0.1875 C14.96056885 -0.21481201 16.3586377 -0.24212402 17.79907227 -0.27026367 C29.61195074 -0.34932792 29.61195074 -0.34932792 35 3 C38.94232209 7.447748 40.30450169 13.04388485 40.21875 18.875 C39.75076552 23.42113499 37.90448288 26.92592658 35 30.375 C33 32 33 32 30 33 C31.29097692 35.10459261 32.58275359 37.20868708 33.875 39.3125 C34.23980469 39.90740234 34.60460937 40.50230469 34.98046875 41.11523438 C36.61411539 43.77362299 38.26895824 46.40343737 40 49 C40 50.32 40 51.64 40 53 C35.71 53 31.42 53 27 53 C23 46.375 23 46.375 23 43 C22.34 43 21.68 43 21 43 C20.76925781 42.43410156 20.53851563 41.86820312 20.30078125 41.28515625 C19.81158203 40.18494141 19.81158203 40.18494141 19.3125 39.0625 C18.99925781 38.33160156 18.68601563 37.60070312 18.36328125 36.84765625 C16.87069636 34.39121376 16.87069636 34.39121376 12 34 C12 40.27 12 46.54 12 53 C8.04 53 4.08 53 0 53 C0 35.51 0 18.02 0 0 Z M12 11 C12 15.29 12 19.58 12 24 C14.6296875 24.061875 14.6296875 24.061875 17.3125 24.125 C18.79169922 24.15980469 18.79169922 24.15980469 20.30078125 24.1953125 C23.22406527 24.20682639 23.22406527 24.20682639 26 22 C26.80184346 18.66926563 27.18564255 16.00777384 26.5625 12.625 C24.40142382 10.37748077 22.18256795 10.2895089 19.16796875 9.98046875 C16.50452365 9.93679072 16.50452365 9.93679072 12 11 Z " fill="#1A1A1A" transform="translate(212,263)"/>
<path d="M0 0 C1.3126609 0.03541649 1.3126609 0.03541649 2.65184021 0.07154846 C5.41262494 0.14735662 8.17306824 0.23173051 10.93359375 0.31640625 C12.81964545 0.36971018 14.70571318 0.4224498 16.59179688 0.47460938 C21.18510687 0.60285769 25.77813133 0.73878197 30.37109375 0.87890625 C30.37109375 5.16890625 30.37109375 9.45890625 30.37109375 13.87890625 C24.76109375 13.87890625 19.15109375 13.87890625 13.37109375 13.87890625 C13.37109375 32.02890625 13.37109375 50.17890625 13.37109375 68.87890625 C0.37109375 68.87890625 0.37109375 68.87890625 -1.62890625 67.87890625 C-1.62890625 50.05890625 -1.62890625 32.23890625 -1.62890625 13.87890625 C-7.23890625 13.87890625 -12.84890625 13.87890625 -18.62890625 13.87890625 C-18.62890625 9.58890625 -18.62890625 5.29890625 -18.62890625 0.87890625 C-12.33986274 0.06003474 -6.33248346 -0.20663752 0 0 Z " fill="#1C1C1C" transform="translate(200.62890625,176.12109375)"/>
<path d="M0 0 C1.11246094 0.15984375 2.22492188 0.3196875 3.37109375 0.484375 C6.67357946 1.27664819 8.83822111 2.23933753 11.5625 4.25 C14.23945325 8.97928408 14.97586929 11.9819872 13.5625 17.25 C12.304375 17.435625 11.04625 17.62125 9.75 17.8125 C9.04230469 17.91691406 8.33460938 18.02132813 7.60546875 18.12890625 C5.5625 18.25 5.5625 18.25 2.5625 17.25 C2.2325 15.27 1.9025 13.29 1.5625 11.25 C-1.0775 10.92 -3.7175 10.59 -6.4375 10.25 C-7.9225 12.725 -7.9225 12.725 -9.4375 15.25 C-6.78466031 19.22925954 -3.69224219 19.68560478 0.6875 20.9375 C1.44160156 21.16244141 2.19570313 21.38738281 2.97265625 21.61914062 C4.83305343 22.17254991 6.69742421 22.71256928 8.5625 23.25 C8.5625 23.91 8.5625 24.57 8.5625 25.25 C9.160625 25.3325 9.75875 25.415 10.375 25.5 C13.21275411 26.47294427 14.05926067 27.69449313 15.5625 30.25 C15.5625 31.24 15.5625 32.23 15.5625 33.25 C16.2225 33.25 16.8825 33.25 17.5625 33.25 C18.2967166 40.00479274 15.83841952 44.43524285 12.5625 50.25 C11.9025 50.25 11.2425 50.25 10.5625 50.25 C10.5625 50.91 10.5625 51.57 10.5625 52.25 C4.51207287 55.83326267 -4.08614236 56.01691279 -10.875 54.625 C-15.63407022 52.78816588 -18.68645161 50.55820015 -21.8125 46.4375 C-22.78880408 43.02043572 -22.55564819 39.79444557 -22.4375 36.25 C-18.4775 36.25 -14.5175 36.25 -10.4375 36.25 C-9.7775 38.56 -9.1175 40.87 -8.4375 43.25 C-7.00094146 43.33131463 -5.5630517 43.38933559 -4.125 43.4375 C-3.32449219 43.47230469 -2.52398437 43.50710938 -1.69921875 43.54296875 C0.61905367 43.41569519 0.61905367 43.41569519 2.41796875 41.98828125 C3.75052142 40.31031205 3.75052142 40.31031205 3.56640625 38.19140625 C2.69348566 36.04737539 2.69348566 36.04737539 0.33984375 35.08984375 C-0.59730469 34.79207031 -1.53445313 34.49429688 -2.5 34.1875 C-3.49257813 33.85621094 -4.48515625 33.52492188 -5.5078125 33.18359375 C-6.47460938 32.87550781 -7.44140625 32.56742187 -8.4375 32.25 C-14.34566259 30.3098608 -18.49727314 28.64539701 -21.6875 23.0625 C-23.21943116 17.31775816 -23.2033711 11.60887525 -20.4375 6.25 C-19.7775 6.25 -19.1175 6.25 -18.4375 6.25 C-18.4375 5.59 -18.4375 4.93 -18.4375 4.25 C-17.19014433 3.5990741 -15.93948168 2.95448331 -14.6875 2.3125 C-13.99140625 1.95285156 -13.2953125 1.59320313 -12.578125 1.22265625 C-8.05527754 -0.8324332 -4.9374191 -0.75345586 0 0 Z " fill="#201F1F" transform="translate(348.4375,261.75)"/>
<path d="M0 0 C4.16876564 3.87792152 5.52373044 7.87968701 5.875 13.5 C5.7821875 14.49 5.7821875 14.49 5.6875 15.5 C1.60306885 17.03166168 -2.10705657 16.13081652 -6.3125 15.5 C-6.745625 14.324375 -6.745625 14.324375 -7.1875 13.125 C-8.16162254 10.40328368 -8.16162254 10.40328368 -10.3125 8.5 C-13.4038386 8.26220472 -15.34354944 8.51034981 -18.3125 9.5 C-18.73030879 11.87305578 -18.73030879 11.87305578 -18.3125 14.5 C-14.88185359 16.97803497 -11.47854888 18.16316272 -7.4375 19.3125 C-1.01103096 21.38606513 3.58398523 24.02462777 7.125 29.875 C8.48709038 36.23142179 8.17967439 41.06750259 5.015625 46.73828125 C1.93396819 50.82600837 -1.93312107 52.2044188 -6.8125 53.25 C-7.9675 53.3325 -9.1225 53.415 -10.3125 53.5 C-11.42625 53.5825 -12.54 53.665 -13.6875 53.75 C-18.23439159 53.43642127 -22.07701135 52.11351948 -26.3125 50.5 C-26.3125 49.84 -26.3125 49.18 -26.3125 48.5 C-26.9725 48.5 -27.6325 48.5 -28.3125 48.5 C-31.75669134 39.08997722 -31.75669134 39.08997722 -31.3125 34.5 C-23.37839674 32.94429348 -23.37839674 32.94429348 -19.3125 35.5 C-18.125 38.0625 -18.125 38.0625 -17.3125 40.5 C-14.51379973 41.89935013 -12.40751208 41.75265405 -9.3125 41.5 C-7.35209519 40.37359395 -7.35209519 40.37359395 -6.3125 38.5 C-6.3125 37.18 -6.3125 35.86 -6.3125 34.5 C-6.99054688 34.26925781 -7.66859375 34.03851563 -8.3671875 33.80078125 C-28.20909783 26.84786807 -28.20909783 26.84786807 -31.3125 20.5 C-32.22628989 14.18947455 -31.50333565 9.00144077 -28.3125 3.5 C-21.71581603 -2.76684977 -8.34375751 -4.09078392 0 0 Z " fill="#202020" transform="translate(93.3125,263.5)"/>
<path d="M0 0 C4.53897705 -0.02465392 9.07791543 -0.04283789 13.61694336 -0.05493164 C15.16219766 -0.0599714 16.70744716 -0.0668032 18.25268555 -0.07543945 C20.46925029 -0.08752076 22.68575218 -0.09323173 24.90234375 -0.09765625 C25.5971434 -0.10281754 26.29194305 -0.10797882 27.00779724 -0.11329651 C28.6722933 -0.11349277 30.33665499 -0.06189129 32 0 C34.60341656 2.60341656 33 7.31821299 33 11 C26.07 11 19.14 11 12 11 C12 14.3 12 17.6 12 21 C18.27 21 24.54 21 31 21 C31 24.96 31 28.92 31 33 C26.64220019 33.87155996 23.09253894 34.10366859 18.6875 34.0625 C17.43324219 34.05347656 16.17898438 34.04445313 14.88671875 34.03515625 C13.93410156 34.02355469 12.98148437 34.01195312 12 34 C12 36.97 12 39.94 12 43 C19.26 43 26.52 43 34 43 C34 46.63 34 50.26 34 54 C22.78 54 11.56 54 0 54 C-0.90530671 35.89386574 -0.90327361 18.10234057 0 0 Z " fill="#171717" transform="translate(286,262)"/>
<path d="M0 0 C13.2 0 26.4 0 40 0 C40 3.3 40 6.6 40 10 C39 11 39 11 36.05859375 11.09765625 C34.26615234 11.08025391 34.26615234 11.08025391 32.4375 11.0625 C30.64119141 11.04896484 30.64119141 11.04896484 28.80859375 11.03515625 C27.88175781 11.02355469 26.95492187 11.01195312 26 11 C26.03029297 11.7748877 26.06058594 12.54977539 26.09179688 13.34814453 C26.23063556 16.94032857 26.36533264 20.53265725 26.5 24.125 C26.54769531 25.34316406 26.59539062 26.56132812 26.64453125 27.81640625 C26.95580801 36.22087865 27.04329459 44.59002678 27 53 C22.71 53 18.42 53 14 53 C14 39.14 14 25.28 14 11 C9.38 11 4.76 11 0 11 C-1 5 -1 5 0 0 Z " fill="#191919" transform="translate(106,263)"/>
<path d="M0 0 C0.33 0 0.66 0 1 0 C1.00808685 0.74866837 1.01617371 1.49733673 1.02450562 2.26869202 C1.10264263 9.34512247 1.18999007 16.42136647 1.28752708 23.49755192 C1.33734394 27.13496698 1.3836744 30.77235504 1.421875 34.40991211 C1.45891352 37.92433906 1.505322 41.43853176 1.55806351 44.95275688 C1.58544908 46.93726278 1.60328193 48.92189312 1.62094116 50.9065094 C1.74697922 58.64992843 2.43946343 64.84244128 5.625 71.9375 C6.07875 72.948125 6.5325 73.95875 7 75 C7.33 73.35 7.66 71.7 8 70 C9.50240234 70.23783203 9.50240234 70.23783203 11.03515625 70.48046875 C15.10991956 70.99239171 19.14107182 71.10712839 23.24609375 71.17578125 C24.23508163 71.19365189 24.23508163 71.19365189 25.24404907 71.21188354 C28.00133623 71.26078259 30.75818199 71.30811113 33.51586914 71.32592773 C41.70955414 71.38891881 48.79837869 71.68991065 56 76 C56 76.66 56 77.32 56 78 C56.66 78 57.32 78 58 78 C59.25390625 79.64453125 59.25390625 79.64453125 60.5625 81.8125 C60.99691406 82.52019531 61.43132812 83.22789062 61.87890625 83.95703125 C64.3310505 88.42557287 64.08132033 92.0394599 64 97 C63.67 97 63.34 97 63 97 C62.86722656 96.39671875 62.73445313 95.7934375 62.59765625 95.171875 C62.42105469 94.37265625 62.24445313 93.5734375 62.0625 92.75 C61.88847656 91.96109375 61.71445312 91.1721875 61.53515625 90.359375 C61.052444 88.23121297 60.53836822 86.11467158 60 84 C59.01 84 58.02 84 57 84 C57 84.66 57 85.32 57 86 C56.34 86 55.68 86 55 86 C55 86.99 55 87.98 55 89 C54.34 89 53.68 89 53 89 C53.16371094 89.55171875 53.32742188 90.1034375 53.49609375 90.671875 C54.05760414 93.26614007 54.09739008 95.59835411 54.0625 98.25 C54.05347656 99.14203125 54.04445313 100.0340625 54.03515625 100.953125 C54.02355469 101.62859375 54.01195312 102.3040625 54 103 C54.66 103 55.32 103 56 103 C56.06058594 103.86882812 56.12117188 104.73765625 56.18359375 105.6328125 C56.26738281 106.78523438 56.35117187 107.93765625 56.4375 109.125 C56.51871094 110.26195312 56.59992188 111.39890625 56.68359375 112.5703125 C56.97730965 115.7540478 57.43124313 118.85510907 58 122 C60.64 122.33 63.28 122.66 66 123 C65.67 123.66 65.34 124.32 65 125 C62.69 125 60.38 125 58 125 C58 124.34 58 123.68 58 123 C57.34 123 56.68 123 56 123 C54.68854422 117.61411849 53.73419486 112.3822121 53.34375 106.84765625 C53.1352612 104.75803287 53.1352612 104.75803287 51 103 C50.85805622 99.99700183 51.00562093 97.04609843 51.125 94.04296875 C50.99304568 90.8307058 50.60116799 88.78703303 49 86 C45.59717935 84.73014273 42.14310449 84.85945105 38.546875 84.82421875 C37.28746094 84.80037109 36.02804687 84.77652344 34.73046875 84.75195312 C32.09260862 84.70923998 29.454539 84.67785158 26.81640625 84.65820312 C19.44057788 84.49655143 14.27451785 83.98925564 8 80 C8 79.34 8 78.68 8 78 C7.34 78 6.68 78 6 78 C1.30584423 71.69222818 -0.32256253 66.54593506 -0.65234375 58.76171875 C-0.69101059 57.94023849 -0.72967743 57.11875824 -0.76951599 56.27238464 C-1.21410079 45.11835223 -0.85692394 33.96621821 -0.5625 22.8125 C-0.50910447 20.5866043 -0.4563663 18.36069274 -0.40429688 16.13476562 C-0.27708238 10.75630452 -0.14185634 5.37809385 0 0 Z " fill="#FDC103" transform="translate(311,176)"/>
<path d="M0 0 C3.63 0 7.26 0 11 0 C11 17.82 11 35.64 11 54 C7.04 54 3.08 54 -1 54 C-1.02464032 46.47029868 -1.04283141 38.94062061 -1.05493164 31.41088867 C-1.0599737 28.84708243 -1.06680714 26.28327909 -1.07543945 23.71948242 C-1.08751064 20.04344979 -1.09322942 16.36745502 -1.09765625 12.69140625 C-1.10281754 11.53725723 -1.10797882 10.38310822 -1.11329651 9.19398499 C-1.11337204 8.13296066 -1.11344757 7.07193634 -1.11352539 5.97875977 C-1.115746 5.03944107 -1.11796661 4.10012238 -1.12025452 3.13233948 C-1 1 -1 1 0 0 Z " fill="#161516" transform="translate(263,262)"/>
<path d="M0 0 C0.70189453 0.01353516 1.40378906 0.02707031 2.12695312 0.04101562 C3.85579829 0.07629818 5.58424765 0.13010417 7.3125 0.1875 C8.91198768 3.38647536 8.17946809 6.76868406 7.9375 10.25 C7.89367187 10.99572266 7.84984375 11.74144531 7.8046875 12.50976562 C7.4418504 18.0581496 7.4418504 18.0581496 6.3125 19.1875 C3.6351862 19.28731214 0.98945825 19.32629875 -1.6875 19.3125 C-2.81285156 19.31830078 -2.81285156 19.31830078 -3.9609375 19.32421875 C-9.56088947 19.31411053 -9.56088947 19.31411053 -10.6875 18.1875 C-10.84099136 15.71392763 -10.91909885 13.28745481 -10.9375 10.8125 C-10.958125 10.12671875 -10.97875 9.4409375 -11 8.734375 C-11.02167593 5.94901753 -10.96522289 3.71464948 -9.65234375 1.22265625 C-6.55099553 -0.41125484 -3.40990294 -0.12417014 0 0 Z " fill="#FDC003" transform="translate(401.6875,214.8125)"/>
<path d="M0 0 C1.89105469 -0.00386719 1.89105469 -0.00386719 3.8203125 -0.0078125 C6.875 0.125 6.875 0.125 7.875 1.125 C8.1397362 3.58998814 8.34377097 6.02790535 8.5 8.5 C8.57734375 9.52867187 8.57734375 9.52867187 8.65625 10.578125 C8.86771869 13.77503406 8.8985314 16.05440579 7.875 19.125 C1.935 19.125 -4.005 19.125 -10.125 19.125 C-10.125 13.185 -10.125 7.245 -10.125 1.125 C-6.59115441 -0.05294853 -3.72222447 -0.00764317 0 0 Z " fill="#FBC005" transform="translate(381.125,183.875)"/>
<path d="M0 0 C4.47894321 -0.11712011 8.95748714 -0.1875608 13.4375 -0.25 C14.69755859 -0.28351563 15.95761719 -0.31703125 17.25585938 -0.3515625 C24.76394825 -0.42997596 30.47823267 0.12213332 37 4 C37 4.66 37 5.32 37 6 C37.66 6 38.32 6 39 6 C40.25390625 7.64453125 40.25390625 7.64453125 41.5625 9.8125 C41.99691406 10.52019531 42.43132812 11.22789062 42.87890625 11.95703125 C45.3310505 16.42557287 45.08132033 20.0394599 45 25 C44.67 25 44.34 25 44 25 C43.80083984 24.09507812 43.80083984 24.09507812 43.59765625 23.171875 C43.42105469 22.37265625 43.24445313 21.5734375 43.0625 20.75 C42.88847656 19.96109375 42.71445312 19.1721875 42.53515625 18.359375 C42.052444 16.23121297 41.53836822 14.11467158 41 12 C40.01 12 39.02 12 38 12 C38 12.66 38 13.32 38 14 C37.34 14 36.68 14 36 14 C36 14.99 36 15.98 36 17 C35.34 17 34.68 17 34 17 C34.24556641 17.82757813 34.24556641 17.82757813 34.49609375 18.671875 C35.05760414 21.26614007 35.09739008 23.59835411 35.0625 26.25 C35.05347656 27.14203125 35.04445313 28.0340625 35.03515625 28.953125 C35.02355469 29.62859375 35.01195312 30.3040625 35 31 C35.66 31 36.32 31 37 31 C37.06058594 31.86882812 37.12117188 32.73765625 37.18359375 33.6328125 C37.26738281 34.78523438 37.35117187 35.93765625 37.4375 37.125 C37.51871094 38.26195312 37.59992188 39.39890625 37.68359375 40.5703125 C37.97730965 43.7540478 38.43124313 46.85510907 39 50 C41.64 50.33 44.28 50.66 47 51 C46.505 51.99 46.505 51.99 46 53 C43.69 53 41.38 53 39 53 C39 52.34 39 51.68 39 51 C38.34 51 37.68 51 37 51 C35.68854422 45.61411849 34.73419486 40.3822121 34.34375 34.84765625 C34.1352612 32.75803287 34.1352612 32.75803287 32 31 C31.85805622 27.99700183 32.00562093 25.04609843 32.125 22.04296875 C31.99458933 18.868284 31.45095705 16.81185471 30 14 C27.98264795 12.65589738 27.98264795 12.65589738 26 12 C27.32 12 28.64 12 30 12 C30 11.34 30 10.68 30 10 C29.34 9.67 28.68 9.34 28 9 C28.33 8.34 28.66 7.68 29 7 C26.525 6.505 26.525 6.505 24 6 C24.66 5.67 25.32 5.34 26 5 C26 4.34 26 3.68 26 3 C24.06447266 3.03480469 24.06447266 3.03480469 22.08984375 3.0703125 C20.37240166 3.08908236 18.65495326 3.10728125 16.9375 3.125 C16.08994141 3.14175781 15.24238281 3.15851563 14.36914062 3.17578125 C9.16581799 3.21596135 4.92530179 2.69745815 0 1 C0 0.67 0 0.34 0 0 Z " fill="#FCC106" transform="translate(330,248)"/>
<path d="M0 0 C-0.33 1.32 -0.66 2.64 -1 4 C-0.01 4.33 0.98 4.66 2 5 C2 5.66 2 6.32 2 7 C0.2984375 7.2165625 0.2984375 7.2165625 -1.4375 7.4375 C-4.80777201 7.61171478 -4.80777201 7.61171478 -6 9 C-7.61208638 9.06274532 -9.22685548 9.05941083 -10.83984375 9.02734375 C-11.82017578 9.01509766 -12.80050781 9.00285156 -13.81054688 8.99023438 C-15.8913468 8.95514281 -17.97208385 8.91609482 -20.05273438 8.87304688 C-21.52516602 8.85661133 -21.52516602 8.85661133 -23.02734375 8.83984375 C-23.93218506 8.82300537 -24.83702637 8.80616699 -25.76928711 8.78881836 C-28.20523867 8.78036174 -28.20523867 8.78036174 -30 11 C-30.3125 7.6875 -30.3125 7.6875 -30 4 C-25.6090822 0.09798691 -20.02845889 0.19390912 -14.4375 -0.25 C-13.49197266 -0.34023438 -12.54644531 -0.43046875 -11.57226562 -0.5234375 C-3.93775055 -1.19246921 -3.93775055 -1.19246921 0 0 Z M-33 8 C-31.25 9.4375 -31.25 9.4375 -30 11 C-30.7115625 12.0828125 -30.7115625 12.0828125 -31.4375 13.1875 C-32.94152903 15.89475226 -33.56599182 17.96194275 -34 21 C-35.98 21 -37.96 21 -40 21 C-41.125 13.25 -41.125 13.25 -40 11 C-39.01 11 -38.02 11 -37 11 C-37 10.34 -37 9.68 -37 9 C-35.1875 8.3125 -35.1875 8.3125 -33 8 Z " fill="#FDC003" transform="translate(430,260)"/>
<path d="M0 0 C5.28 0 10.56 0 16 0 C17.75185776 5.25557328 18.21992221 7.16147544 17.6875 12.3125 C17.58824219 13.36050781 17.48898437 14.40851563 17.38671875 15.48828125 C17 18 17 18 16 19 C13.3013095 19.07325436 10.63497444 19.09222351 7.9375 19.0625 C5.318125 19.041875 2.69875 19.02125 0 19 C0 12.73 0 6.46 0 0 Z " fill="#F9C014" transform="translate(371,229)"/>
<path d="M0 0 C5.61 0 11.22 0 17 0 C18.41514574 2.83029148 18.20780992 5.28379133 18.25 8.4375 C18.27578125 9.59121094 18.3015625 10.74492187 18.328125 11.93359375 C18 15 18 15 16.9296875 16.89453125 C13.93638466 18.6093181 11.28445265 18.32000929 7.875 18.25 C6.61429687 18.23453125 5.35359375 18.2190625 4.0546875 18.203125 C1 18 1 18 0 17 C-0.07330331 14.13530675 -0.09217831 11.30106326 -0.0625 8.4375 C-0.041875 5.653125 -0.02125 2.86875 0 0 Z " fill="#FCC006" transform="translate(350,205)"/>
<path d="M0 0 C1.29351379 -0.00744736 1.29351379 -0.00744736 2.61315918 -0.01504517 C5.4652588 -0.02964501 8.31730274 -0.03646649 11.16943359 -0.04199219 C13.15758261 -0.04774706 15.14573162 -0.05350475 17.13388062 -0.05926514 C21.30507668 -0.06977006 25.47625351 -0.07561552 29.64746094 -0.07910156 C34.97347898 -0.08457392 40.29923978 -0.10857719 45.62517738 -0.13707352 C49.73461632 -0.15576881 53.84399428 -0.16090924 57.95347214 -0.16243744 C59.91572851 -0.16545082 61.87798415 -0.1734346 63.84019852 -0.18662262 C83.55099846 -0.30960227 83.55099846 -0.30960227 91.44287109 3.16113281 C88.5805564 3.97965394 86.06497831 4.27878144 83.09194946 4.25447083 C82.2284639 4.25006485 81.36497833 4.24565887 80.47532654 4.24111938 C79.53600784 4.23123993 78.59668915 4.22136047 77.62890625 4.21118164 C76.63334213 4.2049025 75.63777802 4.19862335 74.61204529 4.19215393 C72.45073722 4.17830719 70.28944175 4.16237233 68.12816238 4.14460182 C64.70689312 4.11796914 61.28568846 4.10009604 57.86434937 4.08512878 C48.13682355 4.04236937 38.40942606 3.99467091 28.68212891 3.91430664 C22.73179273 3.86578467 16.78163539 3.83678844 10.83112717 3.82056236 C8.56409749 3.81066262 6.29708748 3.79344928 4.03017044 3.76877785 C0.85843356 3.73502701 -2.31248078 3.72614568 -5.484375 3.72290039 C-6.88728035 3.69897217 -6.88728035 3.69897217 -8.31852722 3.67456055 C-14.04283533 3.70125804 -17.12599924 4.47369703 -21.55712891 8.16113281 C-22.21712891 7.83113281 -22.87712891 7.50113281 -23.55712891 7.16113281 C-21.41541349 4.772553 -19.64130081 3.59168806 -16.61962891 2.53613281 C-15.95060547 2.29636719 -15.28158203 2.05660156 -14.59228516 1.80957031 C-9.6787187 0.24401939 -5.14354366 0.00708556 0 0 Z " fill="#F5CA49" transform="translate(341.55712890625,157.8388671875)"/>
<path d="M0 0 C1.64586251 2.38858024 3.15128059 4.75849313 4.625 7.25 C5.04523438 7.93191406 5.46546875 8.61382812 5.8984375 9.31640625 C6.29546875 9.98027344 6.6925 10.64414062 7.1015625 11.328125 C7.46588379 11.9355957 7.83020508 12.54306641 8.20556641 13.16894531 C9 15 9 15 9 19 C4.71 19 0.42 19 -4 19 C-9.57142857 8.42857143 -9.57142857 8.42857143 -10 3 C-8.68 3 -7.36 3 -6 3 C-6 2.34 -6 1.68 -6 1 C-3.92446352 0.4465236 -2.15634036 0 0 0 Z " fill="#1B1B1B" transform="translate(243,297)"/>
<path d="M0 0 C3.96 0 7.92 0 12 0 C12.28875 1.134375 12.5775 2.26875 12.875 3.4375 C13.24625 4.613125 13.6175 5.78875 14 7 C14.66 7.33 15.32 7.66 16 8 C14.35 9.65 12.7 11.3 11 13 C11 12.34 11 11.68 11 11 C10.34 10.67 9.68 10.34 9 10 C9 10.66 9 11.32 9 12 C8.34 12 7.68 12 7 12 C6.67 12.99 6.34 13.98 6 15 C2.9730188 12.98201253 1.13493262 11.49937557 0 8 C-0.15496153 5.3088348 -0.09001607 2.700482 0 0 Z " fill="#2D2D2D" transform="translate(326,298)"/>
<path d="M0 0 C12.28282127 -0.04635344 24.5656217 -0.08188457 36.84851265 -0.10362434 C42.55203467 -0.11405866 48.25549681 -0.12821158 53.95898438 -0.15087891 C59.46381086 -0.17261963 64.96857978 -0.18457127 70.47344589 -0.18975449 C72.57297548 -0.19344802 74.67250193 -0.20066053 76.77200699 -0.21146011 C79.71412195 -0.22599122 82.65599942 -0.22797724 85.59814453 -0.22705078 C86.46489304 -0.23424133 87.33164154 -0.24143188 88.22465515 -0.24884033 C92.88615817 -0.23297094 96.61401607 0.20768841 101 2 C101.33 1.34 101.66 0.68 102 0 C102.495 3.465 102.495 3.465 103 7 C101.30729167 5.99088542 99.61458333 4.98177083 97.921875 3.97265625 C93.2957069 1.63136386 88.53514428 1.84587789 83.45532227 1.83886719 C82.59470184 1.83390228 81.73408142 1.82893738 80.84738159 1.82382202 C78.00371499 1.80923059 75.16010412 1.80240429 72.31640625 1.796875 C70.33869933 1.79112213 68.36099242 1.78536442 66.38328552 1.77960205 C62.23818706 1.76910141 58.09310794 1.76325225 53.94799805 1.75976562 C48.63718183 1.75427546 43.32662129 1.73023231 38.01588535 1.70179367 C33.93152619 1.68317166 29.84722876 1.67796198 25.76283073 1.67642975 C23.80481502 1.67340294 21.8468004 1.66537346 19.88882637 1.65224457 C17.15037657 1.63518936 14.41255363 1.63706274 11.67407227 1.64355469 C10.8661171 1.6343399 10.05816193 1.62512512 9.22572327 1.6156311 C4.57840618 1.65014212 1.78710562 2.31318391 -2 5 C-2.66 5 -3.32 5 -4 5 C-4.99 8.465 -4.99 8.465 -6 12 C-6.33 12 -6.66 12 -7 12 C-6.67 8.7 -6.34 5.4 -6 2 C-4.02 2 -2.04 2 0 2 C0 1.34 0 0.68 0 0 Z " fill="#F0BC24" transform="translate(329,169)"/>
<path d="M0 0 C-0.52268466 2.76276177 -1.10869587 5.3260876 -2 8 C-2.515625 7.814375 -3.03125 7.62875 -3.5625 7.4375 C-6.85908739 6.84580483 -9.72245735 7.432733 -13 8 C-13.33 7.01 -13.66 6.02 -14 5 C-15.65 5.66 -17.3 6.32 -19 7 C-19.33 5.35 -19.66 3.7 -20 2 C-19.34 2 -18.68 2 -18 2 C-18 1.34 -18 0.68 -18 0 C-12.42430109 -2.49439162 -5.57545006 -2.78772503 0 0 Z " fill="#191817" transform="translate(354,263)"/>
<path d="M0 0 C0.66 0.33 1.32 0.66 2 1 C-1.10145517 3.06763678 -2.17190644 3.30428222 -5.74609375 3.5625 C-6.66583984 3.63726562 -7.58558594 3.71203125 -8.53320312 3.7890625 C-9.97083008 3.89347656 -9.97083008 3.89347656 -11.4375 4 C-13.33260352 4.13819796 -15.22718765 4.28376095 -17.12109375 4.4375 C-18.38070923 4.52837891 -18.38070923 4.52837891 -19.66577148 4.62109375 C-22.19263815 5.0312702 -23.88428794 5.55295377 -26 7 C-26.81870185 10.56206661 -26.81870185 10.56206661 -27 14 C-27.99 13.34 -28.98 12.68 -30 12 C-30.99 12.495 -30.99 12.495 -32 13 C-32.66 12.67 -33.32 12.34 -34 12 C-34 12.66 -34 13.32 -34 14 C-34.99 14 -35.98 14 -37 14 C-37 14.66 -37 15.32 -37 16 C-37.66 15.67 -38.32 15.34 -39 15 C-38.67 14.34 -38.34 13.68 -38 13 C-37.34 13 -36.68 13 -36 13 C-36 12.34 -36 11.68 -36 11 C-35.34 11 -34.68 11 -34 11 C-34 10.34 -34 9.68 -34 9 C-33.34 9 -32.68 9 -32 9 C-32 8.34 -32 7.68 -32 7 C-31.34 7 -30.68 7 -30 7 C-30 6.34 -30 5.68 -30 5 C-29.34 5 -28.68 5 -28 5 C-28 4.34 -28 3.68 -28 3 C-24.89487344 1.18647728 -22.6997052 0.76808612 -19.12109375 0.83984375 C-18.20005859 0.85080078 -17.27902344 0.86175781 -16.33007812 0.87304688 C-14.89825195 0.90495117 -14.89825195 0.90495117 -13.4375 0.9375 C-11.54044092 0.97194559 -9.64329737 1.00208316 -7.74609375 1.02734375 C-6.90747803 1.04531006 -6.0688623 1.06327637 -5.20483398 1.08178711 C-2.82217058 1.09674782 -2.82217058 1.09674782 0 0 Z " fill="#F7D034" transform="translate(427,257)"/>
<path d="M0 0 C0.66 0 1.32 0 2 0 C2.01030746 0.69046921 2.02061493 1.38093842 2.03123474 2.09233093 C2.13941441 9.27868906 2.25400321 16.46492472 2.37231445 23.65112305 C2.41614094 26.33306042 2.45769628 29.01501872 2.49731445 31.69702148 C2.55510707 35.55200307 2.61877607 39.40684967 2.68359375 43.26171875 C2.70030624 44.46084396 2.71701874 45.65996918 2.73423767 46.89543152 C2.75418289 48.01621597 2.77412811 49.13700043 2.79467773 50.29174805 C2.81022202 51.27547897 2.8257663 52.2592099 2.84178162 53.27275085 C2.99629508 55.93613732 3.40938182 58.40164631 4 61 C3.01 60.67 2.02 60.34 1 60 C-0.31857548 57.36284904 -0.11991704 55.4016736 -0.11352539 52.44873047 C-0.11344986 51.28767792 -0.11337433 50.12662537 -0.11329651 48.9303894 C-0.10813522 47.67203278 -0.10297394 46.41367615 -0.09765625 45.1171875 C-0.0962413 43.83264679 -0.09482635 42.54810608 -0.09336853 41.22463989 C-0.08954911 37.80843158 -0.07972373 34.39226574 -0.06866455 30.97607422 C-0.05843807 27.49056574 -0.05386826 24.0050504 -0.04882812 20.51953125 C-0.03810096 13.67967005 -0.02103142 6.83983706 0 0 Z " fill="#F8C83E" transform="translate(320,182)"/>
<path d="M0 0 C3.63 0 7.26 0 11 0 C11 16.83 11 33.66 11 51 C10.01 51.495 10.01 51.495 9 52 C9 35.5 9 19 9 2 C6.36 2 3.72 2 1 2 C0.67 2.99 0.34 3.98 0 5 C0 3.35 0 1.7 0 0 Z " fill="#0A0A0A" transform="translate(263,262)"/>
<path d="M0 0 C0.70189453 0.01353516 1.40378906 0.02707031 2.12695312 0.04101562 C3.85579829 0.07629818 5.58424765 0.13010417 7.3125 0.1875 C8.91198768 3.38647536 8.17946809 6.76868406 7.9375 10.25 C7.89367187 10.99572266 7.84984375 11.74144531 7.8046875 12.50976562 C7.4418504 18.0581496 7.4418504 18.0581496 6.3125 19.1875 C3.6351862 19.28731214 0.98945825 19.32629875 -1.6875 19.3125 C-2.81285156 19.31830078 -2.81285156 19.31830078 -3.9609375 19.32421875 C-9.56088947 19.31411053 -9.56088947 19.31411053 -10.6875 18.1875 C-10.84099136 15.71392763 -10.91909885 13.28745481 -10.9375 10.8125 C-10.958125 10.12671875 -10.97875 9.4409375 -11 8.734375 C-11.02167593 5.94901753 -10.96522289 3.71464948 -9.65234375 1.22265625 C-6.55099553 -0.41125484 -3.40990294 -0.12417014 0 0 Z M-8.6875 3.1875 C-8.76021741 5.54063555 -8.77120868 7.89583668 -8.75 10.25 C-8.729375 12.539375 -8.70875 14.82875 -8.6875 17.1875 C-3.7375 17.1875 1.2125 17.1875 6.3125 17.1875 C6.3125 12.2375 6.3125 7.2875 6.3125 2.1875 C4.023125 2.166875 1.73375 2.14625 -0.625 2.125 C-2.55666016 2.10759766 -2.55666016 2.10759766 -4.52734375 2.08984375 C-7.55048403 1.82217451 -7.55048403 1.82217451 -8.6875 3.1875 Z " fill="#EFC24A" transform="translate(401.6875,214.8125)"/>
<path d="M0 0 C0.87652222 0.02361099 1.75304443 0.04722198 2.65612793 0.07154846 C5.42719615 0.14748657 8.19793407 0.2318067 10.96875 0.31640625 C12.8593594 0.36969707 14.74998441 0.42243685 16.640625 0.47460938 C21.25020502 0.60300584 25.85950814 0.73891481 30.46875 0.87890625 C30.46875 4.50890625 30.46875 8.13890625 30.46875 11.87890625 C28.46875 8.87890625 28.46875 8.87890625 28.46875 2.87890625 C13.28875 2.87890625 -1.89125 2.87890625 -17.53125 2.87890625 C-17.53125 2.21890625 -17.53125 1.55890625 -17.53125 0.87890625 C-11.60545873 -0.00460781 -5.98109748 -0.19396299 0 0 Z " fill="#070707" transform="translate(200.53125,176.12109375)"/>
<path d="M0 0 C1.89105469 -0.00386719 1.89105469 -0.00386719 3.8203125 -0.0078125 C6.875 0.125 6.875 0.125 7.875 1.125 C8.1397362 3.58998814 8.34377097 6.02790535 8.5 8.5 C8.57734375 9.52867187 8.57734375 9.52867187 8.65625 10.578125 C8.86771869 13.77503406 8.8985314 16.05440579 7.875 19.125 C1.935 19.125 -4.005 19.125 -10.125 19.125 C-10.125 13.185 -10.125 7.245 -10.125 1.125 C-6.59115441 -0.05294853 -3.72222447 -0.00764317 0 0 Z M-8.125 2.125 C-8.15185095 4.60423801 -8.17176547 7.0831884 -8.1875 9.5625 C-8.19587891 10.26955078 -8.20425781 10.97660156 -8.21289062 11.70507812 C-8.22153588 13.51193559 -8.17720011 15.31887603 -8.125 17.125 C-6.98798403 18.49032549 -6.98798403 18.49032549 -3.96484375 18.22265625 C-2.67707031 18.21105469 -1.38929688 18.19945312 -0.0625 18.1875 C1.22785156 18.17847656 2.51820313 18.16945312 3.84765625 18.16015625 C4.84667969 18.14855469 5.84570312 18.13695312 6.875 18.125 C6.99536664 12.34740116 6.7070582 6.84540011 5.875 1.125 C1.09474517 1.00549363 -3.40116037 1.47343591 -8.125 2.125 Z " fill="#F0CA62" transform="translate(381.125,183.875)"/>
<path d="M0 0 C0.33 0 0.66 0 1 0 C1.00808685 0.74866837 1.01617371 1.49733673 1.02450562 2.26869202 C1.10264263 9.34512247 1.18999007 16.42136647 1.28752708 23.49755192 C1.33734394 27.13496698 1.3836744 30.77235504 1.421875 34.40991211 C1.45891352 37.92433906 1.505322 41.43853176 1.55806351 44.95275688 C1.58544908 46.93726278 1.60328193 48.92189312 1.62094116 50.9065094 C1.75048465 58.86529233 2.29080384 65.22633746 6.125 72.3125 C8 75.79562044 8 75.79562044 8 78 C7.34 78 6.68 78 6 78 C1.30584423 71.69222818 -0.32256253 66.54593506 -0.65234375 58.76171875 C-0.69101059 57.94023849 -0.72967743 57.11875824 -0.76951599 56.27238464 C-1.21410079 45.11835223 -0.85692394 33.96621821 -0.5625 22.8125 C-0.50910447 20.5866043 -0.4563663 18.36069274 -0.40429688 16.13476562 C-0.27708238 10.75630452 -0.14185634 5.37809385 0 0 Z " fill="#EEC74A" transform="translate(311,176)"/>
<path d="M0 0 C0.66 0.33 1.32 0.66 2 1 C2.625 4.0625 2.625 4.0625 3 7 C1.35 7.33 -0.3 7.66 -2 8 C-2.33 8.99 -2.66 9.98 -3 11 C-5.31 10.67 -7.62 10.34 -10 10 C-9.88637738 8.5199159 -9.75877092 7.04089926 -9.625 5.5625 C-9.55539063 4.73878906 -9.48578125 3.91507812 -9.4140625 3.06640625 C-9.27742188 2.38449219 -9.14078125 1.70257813 -9 1 C-6.01405576 -0.49297212 -3.29146376 -0.11755228 0 0 Z " fill="#161616" transform="translate(93,286)"/>
<path d="M0 0 C0.99 0.33 1.98 0.66 3 1 C-4.32695249 5.33776203 -10.12225394 5.51128903 -18.48632812 5.40039062 C-24.21728641 5.42779738 -24.21728641 5.42779738 -29 8.453125 C-29.66 9.29359375 -30.32 10.1340625 -31 11 C-33.3125 12.3125 -33.3125 12.3125 -35 13 C-35 13.66 -35 14.32 -35 15 C-35.66 15 -36.32 15 -37 15 C-36.69054036 10.66756503 -35.67264711 7.55962582 -32.78979492 4.23925781 C-28.98317873 1.60354866 -24.18174332 2.44540605 -19.75 2.6875 C-17.74490685 2.75729755 -15.73969847 2.82388528 -13.734375 2.88671875 C-12.40744629 2.95185669 -12.40744629 2.95185669 -11.05371094 3.01831055 C-9.00634888 3.23994038 -9.00634888 3.23994038 -8 2 C-5.66666667 1.66666667 -3.33333333 1.33333333 -1 1 C-0.67 0.67 -0.34 0.34 0 0 Z " fill="#F7C635" transform="translate(433,265)"/>
<path d="M0 0 C5.61 0 11.22 0 17 0 C18.41514574 2.83029148 18.20780992 5.28379133 18.25 8.4375 C18.27578125 9.59121094 18.3015625 10.74492187 18.328125 11.93359375 C18 15 18 15 16.9296875 16.89453125 C13.93638466 18.6093181 11.28445265 18.32000929 7.875 18.25 C6.61429687 18.23453125 5.35359375 18.2190625 4.0546875 18.203125 C1 18 1 18 0 17 C-0.07330331 14.13530675 -0.09217831 11.30106326 -0.0625 8.4375 C-0.041875 5.653125 -0.02125 2.86875 0 0 Z M1 1 C0.979375 3.289375 0.95875 5.57875 0.9375 7.9375 C0.92589844 9.22527344 0.91429687 10.51304687 0.90234375 11.83984375 C0.63467451 14.86298403 0.63467451 14.86298403 2 16 C4.35313555 16.07271741 6.70833668 16.08370868 9.0625 16.0625 C10.35285156 16.05347656 11.64320313 16.04445312 12.97265625 16.03515625 C13.97167969 16.02355469 14.97070312 16.01195312 16 16 C16.02693575 13.87506859 16.04636628 11.75004088 16.0625 9.625 C16.07410156 8.44164062 16.08570313 7.25828125 16.09765625 6.0390625 C16.21466593 3.08078479 16.21466593 3.08078479 15 1 C10.38 1 5.76 1 1 1 Z " fill="#F2CE51" transform="translate(350,205)"/>
<path d="M0 0 C0.33 0 0.66 0 1 0 C1 2.31 1 4.62 1 7 C15.85 6.505 15.85 6.505 31 6 C31.33 5.34 31.66 4.68 32 4 C32.495 6.475 32.495 6.475 33 9 C21.78 9 10.56 9 -1 9 C-0.67 6.03 -0.34 3.06 0 0 Z " fill="#202020" transform="translate(287,307)"/>
<path d="M0 0 C0.99 0 1.98 0 3 0 C3 0.66 3 1.32 3 2 C4.65 2 6.3 2 8 2 C8.33 3.65 8.66 5.3 9 7 C7.68 7 6.36 7 5 7 C4.67 8.32 4.34 9.64 4 11 C2.02 11 0.04 11 -2 11 C-2.66 9.35 -3.32 7.7 -4 6 C-3.67 5.67 -3.34 5.34 -3 5 C-2.319375 3.7315625 -2.319375 3.7315625 -1.625 2.4375 C-1.08875 1.633125 -0.5525 0.82875 0 0 Z " fill="#141213" transform="translate(336,280)"/>
<path d="M0 0 C4.75 0.75 4.75 0.75 7 3 C9.8835731 3.22893031 9.8835731 3.22893031 13.25 3.08984375 C14.4978125 3.06986328 15.745625 3.04988281 17.03125 3.02929688 C19.67717652 2.9680968 22.3230156 2.90299221 24.96875 2.83398438 C26.2165625 2.81529297 27.464375 2.79660156 28.75 2.77734375 C29.89984375 2.74890381 31.0496875 2.72046387 32.234375 2.69116211 C33.14703125 2.79307861 34.0596875 2.89499512 35 3 C35.66 3.99 36.32 4.98 37 6 C33.01659695 6.09973852 29.03368892 6.17187198 25.04931641 6.21972656 C23.03652373 6.24946045 21.02407866 6.30031729 19.01171875 6.3515625 C11.50579971 6.42699887 6.35926577 6.12054466 0 2 C0 1.34 0 0.68 0 0 Z " fill="#EFBE35" transform="translate(319,254)"/>
<path d="M0 0 C0.33 0 0.66 0 1 0 C1.04254356 1.99954746 1.04080783 4.00041636 1 6 C0.67 6.33 0.34 6.66 0 7 C-0.12344027 8.87096111 -0.17792394 10.74650928 -0.20532227 12.62133789 C-0.22526749 13.82250748 -0.24521271 15.02367706 -0.26576233 16.26124573 C-0.28247482 17.5685112 -0.29918732 18.87577667 -0.31640625 20.22265625 C-0.33696958 21.56644847 -0.35796588 22.91023412 -0.37937927 24.25401306 C-0.43466419 27.79674987 -0.48404498 31.33954567 -0.53222656 34.88238525 C-0.58239487 38.4952115 -0.63810525 42.10795172 -0.69335938 45.72070312 C-0.80101937 52.81372747 -0.9024468 59.90682888 -1 67 C-1.33 67 -1.66 67 -2 67 C-2.04635413 58.85491762 -2.08188479 50.70989042 -2.10362434 42.56470871 C-2.11405858 38.78251229 -2.12821116 35.00040617 -2.15087891 31.21826172 C-2.17262021 27.56782392 -2.18457134 23.91747295 -2.18975449 20.2669754 C-2.19344794 18.87472416 -2.20066034 17.48247762 -2.21146011 16.09026337 C-2.22599126 14.13932433 -2.22681706 12.18829782 -2.22705078 10.23730469 C-2.231492 9.1269989 -2.23593323 8.01669312 -2.24050903 6.8727417 C-2.0035883 4.04286013 -1.46836296 2.39834586 0 0 Z " fill="#F4BF1B" transform="translate(314,170)"/>
<path d="M0 0 C0.33 0 0.66 0 1 0 C1 7.26 1 14.52 1 22 C3.97 22 6.94 22 10 22 C9.95875 20.576875 9.9175 19.15375 9.875 17.6875 C9.76867825 14.01939967 9.86413322 13.20380017 12 10 C12 14.62 12 19.24 12 24 C7.71 24 3.42 24 -1 24 C-0.67 16.08 -0.34 8.16 0 0 Z " fill="#202020" transform="translate(121,292)"/>
<path d="M0 0 C3.96 0 7.92 0 12 0 C12 0.66 12 1.32 12 2 C9.5 3.5 9.5 3.5 7 5 C5.2958946 6.62836738 3.61974559 8.28769752 2 10 C-1.125 4.5 -1.125 4.5 0 0 Z " fill="#141414" transform="translate(160,177)"/>
<path d="M0 0 C0.33 0.99 0.66 1.98 1 3 C1.66 3 2.32 3 3 3 C3.06058594 3.86882812 3.12117188 4.73765625 3.18359375 5.6328125 C3.26738281 6.78523438 3.35117187 7.93765625 3.4375 9.125 C3.51871094 10.26195312 3.59992188 11.39890625 3.68359375 12.5703125 C3.97730965 15.7540478 4.43124313 18.85510907 5 22 C7.64 22.33 10.28 22.66 13 23 C12.67 23.66 12.34 24.32 12 25 C9.69 25 7.38 25 5 25 C5 24.34 5 23.68 5 23 C4.34 23 3.68 23 3 23 C1.27935276 15.74870091 -0.23802918 8.42093318 -1 1 C-0.67 0.67 -0.34 0.34 0 0 Z " fill="#F0C758" transform="translate(364,276)"/>
<path d="M0 0 C4.52071021 -0.08751499 9.0412007 -0.1405661 13.5625 -0.1875 C15.47772461 -0.22520508 15.47772461 -0.22520508 17.43164062 -0.26367188 C24.04081154 -0.31517191 29.1982641 -0.32400207 35 3 C31.62460038 4.12513321 30.3920544 3.75189115 27 3 C25.37864099 2.87201967 23.75418722 2.77912997 22.12890625 2.71875 C20.77249023 2.66267578 20.77249023 2.66267578 19.38867188 2.60546875 C18.45603516 2.57066406 17.52339844 2.53585938 16.5625 2.5 C5.3993475 2.08167229 5.3993475 2.08167229 0 1 C0 0.67 0 0.34 0 0 Z " fill="#F3C754" transform="translate(330,248)"/>
<path d="M0 0 C-0.639375 0.350625 -1.27875 0.70125 -1.9375 1.0625 C-4.82163832 3.77184206 -4.7100822 6.15858911 -5 10 C-5.99 9.34 -6.98 8.68 -8 8 C-8.99 8.495 -8.99 8.495 -10 9 C-10.66 8.67 -11.32 8.34 -12 8 C-12 8.66 -12 9.32 -12 10 C-12.99 10 -13.98 10 -15 10 C-15 10.66 -15 11.32 -15 12 C-15.66 11.67 -16.32 11.34 -17 11 C-16.67 10.34 -16.34 9.68 -16 9 C-15.34 9 -14.68 9 -14 9 C-14 8.34 -14 7.68 -14 7 C-13.34 7 -12.68 7 -12 7 C-12 6.34 -12 5.68 -12 5 C-11.34 5 -10.68 5 -10 5 C-10 4.34 -10 3.68 -10 3 C-9.34 3 -8.68 3 -8 3 C-8 2.34 -8 1.68 -8 1 C-5.29120665 -0.35439668 -2.99066732 -0.06501451 0 0 Z " fill="#F7C528" transform="translate(405,261)"/>
<path d="M0 0 C1.98 0.99 3.96 1.98 6 3 C5.34 4.98 4.68 6.96 4 9 C3.67 8.34 3.34 7.68 3 7 C1.35 7.33 -0.3 7.66 -2 8 C-1.33333333 5.33333333 -0.66666667 2.66666667 0 0 Z M-6 6 C-4.68 6.66 -3.36 7.32 -2 8 C-2 10.64 -2 13.28 -2 16 C-4 12.25 -4 12.25 -4 10 C-5.32 9.34 -6.64 8.68 -8 8 C-7.34 7.34 -6.68 6.68 -6 6 Z " fill="#2C2A2A" transform="translate(354,263)"/>
<path d="M0 0 C3.16664666 -0.02940458 6.33325747 -0.04693315 9.5 -0.0625 C10.386875 -0.07087891 11.27375 -0.07925781 12.1875 -0.08789062 C17.55823086 -0.10763596 22.68633663 0.21164107 28 1 C28 1.33 28 1.66 28 2 C24.3535194 2.8410478 21.00049093 3.11764968 17.26171875 3.09765625 C16.19501953 3.09443359 15.12832031 3.09121094 14.02929688 3.08789062 C12.37510742 3.07532227 12.37510742 3.07532227 10.6875 3.0625 C9.56537109 3.05798828 8.44324219 3.05347656 7.28710938 3.04882812 C4.5246849 3.03707313 1.76237002 3.02064077 -1 3 C-0.67 2.01 -0.34 1.02 0 0 Z " fill="#060606" transform="translate(65,176)"/>
<path d="M0 0 C0.99 0.33 1.98 0.66 3 1 C4.125 7.625 4.125 7.625 3 11 C0.36 11.33 -2.28 11.66 -5 12 C-5 11.01 -5 10.02 -5 9 C-2.69 9 -0.38 9 2 9 C1.67 8.34 1.34 7.68 1 7 C0.01 7.495 0.01 7.495 -1 8 C-1.125 2.25 -1.125 2.25 0 0 Z " fill="#242217" transform="translate(359,268)"/>
<path d="M0 0 C0.99 0.33 1.98 0.66 3 1 C-3.69083779 5.0463638 -8.7722035 5.5136781 -16.5 5.25 C-17.51320313 5.23195313 -18.52640625 5.21390625 -19.5703125 5.1953125 C-22.04788607 5.14856583 -24.52342316 5.08306372 -27 5 C-27 4.67 -27 4.34 -27 4 C-25.71222656 3.93941406 -24.42445313 3.87882812 -23.09765625 3.81640625 C-21.41925841 3.73201753 -19.74087364 3.6473687 -18.0625 3.5625 C-16.78729492 3.50352539 -16.78729492 3.50352539 -15.48632812 3.44335938 C-14.67744141 3.40146484 -13.86855469 3.35957031 -13.03515625 3.31640625 C-12.2862915 3.27974854 -11.53742676 3.24309082 -10.76586914 3.20532227 C-8.97538674 3.18228937 -8.97538674 3.18228937 -8 2 C-4.5 1.5 -4.5 1.5 -1 1 C-0.67 0.67 -0.34 0.34 0 0 Z " fill="#ECBF39" transform="translate(433,265)"/>
<path d="M0 0 C0.66 0 1.32 0 2 0 C2.1963696 2.37456165 2.38231294 4.74920019 2.5625 7.125 C2.61857422 7.79015625 2.67464844 8.4553125 2.73242188 9.140625 C3.03625857 13.2728041 2.85227531 16.94695741 2 21 C1.34 21 0.68 21 0 21 C0 14.07 0 7.14 0 0 Z " fill="#0C0C0C" transform="translate(212,282)"/>
<path d="M0 0 C0.66 0 1.32 0 2 0 C2 0.66 2 1.32 2 2 C2.66 2 3.32 2 4 2 C5.25390625 3.64453125 5.25390625 3.64453125 6.5625 5.8125 C6.99691406 6.52019531 7.43132812 7.22789062 7.87890625 7.95703125 C10.3310505 12.42557287 10.08132033 16.0394599 10 21 C9.67 21 9.34 21 9 21 C8.86722656 20.39671875 8.73445313 19.7934375 8.59765625 19.171875 C8.33275391 17.97304688 8.33275391 17.97304688 8.0625 16.75 C7.88847656 15.96109375 7.71445312 15.1721875 7.53515625 14.359375 C7.052444 12.23121297 6.53836822 10.11467158 6 8 C5.01 8 4.02 8 3 8 C2.87625 7.360625 2.7525 6.72125 2.625 6.0625 C2.315625 5.0415625 2.315625 5.0415625 2 4 C1.34 3.67 0.68 3.34 0 3 C0 2.01 0 1.02 0 0 Z " fill="#F3CE62" transform="translate(365,252)"/>
<path d="M0 0 C0.66 0 1.32 0 2 0 C2.38133299 1.9914056 2.71325582 3.99279077 3 6 C2.67 6.33 2.34 6.66 2 7 C1.76636119 8.84891946 1.58696365 10.70488031 1.4375 12.5625 C1.35371094 13.57441406 1.26992187 14.58632812 1.18359375 15.62890625 C1.12300781 16.41136719 1.06242188 17.19382813 1 18 C0.34 18 -0.32 18 -1 18 C-0.97679687 17.18015625 -0.95359375 16.3603125 -0.9296875 15.515625 C-0.91164062 14.43796875 -0.89359375 13.3603125 -0.875 12.25 C-0.84019531 10.64898437 -0.84019531 10.64898437 -0.8046875 9.015625 C-0.99512313 6.07529894 -1.47329896 4.47638122 -3 2 C-2.01 2 -1.02 2 0 2 C0 1.34 0 0.68 0 0 Z " fill="#303030" transform="translate(139,211)"/>
<path d="M0 0 C5.28 0 10.56 0 16 0 C16.33 0.66 16.66 1.32 17 2 C11.06 2.33 5.12 2.66 -1 3 C-0.67 2.01 -0.34 1.02 0 0 Z " fill="#050505" transform="translate(77,214)"/>
<path d="M0 0 C0.33 0.99 0.66 1.98 1 3 C0.01 3.66 -0.98 4.32 -2 5 C-2.33 5.66 -2.66 6.32 -3 7 C-4.65 6.67 -6.3 6.34 -8 6 C-7.8125 4.125 -7.8125 4.125 -7 2 C-4.55683729 0.74709605 -2.75474605 0 0 0 Z " fill="#121212" transform="translate(75,264)"/>
<path d="M0 0 C0.33 0 0.66 0 1 0 C1 1.65 1 3.3 1 5 C-3.08443115 6.53166168 -6.79455657 5.63081652 -11 5 C-10.67 4.01 -10.34 3.02 -10 2 C-7.03 2 -4.06 2 -1 2 C-0.67 1.34 -0.34 0.68 0 0 Z " fill="#313131" transform="translate(98,274)"/>
<path d="M0 0 C0.928125 0.165 1.85625 0.33 2.8125 0.5 C5.95621353 1.07748388 5.95621353 1.07748388 9 1 C11.01151741 1.63106429 13.01363702 2.29373761 15 3 C15 3.33 15 3.66 15 4 C10.38 4 5.76 4 1 4 C0.67 2.68 0.34 1.36 0 0 Z " fill="#F2C22B" transform="translate(372,244)"/>
<path d="M0 0 C2.97 0.495 2.97 0.495 6 1 C5.67 3.97 5.34 6.94 5 10 C0 3.40909091 0 3.40909091 0 0 Z " fill="#313131" transform="translate(117,177)"/>
<path d="M0 0 C2.31 0 4.62 0 7 0 C5.625 1.5 5.625 1.5 4 3 C3.34 3 2.68 3 2 3 C1.34 5.31 0.68 7.62 0 10 C-0.33 10 -0.66 10 -1 10 C-0.67 6.7 -0.34 3.4 0 0 Z " fill="#F1CC43" transform="translate(323,171)"/>
<path d="M0 0 C0 3 0 3 -1 6 C-1.66 6 -2.32 6 -3 6 C-3.33 6.99 -3.66 7.98 -4 9 C-4.99 9.33 -5.98 9.66 -7 10 C-7 6 -7 6 -5.46875 4.296875 C-4.8190625 3.78640625 -4.169375 3.2759375 -3.5 2.75 C-2.8503125 2.22921875 -2.200625 1.7084375 -1.53125 1.171875 C-0.77328125 0.59179688 -0.77328125 0.59179688 0 0 Z " fill="#F1BF2F" transform="translate(385,275)"/>
<path d="M0 0 C4.29 0 8.58 0 13 0 C13 0.66 13 1.32 13 2 C7.06 2.495 7.06 2.495 1 3 C0.67 2.01 0.34 1.02 0 0 Z " fill="#7B7B7B" transform="translate(79,202)"/>
<path d="M0 0 C0.66 0.66 1.32 1.32 2 2 C1.01 2.495 1.01 2.495 0 3 C0 2.01 0 1.02 0 0 Z M-4 1 C-2.68 1.66 -1.36 2.32 0 3 C0 5.64 0 8.28 0 11 C-2 7.25 -2 7.25 -2 5 C-3.32 4.34 -4.64 3.68 -6 3 C-5.34 2.34 -4.68 1.68 -4 1 Z " fill="#3C3E3D" transform="translate(352,268)"/>
<path d="M0 0 C2 3 2 3 1.625 5.1875 C1.41875 5.785625 1.2125 6.38375 1 7 C0.649375 6.54625 0.29875 6.0925 -0.0625 5.625 C-2.77096206 3.35338666 -5.60795328 2.83201146 -9 2 C-9 1.67 -9 1.34 -9 1 C-2.25 0.875 -2.25 0.875 0 2 C0 1.34 0 0.68 0 0 Z " fill="#F3CA5B" transform="translate(430,169)"/>
<path d="M0 0 C2.475 0.99 2.475 0.99 5 2 C3.35830472 4.02054804 1.69088222 6.02043058 0 8 C-0.33 8 -0.66 8 -1 8 C-1.04241723 5.66705225 -1.04092937 3.33297433 -1 1 C-0.67 0.67 -0.34 0.34 0 0 Z " fill="#F4CB42" transform="translate(402,268)"/>
<path d="M0 0 C3.3 0.33 6.6 0.66 10 1 C10.33 2.32 10.66 3.64 11 5 C9.53932801 4.54917531 8.08151968 4.08906463 6.625 3.625 C5.81289062 3.36976563 5.00078125 3.11453125 4.1640625 2.8515625 C2 2 2 2 0 0 Z " fill="#383838" transform="translate(67,289)"/>
<path d="M0 0 C2.46324069 3.69486103 2.38991688 5.63293092 2 10 C0.5 11.9375 0.5 11.9375 -1 13 C-1.07654536 8.48382401 -1.10228696 4.40914783 0 0 Z " fill="#CBA02A" transform="translate(363,266)"/>
<path d="M0 0 C0.66 0 1.32 0 2 0 C1.690625 0.5775 1.38125 1.155 1.0625 1.75 C0.07416636 3.84294184 -0.5168613 5.74535275 -1 8 C-1.2475 7.21625 -1.495 6.4325 -1.75 5.625 C-3.15389099 2.67682892 -4.00675737 2.0975223 -7 1 C-4.69 1.33 -2.38 1.66 0 2 C0 1.34 0 0.68 0 0 Z " fill="#F2C63A" transform="translate(363,259)"/>
<path d="M0 0 C1.32 0.33 2.64 0.66 4 1 C2.68 3.31 1.36 5.62 0 8 C-0.99 6.68 -1.98 5.36 -3 4 C-2.67 3.34 -2.34 2.68 -2 2 C-1.34 2 -0.68 2 0 2 C0 1.34 0 0.68 0 0 Z " fill="#3D3D3D" transform="translate(172,177)"/>
<path d="M0 0 C-2.31 0 -4.62 0 -7 0 C-7.33 1.32 -7.66 2.64 -8 4 C-8.66 4 -9.32 4 -10 4 C-10 2.35 -10 0.7 -10 -1 C-5.92224809 -1.9267618 -3.57818963 -2.33958553 0 0 Z " fill="#5F5F5F" transform="translate(72,299)"/>
<path d="M0 0 C7.75 0.875 7.75 0.875 10 2 C10 2.66 10 3.32 10 4 C8.51882199 3.71872579 7.04006751 3.42466268 5.5625 3.125 C4.73878906 2.96257812 3.91507812 2.80015625 3.06640625 2.6328125 C2.38449219 2.42398437 1.70257813 2.21515625 1 2 C0.67 1.34 0.34 0.68 0 0 Z " fill="#494949" transform="translate(335,291)"/>
<path d="M0 0 C0.99 0 1.98 0 3 0 C3 0.66 3 1.32 3 2 C3.639375 2.12375 4.27875 2.2475 4.9375 2.375 C5.618125 2.58125 6.29875 2.7875 7 3 C7.33 3.66 7.66 4.32 8 5 C2.25 5.125 2.25 5.125 0 4 C0 2.68 0 1.36 0 0 Z " fill="#535152" transform="translate(354,285)"/>
<path d="M0 0 C0.99 0 1.98 0 3 0 C3 3.3 3 6.6 3 10 C2.34 10 1.68 10 1 10 C0.67 6.7 0.34 3.4 0 0 Z " fill="#343434" transform="translate(108,189)"/>
<path d="M0 0 C3.63 0 7.26 0 11 0 C11 0.66 11 1.32 11 2 C8.00468461 2.99843846 6.82744268 3.00732761 3.8125 2.5625 C2.554375 2.376875 1.29625 2.19125 0 2 C0 1.34 0 0.68 0 0 Z " fill="#090909" transform="translate(161,177)"/>
<path d="M0 0 C0.66 0 1.32 0 2 0 C3.32421875 1.6796875 3.32421875 1.6796875 4.6875 3.875 C5.14511719 4.59429687 5.60273438 5.31359375 6.07421875 6.0546875 C6.37972656 6.69664062 6.68523437 7.33859375 7 8 C6.67 8.66 6.34 9.32 6 10 C2.6443794 7.7629196 2.80721959 7.57482962 2 4 C1.34 3.67 0.68 3.34 0 3 C0 2.01 0 1.02 0 0 Z " fill="#565656" transform="translate(241,297)"/>
<path d="M0 0 C0.99 0.99 1.98 1.98 3 3 C0 5 0 5 -4 5 C-3.6875 3.0625 -3.6875 3.0625 -3 1 C-2.01 0.67 -1.02 0.34 0 0 Z " fill="#131112" transform="translate(311,289)"/>
<path d="M0 0 C0.99 0.495 0.99 0.495 2 1 C2.34022786 2.99883869 2.67329097 4.99890722 3 7 C3.66 7.66 4.32 8.32 5 9 C3.35 8.67 1.7 8.34 0 8 C0 5.36 0 2.72 0 0 Z " fill="#090708" transform="translate(296,276)"/>
<path d="M0 0 C0.33 0 0.66 0 1 0 C1 2.64 1 5.28 1 8 C1.66 8 2.32 8 3 8 C3.33 9.65 3.66 11.3 4 13 C3.01 12.67 2.02 12.34 1 12 C-0.26237731 9.47524538 -0.09856404 7.68799534 -0.0625 4.875 C-0.05347656 3.96492187 -0.04445313 3.05484375 -0.03515625 2.1171875 C-0.02355469 1.41851562 -0.01195312 0.71984375 0 0 Z " fill="#F6C62C" transform="translate(320,230)"/>
<path d="M0 0 C0.33 0.66 0.66 1.32 1 2 C1.99 2.33 2.98 2.66 4 3 C3.01 3.495 3.01 3.495 2 4 C1.34786708 6.02463255 1.34786708 6.02463255 1 8 C-1 5 -1 5 -0.625 2.3125 C-0.41875 1.549375 -0.2125 0.78625 0 0 Z " fill="#111111" transform="translate(89,299)"/>
<path d="M0 0 C1.53202706 0.25195908 3.05257128 0.57596777 4.5625 0.9375 C5.38878906 1.13214844 6.21507812 1.32679688 7.06640625 1.52734375 C8.02353516 1.76130859 8.02353516 1.76130859 9 2 C7.66666667 2.33333333 6.33333333 2.66666667 5 3 C3.88625 3.2784375 3.88625 3.2784375 2.75 3.5625 C2.1725 3.706875 1.595 3.85125 1 4 C0.34 3.01 -0.32 2.02 -1 1 C-0.67 0.67 -0.34 0.34 0 0 Z " fill="#484748" transform="translate(344,282)"/>
<path d="M0 0 C3.24208567 0.35049575 4.61527704 0.56221181 6.8125 3.0625 C7.204375 3.701875 7.59625 4.34125 8 5 C2.25 3.125 2.25 3.125 0 2 C0 1.34 0 0.68 0 0 Z " fill="#F3D16F" transform="translate(319,254)"/>
<path d="M0 0 C0.66 0.99 1.32 1.98 2 3 C0.6875 5 0.6875 5 -1 7 C-1.99 7 -2.98 7 -4 7 C-2.79618552 4.50638429 -1.54571278 2.31856917 0 0 Z " fill="#2E2E2E" transform="translate(96,198)"/>
<path d="M0 0 C1.65 0.33 3.3 0.66 5 1 C5 1.99 5 2.98 5 4 C2.03 3.505 2.03 3.505 -1 3 C-0.67 2.01 -0.34 1.02 0 0 Z " fill="#262421" transform="translate(358,290)"/>
<path d="M0 0 C0.6875 1.75 0.6875 1.75 1 4 C-0.3125 6.25 -0.3125 6.25 -2 8 C-2.66 8 -3.32 8 -4 8 C-2.25 2.25 -2.25 2.25 0 0 Z " fill="#424242" transform="translate(156,269)"/>
<path d="M0 0 C1.32 0 2.64 0 4 0 C4 0.66 4 1.32 4 2 C3.34 2 2.68 2 2 2 C1.71125 2.639375 1.4225 3.27875 1.125 3.9375 C0 6 0 6 -2 7 C-1.67 5.68 -1.34 4.36 -1 3 C-0.34 3 0.32 3 1 3 C0.67 2.01 0.34 1.02 0 0 Z " fill="#F4D04F" transform="translate(388,284)"/>
<path d="M0 0 C1.32 0.33 2.64 0.66 4 1 C3.01 2.485 3.01 2.485 2 4 C1.61500109 5.65549531 1.27206865 7.3222433 1 9 C0.67 9 0.34 9 0 9 C0 6.03 0 3.06 0 0 Z " fill="#0C0B0B" transform="translate(327,271)"/>
<path d="M0 0 C0.99 0 1.98 0 3 0 C3 1.65 3 3.3 3 5 C1.35 5 -0.3 5 -2 5 C-2.33 4.34 -2.66 3.68 -3 3 C-2.01 3 -1.02 3 0 3 C0 2.01 0 1.02 0 0 Z " fill="#303030" transform="translate(81,267)"/>
</svg>
